G04 #@! TF.GenerationSoftware,KiCad,Pcbnew,7.0.9*
G04 #@! TF.CreationDate,2024-02-10T14:11:46+01:00*
G04 #@! TF.ProjectId,parasite,70617261-7369-4746-952e-6b696361645f,2.0.0*
G04 #@! TF.SameCoordinates,Original*
G04 #@! TF.FileFunction,Copper,L1,Top*
G04 #@! TF.FilePolarity,Positive*
%FSLAX46Y46*%
G04 Gerber Fmt 4.6, Leading zero omitted, Abs format (unit mm)*
G04 Created by KiCad (PCBNEW 7.0.9) date 2024-02-10 14:11:46*
%MOMM*%
%LPD*%
G01*
G04 APERTURE LIST*
G04 Aperture macros list*
%AMRoundRect*
0 Rectangle with rounded corners*
0 $1 Rounding radius*
0 $2 $3 $4 $5 $6 $7 $8 $9 X,Y pos of 4 corners*
0 Add a 4 corners polygon primitive as box body*
4,1,4,$2,$3,$4,$5,$6,$7,$8,$9,$2,$3,0*
0 Add four circle primitives for the rounded corners*
1,1,$1+$1,$2,$3*
1,1,$1+$1,$4,$5*
1,1,$1+$1,$6,$7*
1,1,$1+$1,$8,$9*
0 Add four rect primitives between the rounded corners*
20,1,$1+$1,$2,$3,$4,$5,0*
20,1,$1+$1,$4,$5,$6,$7,0*
20,1,$1+$1,$6,$7,$8,$9,0*
20,1,$1+$1,$8,$9,$2,$3,0*%
G04 Aperture macros list end*
G04 #@! TA.AperFunction,SMDPad,CuDef*
%ADD10RoundRect,0.243750X0.456250X-0.243750X0.456250X0.243750X-0.456250X0.243750X-0.456250X-0.243750X0*%
G04 #@! TD*
G04 #@! TA.AperFunction,SMDPad,CuDef*
%ADD11R,2.000000X1.000000*%
G04 #@! TD*
G04 #@! TA.AperFunction,SMDPad,CuDef*
%ADD12R,1.000000X2.000000*%
G04 #@! TD*
G04 #@! TA.AperFunction,SMDPad,CuDef*
%ADD13R,0.900000X0.900000*%
G04 #@! TD*
G04 #@! TA.AperFunction,SMDPad,CuDef*
%ADD14RoundRect,0.147500X-0.172500X0.147500X-0.172500X-0.147500X0.172500X-0.147500X0.172500X0.147500X0*%
G04 #@! TD*
G04 #@! TA.AperFunction,SMDPad,CuDef*
%ADD15RoundRect,0.147500X0.147500X0.172500X-0.147500X0.172500X-0.147500X-0.172500X0.147500X-0.172500X0*%
G04 #@! TD*
G04 #@! TA.AperFunction,SMDPad,CuDef*
%ADD16R,0.900000X0.800000*%
G04 #@! TD*
G04 #@! TA.AperFunction,SMDPad,CuDef*
%ADD17RoundRect,0.147500X-0.147500X-0.172500X0.147500X-0.172500X0.147500X0.172500X-0.147500X0.172500X0*%
G04 #@! TD*
G04 #@! TA.AperFunction,SMDPad,CuDef*
%ADD18C,1.000000*%
G04 #@! TD*
G04 #@! TA.AperFunction,SMDPad,CuDef*
%ADD19RoundRect,0.147500X0.172500X-0.147500X0.172500X0.147500X-0.172500X0.147500X-0.172500X-0.147500X0*%
G04 #@! TD*
G04 #@! TA.AperFunction,SMDPad,CuDef*
%ADD20R,1.000000X1.800000*%
G04 #@! TD*
G04 #@! TA.AperFunction,SMDPad,CuDef*
%ADD21RoundRect,0.218750X0.218750X0.256250X-0.218750X0.256250X-0.218750X-0.256250X0.218750X-0.256250X0*%
G04 #@! TD*
G04 #@! TA.AperFunction,SMDPad,CuDef*
%ADD22RoundRect,0.087500X0.187500X0.087500X-0.187500X0.087500X-0.187500X-0.087500X0.187500X-0.087500X0*%
G04 #@! TD*
G04 #@! TA.AperFunction,SMDPad,CuDef*
%ADD23RoundRect,0.175000X0.175000X0.625000X-0.175000X0.625000X-0.175000X-0.625000X0.175000X-0.625000X0*%
G04 #@! TD*
G04 #@! TA.AperFunction,SMDPad,CuDef*
%ADD24R,1.300000X1.700000*%
G04 #@! TD*
G04 #@! TA.AperFunction,SMDPad,CuDef*
%ADD25R,1.700000X0.800000*%
G04 #@! TD*
G04 #@! TA.AperFunction,ViaPad*
%ADD26C,0.600000*%
G04 #@! TD*
G04 #@! TA.AperFunction,Conductor*
%ADD27C,0.500000*%
G04 #@! TD*
G04 #@! TA.AperFunction,Conductor*
%ADD28C,0.200000*%
G04 #@! TD*
G04 #@! TA.AperFunction,Conductor*
%ADD29C,10.000000*%
G04 #@! TD*
G04 APERTURE END LIST*
D10*
X58000000Y-33613500D03*
X58000000Y-31738500D03*
D11*
X60468000Y-31542550D03*
X60468000Y-32812550D03*
X60468000Y-34082550D03*
X60468000Y-35352550D03*
X60468000Y-36622550D03*
X60468000Y-37892550D03*
X60468000Y-39162550D03*
X60468000Y-40432550D03*
X60468000Y-41702550D03*
X60468000Y-42972550D03*
D12*
X62528000Y-45572550D03*
D13*
X63158000Y-43472550D03*
D12*
X63798000Y-45572550D03*
D13*
X64428000Y-43472550D03*
D12*
X65068000Y-45572550D03*
D13*
X65698000Y-43472550D03*
D12*
X66338000Y-45572550D03*
D13*
X66968000Y-43472550D03*
D12*
X67608000Y-45572550D03*
D13*
X68238000Y-43472550D03*
D12*
X68878000Y-45572550D03*
D13*
X69508000Y-43472550D03*
D12*
X70148000Y-45572550D03*
D13*
X70778000Y-43472550D03*
D12*
X71418000Y-45572550D03*
D11*
X73468000Y-42972550D03*
X73468000Y-41702550D03*
D13*
X71368000Y-41067550D03*
D11*
X73468000Y-40432550D03*
D13*
X71368000Y-39797550D03*
D11*
X73468000Y-39162550D03*
D13*
X71368000Y-38527550D03*
D11*
X73468000Y-37892550D03*
D13*
X71368000Y-37257550D03*
D11*
X73468000Y-36622550D03*
D13*
X71368000Y-35987550D03*
D11*
X73468000Y-35352550D03*
D13*
X71368000Y-34717550D03*
D11*
X73468000Y-34082550D03*
D13*
X71368000Y-33447550D03*
D11*
X73468000Y-32812550D03*
D13*
X71368000Y-32177550D03*
D11*
X73468000Y-31542550D03*
D14*
X69762000Y-58584000D03*
X69762000Y-59554000D03*
X71540000Y-58584000D03*
X71540000Y-59554000D03*
D15*
X62015000Y-57822000D03*
X61045000Y-57822000D03*
D16*
X65936000Y-59518000D03*
X65936000Y-57618000D03*
X63936000Y-58568000D03*
D17*
X61045000Y-55663000D03*
X62015000Y-55663000D03*
D18*
X77382000Y-36750000D03*
X77382000Y-39290000D03*
X67984000Y-58838000D03*
X61380000Y-59473000D03*
D15*
X61865000Y-50202000D03*
X60895000Y-50202000D03*
D19*
X70524000Y-55917000D03*
X70524000Y-54947000D03*
D20*
X69138500Y-49694000D03*
X66638500Y-49694000D03*
D21*
X61405500Y-52869000D03*
X59830500Y-52869000D03*
D14*
X68884500Y-52534000D03*
X68884500Y-53504000D03*
D19*
X67106500Y-53481000D03*
X67106500Y-52511000D03*
D14*
X74588000Y-52534000D03*
X74588000Y-53504000D03*
D19*
X76239000Y-53504000D03*
X76239000Y-52534000D03*
D22*
X75005000Y-56544000D03*
X75005000Y-55544000D03*
X73155000Y-55544000D03*
X73155000Y-56544000D03*
D23*
X74080000Y-56044000D03*
D24*
X68492000Y-55536000D03*
X64992000Y-55536000D03*
D18*
X77382000Y-44370000D03*
D14*
X58500000Y-37765000D03*
X58500000Y-38735000D03*
D18*
X77382000Y-34210000D03*
D25*
X72302000Y-48502000D03*
X72302000Y-51902000D03*
X63920000Y-48502000D03*
X63920000Y-51902000D03*
D18*
X77382000Y-31670000D03*
X77362000Y-41830000D03*
D26*
X74750000Y-45250000D03*
X75500000Y-45750000D03*
X75500000Y-40000000D03*
X75500000Y-41000000D03*
X75500000Y-42000000D03*
X75500000Y-43000000D03*
X62000000Y-37000000D03*
X58750000Y-37000000D03*
X61250000Y-44250000D03*
X62000000Y-36250000D03*
X74969000Y-63918000D03*
X75731000Y-63918000D03*
X60618000Y-64172000D03*
X58078000Y-42201000D03*
X77255000Y-63918000D03*
X64682000Y-32168000D03*
X62269000Y-51472000D03*
X58078000Y-43979000D03*
X70397000Y-51726000D03*
X58750000Y-36250000D03*
X69254000Y-38899000D03*
X76493000Y-63918000D03*
X58078000Y-41312000D03*
X59856000Y-64172000D03*
X70397000Y-48678000D03*
X61380000Y-64172000D03*
X67857000Y-32168000D03*
X68873000Y-32168000D03*
X66714000Y-32168000D03*
X70397000Y-50202000D03*
X65698000Y-32168000D03*
X69254000Y-37375000D03*
X62142000Y-64172000D03*
X70397000Y-49440000D03*
X69762000Y-32168000D03*
X70397000Y-50964000D03*
X58078000Y-43090000D03*
X69254000Y-38137000D03*
X60237000Y-47535000D03*
X62750000Y-34500000D03*
X67603000Y-45630000D03*
X75096000Y-33184000D03*
X67603000Y-44995000D03*
X75701089Y-49798911D03*
X76750000Y-58500000D03*
X70148000Y-44995000D03*
X70143000Y-45630000D03*
X76750000Y-54300000D03*
X59500000Y-46000000D03*
X60999000Y-46900000D03*
X63500000Y-36000000D03*
X75000000Y-47750000D03*
X75250000Y-37250000D03*
X75250000Y-38500000D03*
X75000000Y-46750000D03*
X75223000Y-36000000D03*
X75223000Y-34708000D03*
D27*
X76750000Y-54300000D02*
X76239000Y-53789000D01*
X76239000Y-53789000D02*
X76239000Y-53504000D01*
X75818000Y-57568000D02*
X75096000Y-57568000D01*
X76750000Y-58500000D02*
X75818000Y-57568000D01*
D28*
X76458000Y-49458000D02*
X76458000Y-52315000D01*
X75750000Y-48750000D02*
X76458000Y-49458000D01*
X75750000Y-47500000D02*
X75750000Y-48750000D01*
X76458000Y-52315000D02*
X76239000Y-52534000D01*
X75000000Y-46750000D02*
X75750000Y-47500000D01*
X75207520Y-52884480D02*
X74588000Y-53504000D01*
X75207520Y-50292480D02*
X75207520Y-52884480D01*
X75701089Y-49798911D02*
X75207520Y-50292480D01*
D27*
X62017500Y-53481000D02*
X61405500Y-52869000D01*
X63920000Y-53481000D02*
X62017500Y-53481000D01*
D28*
X61045000Y-59138000D02*
X61045000Y-57822000D01*
X61380000Y-59473000D02*
X61045000Y-59138000D01*
X65936000Y-59118000D02*
X64132000Y-57314000D01*
X64132000Y-57314000D02*
X62523000Y-57314000D01*
X62523000Y-57314000D02*
X62015000Y-57822000D01*
X65936000Y-59518000D02*
X65936000Y-59118000D01*
X74588000Y-48162000D02*
X74588000Y-52534000D01*
X75000000Y-47750000D02*
X74588000Y-48162000D01*
D27*
X72175000Y-57568000D02*
X75096000Y-57568000D01*
X70524000Y-55917000D02*
X72175000Y-57568000D01*
D28*
X72748000Y-48502000D02*
X73468000Y-47782000D01*
X72302000Y-48502000D02*
X72748000Y-48502000D01*
X73468000Y-44250000D02*
X73468000Y-47782000D01*
X58586000Y-54012000D02*
X60237000Y-55663000D01*
X58586000Y-51370000D02*
X58586000Y-54012000D01*
X59500000Y-50456000D02*
X58586000Y-51370000D01*
X60237000Y-55663000D02*
X61045000Y-55663000D01*
X59500000Y-46000000D02*
X59500000Y-50456000D01*
X57880000Y-35209232D02*
X57880000Y-38115000D01*
X59000000Y-34089232D02*
X57880000Y-35209232D01*
X59000000Y-32738500D02*
X59000000Y-34089232D01*
X58000000Y-31738500D02*
X59000000Y-32738500D01*
X57480000Y-34133500D02*
X58000000Y-33613500D01*
X57480000Y-38980000D02*
X57480000Y-34133500D01*
X77254550Y-31542550D02*
X77382000Y-31670000D01*
X73468000Y-31542550D02*
X77254550Y-31542550D01*
D27*
X76366000Y-33194000D02*
X77382000Y-34210000D01*
X76366000Y-33184000D02*
X76366000Y-33194000D01*
D28*
X75984550Y-35352550D02*
X73468000Y-35352550D01*
X77382000Y-36750000D02*
X75984550Y-35352550D01*
X76000000Y-37908000D02*
X77382000Y-39290000D01*
X76000000Y-36777000D02*
X76000000Y-37908000D01*
X75223000Y-36000000D02*
X76000000Y-36777000D01*
X74642550Y-37892550D02*
X75250000Y-38500000D01*
X73468000Y-37892550D02*
X74642550Y-37892550D01*
X74622550Y-36622550D02*
X75250000Y-37250000D01*
X73468000Y-36622550D02*
X74622550Y-36622550D01*
X77382000Y-44370000D02*
X73588000Y-44370000D01*
X73588000Y-44370000D02*
X73468000Y-44250000D01*
X73468000Y-44250000D02*
X73468000Y-42972550D01*
X58500000Y-37250000D02*
X58750000Y-37000000D01*
X58500000Y-37765000D02*
X58500000Y-37250000D01*
X58932550Y-40432550D02*
X57480000Y-38980000D01*
X60468000Y-40432550D02*
X58932550Y-40432550D01*
X63500000Y-36000000D02*
X62852550Y-35352550D01*
X62852550Y-35352550D02*
X60468000Y-35352550D01*
X58500000Y-38735000D02*
X58927550Y-39162550D01*
X58927550Y-39162550D02*
X60468000Y-39162550D01*
X57880000Y-38115000D02*
X58500000Y-38735000D01*
X65068000Y-44372550D02*
X65068000Y-45572550D01*
X64945450Y-44250000D02*
X65068000Y-44372550D01*
X61250000Y-44250000D02*
X64945450Y-44250000D01*
X62332550Y-34082550D02*
X60468000Y-34082550D01*
X62750000Y-34500000D02*
X62332550Y-34082550D01*
D27*
X70397000Y-48220572D02*
X70397000Y-48678000D01*
X73155000Y-56544000D02*
X72421000Y-56544000D01*
X63920000Y-51902000D02*
X63920000Y-53481000D01*
X67106500Y-53481000D02*
X68861500Y-53481000D01*
X72421000Y-56544000D02*
X70905000Y-55028000D01*
X68878000Y-45572550D02*
X68878000Y-46701572D01*
X63920000Y-53481000D02*
X67106500Y-53481000D01*
X68878000Y-46701572D02*
X70397000Y-48220572D01*
D28*
X68492000Y-57314000D02*
X69762000Y-58584000D01*
X60202000Y-47570000D02*
X60237000Y-47535000D01*
X68492000Y-55536000D02*
X66968000Y-55536000D01*
X65530520Y-54098520D02*
X59434520Y-54098520D01*
X68492000Y-55536000D02*
X68492000Y-57314000D01*
X58986000Y-53650000D02*
X58986000Y-51834000D01*
X58986000Y-51834000D02*
X60202000Y-50618000D01*
X60237000Y-47535000D02*
X60364000Y-47662000D01*
X66968000Y-55536000D02*
X65530520Y-54098520D01*
X60202000Y-50618000D02*
X60202000Y-47570000D01*
X69762000Y-58584000D02*
X71286000Y-58584000D01*
X59434520Y-54098520D02*
X58986000Y-53650000D01*
X65698000Y-47554000D02*
X66638500Y-48494500D01*
X63983764Y-47154000D02*
X64383765Y-47554000D01*
X64383765Y-47554000D02*
X65698000Y-47554000D01*
X62528000Y-46772550D02*
X62909450Y-47154000D01*
X62528000Y-45572550D02*
X62528000Y-46772550D01*
X66638500Y-52043000D02*
X67106500Y-52511000D01*
X66638500Y-48494500D02*
X66638500Y-49694000D01*
X66638500Y-49694000D02*
X66638500Y-52043000D01*
X62909450Y-47154000D02*
X63983764Y-47154000D01*
X64549450Y-47154000D02*
X67709685Y-47154000D01*
X63798000Y-45572550D02*
X63798000Y-46402550D01*
X69138500Y-49694000D02*
X69138500Y-52280000D01*
X69138500Y-48582815D02*
X69138500Y-49694000D01*
X68884500Y-52534000D02*
X69138500Y-52280000D01*
X67709685Y-47154000D02*
X69138500Y-48582815D01*
X63798000Y-46402550D02*
X64549450Y-47154000D01*
X59830500Y-52869000D02*
X59830500Y-52236500D01*
X59830500Y-52236500D02*
X61865000Y-50202000D01*
D27*
X75096000Y-57568000D02*
X75096000Y-56635000D01*
D28*
X67603000Y-44377550D02*
X67603000Y-44995000D01*
X70148000Y-44372550D02*
X70048489Y-44273039D01*
X70148000Y-45572550D02*
X70148000Y-44372550D01*
X70048489Y-44273039D02*
X67707511Y-44273039D01*
X67707511Y-44273039D02*
X67603000Y-44377550D01*
D27*
X75096000Y-33184000D02*
X76366000Y-33184000D01*
D28*
X64992000Y-56674000D02*
X65936000Y-57618000D01*
X62650000Y-85381000D02*
X67984000Y-90715000D01*
X67984000Y-101984000D02*
X68000000Y-102000000D01*
D29*
X68000000Y-102000000D02*
X68000000Y-142000000D01*
D28*
X67984000Y-58838000D02*
X67984000Y-74078000D01*
X62015000Y-55663000D02*
X62142000Y-55536000D01*
X67984000Y-90715000D02*
X67984000Y-101984000D01*
X62142000Y-55536000D02*
X64992000Y-55536000D01*
X64992000Y-55536000D02*
X64992000Y-56674000D01*
X62650000Y-79412000D02*
X62650000Y-85381000D01*
X66764000Y-57618000D02*
X67984000Y-58838000D01*
X67984000Y-74078000D02*
X62650000Y-79412000D01*
X65936000Y-57618000D02*
X66764000Y-57618000D01*
X61045000Y-57822000D02*
X61045000Y-55663000D01*
X61022000Y-46923000D02*
X60999000Y-46900000D01*
X60999000Y-46900000D02*
X60999000Y-50098000D01*
X60999000Y-50098000D02*
X60895000Y-50202000D01*
X73155000Y-53967000D02*
X73155000Y-55544000D01*
X74588000Y-52534000D02*
X73155000Y-53967000D01*
X75619480Y-53153520D02*
X75619480Y-54929520D01*
X76239000Y-52534000D02*
X75619480Y-53153520D01*
X75619480Y-54929520D02*
X75005000Y-55544000D01*
X63470000Y-48502000D02*
X60468000Y-45500000D01*
X63920000Y-48502000D02*
X63470000Y-48502000D01*
X60468000Y-45500000D02*
X60468000Y-42972550D01*
X74597550Y-34082550D02*
X73468000Y-34082550D01*
X75223000Y-34708000D02*
X74597550Y-34082550D01*
G04 #@! TA.AperFunction,Conductor*
G36*
X78891621Y-30620002D02*
G01*
X78938114Y-30673658D01*
X78949500Y-30726000D01*
X78949500Y-142826412D01*
X78929498Y-142894533D01*
X78913689Y-142914401D01*
X69067176Y-153007076D01*
X69046253Y-153024340D01*
X69045088Y-153025106D01*
X69045077Y-153025116D01*
X69026513Y-153048321D01*
X69022415Y-153052956D01*
X69015462Y-153060083D01*
X69011796Y-153064612D01*
X69011697Y-153064532D01*
X69003465Y-153074875D01*
X68877210Y-153208727D01*
X68861973Y-153222449D01*
X68710090Y-153338315D01*
X68692835Y-153349380D01*
X68524160Y-153439081D01*
X68505336Y-153447202D01*
X68324357Y-153508351D01*
X68304462Y-153513312D01*
X68115953Y-153544299D01*
X68095515Y-153545968D01*
X67904487Y-153545968D01*
X67884050Y-153544299D01*
X67695539Y-153513312D01*
X67675643Y-153508351D01*
X67494668Y-153447203D01*
X67475841Y-153439081D01*
X67307175Y-153349386D01*
X67289913Y-153338317D01*
X67138023Y-153222447D01*
X67122787Y-153208725D01*
X67100656Y-153185263D01*
X67017898Y-153097525D01*
X67004728Y-153080976D01*
X67004320Y-153080365D01*
X67004319Y-153080361D01*
X67004315Y-153080357D01*
X67004314Y-153080355D01*
X66984535Y-153060083D01*
X66977582Y-153052956D01*
X66973490Y-153048326D01*
X66954918Y-153025111D01*
X66953759Y-153024349D01*
X66932818Y-153007073D01*
X57086311Y-142914402D01*
X57053058Y-142851674D01*
X57050500Y-142826413D01*
X57050500Y-68000000D01*
X59280478Y-68000000D01*
X59299684Y-68256283D01*
X59356872Y-68506839D01*
X59356873Y-68506842D01*
X59450762Y-68746070D01*
X59579261Y-68968637D01*
X59579263Y-68968640D01*
X59579264Y-68968641D01*
X59659382Y-69069106D01*
X59739504Y-69169576D01*
X59878448Y-69298495D01*
X59927896Y-69344376D01*
X60140239Y-69489150D01*
X60273728Y-69553435D01*
X60371783Y-69600656D01*
X60371796Y-69600661D01*
X60617359Y-69676407D01*
X60617361Y-69676407D01*
X60617370Y-69676410D01*
X60871500Y-69714714D01*
X60871504Y-69714714D01*
X61128496Y-69714714D01*
X61128500Y-69714714D01*
X61382630Y-69676410D01*
X61382640Y-69676407D01*
X61628203Y-69600661D01*
X61628205Y-69600659D01*
X61628212Y-69600658D01*
X61859761Y-69489150D01*
X62072104Y-69344376D01*
X62260499Y-69169572D01*
X62420736Y-68968641D01*
X62549236Y-68746073D01*
X62643128Y-68506838D01*
X62700316Y-68256281D01*
X62719522Y-68000000D01*
X62700316Y-67743719D01*
X62643128Y-67493162D01*
X62549236Y-67253927D01*
X62420736Y-67031359D01*
X62260499Y-66830428D01*
X62260498Y-66830427D01*
X62260495Y-66830423D01*
X62072109Y-66655629D01*
X62072103Y-66655623D01*
X62001323Y-66607366D01*
X61859763Y-66510851D01*
X61628216Y-66399343D01*
X61628203Y-66399338D01*
X61382640Y-66323592D01*
X61382632Y-66323590D01*
X61382630Y-66323590D01*
X61128500Y-66285286D01*
X60871500Y-66285286D01*
X60617370Y-66323590D01*
X60617368Y-66323590D01*
X60617359Y-66323592D01*
X60371796Y-66399338D01*
X60371783Y-66399343D01*
X60140236Y-66510851D01*
X60140236Y-66510852D01*
X59927896Y-66655623D01*
X59927890Y-66655629D01*
X59739504Y-66830423D01*
X59579261Y-67031362D01*
X59450762Y-67253929D01*
X59356873Y-67493157D01*
X59356872Y-67493160D01*
X59299684Y-67743716D01*
X59280478Y-68000000D01*
X57050500Y-68000000D01*
X57050500Y-39715238D01*
X57070502Y-39647117D01*
X57124158Y-39600624D01*
X57194432Y-39590520D01*
X57259012Y-39620014D01*
X57265582Y-39626131D01*
X58471154Y-40831702D01*
X58476587Y-40837897D01*
X58498564Y-40866538D01*
X58530479Y-40891027D01*
X58625670Y-40964072D01*
X58625673Y-40964073D01*
X58625674Y-40964074D01*
X58773699Y-41025388D01*
X58783396Y-41026664D01*
X58793092Y-41027941D01*
X58802895Y-41029231D01*
X58849946Y-41035425D01*
X58914872Y-41064146D01*
X58953965Y-41123411D01*
X58959500Y-41160347D01*
X58959500Y-42251199D01*
X58966853Y-42319588D01*
X58965265Y-42319758D01*
X58965265Y-42355341D01*
X58966853Y-42355512D01*
X58959500Y-42423900D01*
X58959500Y-43521199D01*
X58966009Y-43581746D01*
X58966011Y-43581754D01*
X59017110Y-43718752D01*
X59017112Y-43718757D01*
X59104738Y-43835811D01*
X59221792Y-43923437D01*
X59221794Y-43923438D01*
X59221796Y-43923439D01*
X59280875Y-43945474D01*
X59358795Y-43974538D01*
X59358803Y-43974540D01*
X59419350Y-43981049D01*
X59419355Y-43981049D01*
X59419362Y-43981050D01*
X59733500Y-43981050D01*
X59801621Y-44001052D01*
X59848114Y-44054708D01*
X59859500Y-44107050D01*
X59859500Y-45091646D01*
X59839498Y-45159767D01*
X59785842Y-45206260D01*
X59715568Y-45216364D01*
X59691888Y-45210576D01*
X59681050Y-45206784D01*
X59681049Y-45206783D01*
X59681047Y-45206783D01*
X59500000Y-45186384D01*
X59318953Y-45206783D01*
X59318950Y-45206783D01*
X59318949Y-45206784D01*
X59146984Y-45266957D01*
X59146981Y-45266958D01*
X58992720Y-45363887D01*
X58992718Y-45363888D01*
X58863888Y-45492718D01*
X58863887Y-45492720D01*
X58766958Y-45646981D01*
X58766957Y-45646984D01*
X58751573Y-45690951D01*
X58706783Y-45818953D01*
X58686384Y-46000000D01*
X58706783Y-46181047D01*
X58706783Y-46181049D01*
X58706784Y-46181050D01*
X58766957Y-46353015D01*
X58766958Y-46353018D01*
X58863883Y-46507273D01*
X58864001Y-46507421D01*
X58864047Y-46507534D01*
X58867653Y-46513273D01*
X58866648Y-46513904D01*
X58890844Y-46573148D01*
X58891500Y-46585993D01*
X58891500Y-50151759D01*
X58871498Y-50219880D01*
X58854595Y-50240855D01*
X58186848Y-50908601D01*
X58180647Y-50914039D01*
X58152013Y-50936012D01*
X58126460Y-50969311D01*
X58126440Y-50969339D01*
X58054332Y-51063312D01*
X58053685Y-51065031D01*
X57993162Y-51211149D01*
X57993162Y-51211150D01*
X57977500Y-51330115D01*
X57977500Y-51330120D01*
X57977500Y-51330121D01*
X57972250Y-51369999D01*
X57972250Y-51370000D01*
X57976960Y-51405779D01*
X57977500Y-51414011D01*
X57977500Y-53967988D01*
X57976960Y-53976219D01*
X57972250Y-54012000D01*
X57977500Y-54051879D01*
X57977500Y-54051885D01*
X57987548Y-54128207D01*
X57989834Y-54145573D01*
X57993161Y-54170849D01*
X58054475Y-54318874D01*
X58054480Y-54318882D01*
X58057440Y-54322739D01*
X58127523Y-54414072D01*
X58127525Y-54414074D01*
X58151378Y-54445160D01*
X58152014Y-54445988D01*
X58180651Y-54467962D01*
X58186844Y-54473393D01*
X59775605Y-56062154D01*
X59781037Y-56068348D01*
X59803012Y-56096986D01*
X59832836Y-56119871D01*
X59832873Y-56119901D01*
X59895475Y-56167937D01*
X59930124Y-56194524D01*
X60078149Y-56255838D01*
X60154426Y-56265880D01*
X60236999Y-56276751D01*
X60237000Y-56276751D01*
X60237001Y-56276751D01*
X60272789Y-56272040D01*
X60281020Y-56271500D01*
X60310500Y-56271500D01*
X60378621Y-56291502D01*
X60425114Y-56345158D01*
X60436500Y-56397500D01*
X60436500Y-57130584D01*
X60416498Y-57198705D01*
X60399595Y-57219679D01*
X60375042Y-57244231D01*
X60375036Y-57244238D01*
X60290669Y-57386895D01*
X60244428Y-57546057D01*
X60244426Y-57546069D01*
X60241500Y-57583250D01*
X60241501Y-58060748D01*
X60244426Y-58097935D01*
X60290669Y-58257104D01*
X60375036Y-58399761D01*
X60375037Y-58399761D01*
X60375038Y-58399763D01*
X60399595Y-58424320D01*
X60433620Y-58486630D01*
X60436500Y-58513415D01*
X60436500Y-59094003D01*
X60435956Y-59102244D01*
X60435473Y-59105916D01*
X60435278Y-59107395D01*
X60430941Y-59127446D01*
X60386090Y-59275304D01*
X60366620Y-59472996D01*
X60366620Y-59473003D01*
X60386090Y-59670694D01*
X60386091Y-59670700D01*
X60386092Y-59670701D01*
X60443759Y-59860804D01*
X60537405Y-60036004D01*
X60663432Y-60189568D01*
X60816996Y-60315595D01*
X60992196Y-60409241D01*
X61182299Y-60466908D01*
X61182303Y-60466908D01*
X61182305Y-60466909D01*
X61379997Y-60486380D01*
X61380000Y-60486380D01*
X61380003Y-60486380D01*
X61577694Y-60466909D01*
X61577695Y-60466908D01*
X61577701Y-60466908D01*
X61767804Y-60409241D01*
X61943004Y-60315595D01*
X62096568Y-60189568D01*
X62222595Y-60036004D01*
X62316241Y-59860804D01*
X62373908Y-59670701D01*
X62393380Y-59473000D01*
X62393035Y-59469494D01*
X62373909Y-59275305D01*
X62373908Y-59275303D01*
X62373908Y-59275299D01*
X62316241Y-59085196D01*
X62222595Y-58909996D01*
X62176068Y-58853302D01*
X62162773Y-58822000D01*
X62978000Y-58822000D01*
X62978000Y-59016597D01*
X62984505Y-59077093D01*
X63035555Y-59213964D01*
X63035555Y-59213965D01*
X63123095Y-59330904D01*
X63240034Y-59418444D01*
X63376906Y-59469494D01*
X63437402Y-59475999D01*
X63437415Y-59476000D01*
X63682000Y-59476000D01*
X63682000Y-58822000D01*
X62978000Y-58822000D01*
X62162773Y-58822000D01*
X62148314Y-58787958D01*
X62160295Y-58717979D01*
X62208207Y-58665587D01*
X62259652Y-58649024D01*
X62259599Y-58648731D01*
X62261826Y-58648324D01*
X62263584Y-58647758D01*
X62265937Y-58647573D01*
X62425100Y-58601332D01*
X62425102Y-58601330D01*
X62425104Y-58601330D01*
X62551635Y-58526500D01*
X62567763Y-58516962D01*
X62684962Y-58399763D01*
X62743547Y-58300699D01*
X62795439Y-58252248D01*
X62865290Y-58239543D01*
X62930921Y-58266618D01*
X62939399Y-58278791D01*
X62941095Y-58277096D01*
X62977999Y-58314000D01*
X64064000Y-58314000D01*
X64132121Y-58334002D01*
X64178614Y-58387658D01*
X64190000Y-58440000D01*
X64190000Y-59476000D01*
X64434585Y-59476000D01*
X64434597Y-59475999D01*
X64495093Y-59469494D01*
X64631964Y-59418444D01*
X64631965Y-59418444D01*
X64748903Y-59330904D01*
X64750631Y-59328597D01*
X64752941Y-59326867D01*
X64755277Y-59324532D01*
X64755612Y-59324867D01*
X64807467Y-59286050D01*
X64878283Y-59280984D01*
X64940595Y-59315009D01*
X64974620Y-59377321D01*
X64977500Y-59404105D01*
X64977500Y-59966649D01*
X64984009Y-60027196D01*
X64984011Y-60027204D01*
X65035110Y-60164202D01*
X65035112Y-60164207D01*
X65122738Y-60281261D01*
X65239792Y-60368887D01*
X65239794Y-60368888D01*
X65239796Y-60368889D01*
X65298875Y-60390924D01*
X65376795Y-60419988D01*
X65376803Y-60419990D01*
X65437350Y-60426499D01*
X65437355Y-60426499D01*
X65437362Y-60426500D01*
X65437368Y-60426500D01*
X66434632Y-60426500D01*
X66434638Y-60426500D01*
X66434645Y-60426499D01*
X66434649Y-60426499D01*
X66495196Y-60419990D01*
X66495199Y-60419989D01*
X66495201Y-60419989D01*
X66632204Y-60368889D01*
X66649696Y-60355795D01*
X66749261Y-60281261D01*
X66836887Y-60164207D01*
X66836887Y-60164206D01*
X66836889Y-60164204D01*
X66887989Y-60027201D01*
X66894500Y-59966638D01*
X66894500Y-59442097D01*
X66914502Y-59373976D01*
X66968158Y-59327483D01*
X67038432Y-59317379D01*
X67103012Y-59346873D01*
X67131621Y-59382700D01*
X67141405Y-59401004D01*
X67267432Y-59554568D01*
X67329435Y-59605453D01*
X67369402Y-59664126D01*
X67375500Y-59702849D01*
X67375500Y-73773760D01*
X67355498Y-73841881D01*
X67338595Y-73862855D01*
X62250852Y-78950598D01*
X62244651Y-78956036D01*
X62216011Y-78978014D01*
X62190460Y-79011311D01*
X62190440Y-79011339D01*
X62118332Y-79105312D01*
X62117685Y-79107031D01*
X62057162Y-79253149D01*
X62057162Y-79253150D01*
X62041500Y-79372115D01*
X62041500Y-79372120D01*
X62041500Y-79372121D01*
X62036250Y-79411999D01*
X62036250Y-79412000D01*
X62040960Y-79447779D01*
X62041500Y-79456011D01*
X62041500Y-85336988D01*
X62040960Y-85345219D01*
X62036250Y-85380998D01*
X62036250Y-85381002D01*
X62041255Y-85419020D01*
X62041257Y-85419041D01*
X62054608Y-85520455D01*
X62057162Y-85539851D01*
X62118475Y-85687874D01*
X62118480Y-85687882D01*
X62191525Y-85783074D01*
X62216014Y-85814988D01*
X62244651Y-85836962D01*
X62250844Y-85842393D01*
X66662048Y-90253597D01*
X67338595Y-90930144D01*
X67372621Y-90992456D01*
X67375500Y-91019239D01*
X67375500Y-96411955D01*
X67355498Y-96480076D01*
X67301842Y-96526569D01*
X67270794Y-96536143D01*
X66838436Y-96610278D01*
X66838430Y-96610279D01*
X66838427Y-96610280D01*
X66473713Y-96705244D01*
X66385523Y-96728207D01*
X66116005Y-96823435D01*
X65944268Y-96884114D01*
X65517816Y-97076882D01*
X65161872Y-97275723D01*
X65109247Y-97305122D01*
X64721509Y-97567188D01*
X64357394Y-97861189D01*
X64357391Y-97861192D01*
X64223453Y-97989560D01*
X64019526Y-98185008D01*
X63710327Y-98536326D01*
X63710325Y-98536329D01*
X63452629Y-98884757D01*
X63432036Y-98912601D01*
X63432037Y-98912601D01*
X63186667Y-99311107D01*
X62975969Y-99729000D01*
X62801473Y-100163249D01*
X62801473Y-100163250D01*
X62664435Y-100610727D01*
X62565838Y-101068217D01*
X62506394Y-101532428D01*
X62491500Y-101883047D01*
X62491500Y-142116953D01*
X62506394Y-142467572D01*
X62565838Y-142931783D01*
X62664435Y-143389273D01*
X62801473Y-143836750D01*
X62801473Y-143836751D01*
X62975969Y-144271000D01*
X63186667Y-144688893D01*
X63432037Y-145087399D01*
X63432036Y-145087399D01*
X63432039Y-145087403D01*
X63710325Y-145463671D01*
X63710327Y-145463673D01*
X63710327Y-145463674D01*
X64019526Y-145814992D01*
X64223453Y-146010439D01*
X64357391Y-146138808D01*
X64357394Y-146138810D01*
X64357394Y-146138811D01*
X64721509Y-146432812D01*
X65109247Y-146694878D01*
X65109249Y-146694879D01*
X65517816Y-146923118D01*
X65944268Y-147115886D01*
X66116005Y-147176564D01*
X66385523Y-147271793D01*
X66385531Y-147271795D01*
X66838427Y-147389720D01*
X66838430Y-147389720D01*
X66838436Y-147389722D01*
X67189912Y-147449987D01*
X67299691Y-147468811D01*
X67766002Y-147508500D01*
X68233998Y-147508500D01*
X68700309Y-147468811D01*
X68810087Y-147449987D01*
X69161564Y-147389722D01*
X69161569Y-147389720D01*
X69161573Y-147389720D01*
X69614469Y-147271795D01*
X69614468Y-147271795D01*
X69614477Y-147271793D01*
X69883994Y-147176564D01*
X70055732Y-147115886D01*
X70482184Y-146923118D01*
X70890751Y-146694879D01*
X70890749Y-146694879D01*
X70890753Y-146694878D01*
X71278491Y-146432812D01*
X71642606Y-146138811D01*
X71642606Y-146138810D01*
X71642609Y-146138808D01*
X71776546Y-146010439D01*
X71980474Y-145814992D01*
X72289673Y-145463674D01*
X72289673Y-145463673D01*
X72289675Y-145463671D01*
X72567961Y-145087403D01*
X72567960Y-145087403D01*
X72567964Y-145087399D01*
X72567963Y-145087399D01*
X72813333Y-144688893D01*
X73024031Y-144271000D01*
X73198527Y-143836751D01*
X73198527Y-143836750D01*
X73335565Y-143389273D01*
X73434162Y-142931783D01*
X73493606Y-142467572D01*
X73508500Y-142116953D01*
X73508500Y-101883047D01*
X73493606Y-101532428D01*
X73434162Y-101068217D01*
X73335565Y-100610727D01*
X73198527Y-100163250D01*
X73198527Y-100163249D01*
X73024031Y-99729000D01*
X72813333Y-99311107D01*
X72567963Y-98912601D01*
X72567964Y-98912601D01*
X72547370Y-98884757D01*
X72289675Y-98536329D01*
X72289673Y-98536326D01*
X71980474Y-98185008D01*
X71776546Y-97989560D01*
X71642609Y-97861192D01*
X71642606Y-97861189D01*
X71278491Y-97567188D01*
X70890753Y-97305122D01*
X70838127Y-97275723D01*
X70482184Y-97076882D01*
X70055732Y-96884114D01*
X69883994Y-96823435D01*
X69614477Y-96728207D01*
X69526286Y-96705244D01*
X69161573Y-96610280D01*
X69161569Y-96610279D01*
X69161564Y-96610278D01*
X68700266Y-96531181D01*
X68702410Y-96531457D01*
X68637401Y-96502920D01*
X68598141Y-96443766D01*
X68592500Y-96406489D01*
X68592500Y-90759011D01*
X68593040Y-90750779D01*
X68597750Y-90715000D01*
X68597750Y-90714999D01*
X68592500Y-90675121D01*
X68592500Y-90675120D01*
X68592500Y-90675115D01*
X68576838Y-90556150D01*
X68516312Y-90410027D01*
X68515665Y-90408307D01*
X68441163Y-90311216D01*
X68441154Y-90311205D01*
X68417988Y-90281013D01*
X68389346Y-90259035D01*
X68383153Y-90253604D01*
X63295405Y-85165856D01*
X63261379Y-85103544D01*
X63258500Y-85076761D01*
X63258500Y-79716238D01*
X63278502Y-79648117D01*
X63295400Y-79627148D01*
X68383160Y-74539387D01*
X68389341Y-74533966D01*
X68417987Y-74511987D01*
X68436163Y-74488298D01*
X68436170Y-74488291D01*
X68515519Y-74384882D01*
X68515524Y-74384876D01*
X68576838Y-74236851D01*
X68579391Y-74217456D01*
X68592500Y-74117885D01*
X68592500Y-74117879D01*
X68597750Y-74078000D01*
X68593040Y-74042219D01*
X68592500Y-74033988D01*
X68592500Y-68000000D01*
X73280478Y-68000000D01*
X73299684Y-68256283D01*
X73356872Y-68506839D01*
X73356873Y-68506842D01*
X73450762Y-68746070D01*
X73579261Y-68968637D01*
X73579263Y-68968640D01*
X73579264Y-68968641D01*
X73659382Y-69069106D01*
X73739504Y-69169576D01*
X73878448Y-69298495D01*
X73927896Y-69344376D01*
X74140239Y-69489150D01*
X74273728Y-69553435D01*
X74371783Y-69600656D01*
X74371796Y-69600661D01*
X74617359Y-69676407D01*
X74617361Y-69676407D01*
X74617370Y-69676410D01*
X74871500Y-69714714D01*
X74871504Y-69714714D01*
X75128496Y-69714714D01*
X75128500Y-69714714D01*
X75382630Y-69676410D01*
X75382640Y-69676407D01*
X75628203Y-69600661D01*
X75628205Y-69600659D01*
X75628212Y-69600658D01*
X75859761Y-69489150D01*
X76072104Y-69344376D01*
X76260499Y-69169572D01*
X76420736Y-68968641D01*
X76549236Y-68746073D01*
X76643128Y-68506838D01*
X76700316Y-68256281D01*
X76719522Y-68000000D01*
X76700316Y-67743719D01*
X76643128Y-67493162D01*
X76549236Y-67253927D01*
X76420736Y-67031359D01*
X76260499Y-66830428D01*
X76260498Y-66830427D01*
X76260495Y-66830423D01*
X76072109Y-66655629D01*
X76072103Y-66655623D01*
X76001323Y-66607366D01*
X75859763Y-66510851D01*
X75628216Y-66399343D01*
X75628203Y-66399338D01*
X75382640Y-66323592D01*
X75382632Y-66323590D01*
X75382630Y-66323590D01*
X75128500Y-66285286D01*
X74871500Y-66285286D01*
X74617370Y-66323590D01*
X74617368Y-66323590D01*
X74617359Y-66323592D01*
X74371796Y-66399338D01*
X74371783Y-66399343D01*
X74140236Y-66510851D01*
X74140236Y-66510852D01*
X73927896Y-66655623D01*
X73927890Y-66655629D01*
X73739504Y-66830423D01*
X73579261Y-67031362D01*
X73450762Y-67253929D01*
X73356873Y-67493157D01*
X73356872Y-67493160D01*
X73299684Y-67743716D01*
X73280478Y-68000000D01*
X68592500Y-68000000D01*
X68592500Y-59808000D01*
X68937837Y-59808000D01*
X68983131Y-59963902D01*
X69067436Y-60106453D01*
X69067439Y-60106457D01*
X69184542Y-60223560D01*
X69184546Y-60223563D01*
X69327098Y-60307869D01*
X69486143Y-60354076D01*
X69508000Y-60355795D01*
X69508000Y-59808000D01*
X68937837Y-59808000D01*
X68592500Y-59808000D01*
X68592500Y-59702849D01*
X68612502Y-59634728D01*
X68638560Y-59605455D01*
X68700568Y-59554568D01*
X68826595Y-59401004D01*
X68844982Y-59366603D01*
X68894734Y-59315956D01*
X68956104Y-59300000D01*
X69227614Y-59300000D01*
X69291753Y-59317547D01*
X69326895Y-59338330D01*
X69326898Y-59338330D01*
X69326900Y-59338332D01*
X69486063Y-59384573D01*
X69523253Y-59387500D01*
X69890000Y-59387499D01*
X69958120Y-59407501D01*
X70004613Y-59461156D01*
X70016000Y-59513499D01*
X70016000Y-60355794D01*
X70037860Y-60354075D01*
X70196901Y-60307869D01*
X70339453Y-60223563D01*
X70339457Y-60223560D01*
X70456560Y-60106457D01*
X70456565Y-60106450D01*
X70542547Y-59961065D01*
X70594440Y-59912612D01*
X70664290Y-59899907D01*
X70729921Y-59926983D01*
X70759453Y-59961065D01*
X70845434Y-60106450D01*
X70845439Y-60106457D01*
X70962542Y-60223560D01*
X70962546Y-60223563D01*
X71105098Y-60307869D01*
X71264143Y-60354076D01*
X71286000Y-60355795D01*
X71286000Y-59808000D01*
X71794000Y-59808000D01*
X71794000Y-60355794D01*
X71815860Y-60354075D01*
X71974901Y-60307869D01*
X72117453Y-60223563D01*
X72117457Y-60223560D01*
X72234560Y-60106457D01*
X72234563Y-60106453D01*
X72318868Y-59963902D01*
X72364163Y-59808000D01*
X71794000Y-59808000D01*
X71286000Y-59808000D01*
X71286000Y-59513499D01*
X71306002Y-59445378D01*
X71359658Y-59398885D01*
X71411996Y-59387499D01*
X71778746Y-59387499D01*
X71778748Y-59387499D01*
X71797341Y-59386036D01*
X71815937Y-59384573D01*
X71975100Y-59338332D01*
X71975102Y-59338330D01*
X71975104Y-59338330D01*
X72010247Y-59317547D01*
X72074386Y-59300000D01*
X72364163Y-59300000D01*
X72318869Y-59144099D01*
X72312678Y-59133631D01*
X72295218Y-59064815D01*
X72312678Y-59005349D01*
X72319332Y-58994100D01*
X72365573Y-58834937D01*
X72368500Y-58797747D01*
X72368499Y-58452499D01*
X72388501Y-58384380D01*
X72442156Y-58337887D01*
X72494499Y-58326500D01*
X75007344Y-58326500D01*
X75072089Y-58326500D01*
X75075753Y-58326607D01*
X75140398Y-58330372D01*
X75140399Y-58330371D01*
X75140403Y-58330372D01*
X75147140Y-58329184D01*
X75151509Y-58328414D01*
X75173387Y-58326500D01*
X75451629Y-58326500D01*
X75519750Y-58346502D01*
X75540724Y-58363405D01*
X75989421Y-58812102D01*
X76011785Y-58847659D01*
X76013890Y-58846646D01*
X76016958Y-58853018D01*
X76113887Y-59007279D01*
X76113888Y-59007281D01*
X76242718Y-59136111D01*
X76242720Y-59136112D01*
X76396981Y-59233041D01*
X76396982Y-59233041D01*
X76396985Y-59233043D01*
X76568953Y-59293217D01*
X76750000Y-59313616D01*
X76931047Y-59293217D01*
X77103015Y-59233043D01*
X77257281Y-59136111D01*
X77386111Y-59007281D01*
X77483043Y-58853015D01*
X77543217Y-58681047D01*
X77563616Y-58500000D01*
X77543217Y-58318953D01*
X77483043Y-58146985D01*
X77483041Y-58146982D01*
X77483041Y-58146981D01*
X77386112Y-57992720D01*
X77386111Y-57992718D01*
X77257281Y-57863888D01*
X77257279Y-57863887D01*
X77103018Y-57766958D01*
X77096646Y-57763890D01*
X77097659Y-57761785D01*
X77062102Y-57739421D01*
X76399908Y-57077227D01*
X76387936Y-57063375D01*
X76386876Y-57061951D01*
X76373469Y-57043942D01*
X76372841Y-57043415D01*
X76333024Y-57010003D01*
X76328970Y-57006289D01*
X76323107Y-57000425D01*
X76314350Y-56993501D01*
X76297103Y-56979863D01*
X76237640Y-56929968D01*
X76237638Y-56929967D01*
X76237636Y-56929965D01*
X76231506Y-56925933D01*
X76231541Y-56925878D01*
X76225187Y-56921829D01*
X76225153Y-56921886D01*
X76218906Y-56918033D01*
X76148540Y-56885220D01*
X76115888Y-56868822D01*
X76079188Y-56850391D01*
X76079186Y-56850390D01*
X76079183Y-56850389D01*
X76072289Y-56847880D01*
X76072311Y-56847817D01*
X76065189Y-56845341D01*
X76065169Y-56845404D01*
X76058209Y-56843097D01*
X76001163Y-56831318D01*
X75982149Y-56827392D01*
X75974082Y-56825480D01*
X75951439Y-56820113D01*
X75889768Y-56784938D01*
X75856904Y-56722006D01*
X75854500Y-56697510D01*
X75854500Y-56590817D01*
X75839079Y-56458887D01*
X75839078Y-56458885D01*
X75833053Y-56442332D01*
X75782059Y-56302225D01*
X75778436Y-56292270D01*
X75778435Y-56292268D01*
X75761079Y-56265880D01*
X75749941Y-56244858D01*
X75713106Y-56155928D01*
X75686077Y-56120705D01*
X75660475Y-56054485D01*
X75674739Y-55984936D01*
X75686069Y-55967304D01*
X75713105Y-55932072D01*
X75773160Y-55787087D01*
X75788500Y-55670566D01*
X75788500Y-55670552D01*
X75788770Y-55666443D01*
X75790462Y-55666554D01*
X75808502Y-55605117D01*
X75825400Y-55584147D01*
X76018635Y-55390911D01*
X76024817Y-55385489D01*
X76053467Y-55363507D01*
X76127495Y-55267033D01*
X76151004Y-55236396D01*
X76211539Y-55090251D01*
X76256085Y-55034973D01*
X76323448Y-55012552D01*
X76392240Y-55030110D01*
X76394982Y-55031785D01*
X76396647Y-55032830D01*
X76396985Y-55033043D01*
X76568953Y-55093217D01*
X76750000Y-55113616D01*
X76931047Y-55093217D01*
X77103015Y-55033043D01*
X77257281Y-54936111D01*
X77386111Y-54807281D01*
X77483043Y-54653015D01*
X77543217Y-54481047D01*
X77563616Y-54300000D01*
X77543217Y-54118953D01*
X77483043Y-53946985D01*
X77483041Y-53946982D01*
X77483041Y-53946981D01*
X77386111Y-53792718D01*
X77257281Y-53663888D01*
X77257279Y-53663887D01*
X77126463Y-53581689D01*
X77079425Y-53528510D01*
X77067499Y-53475002D01*
X77067499Y-53290251D01*
X77064573Y-53253064D01*
X77057001Y-53227000D01*
X77018332Y-53093900D01*
X77011969Y-53083142D01*
X76994508Y-53014327D01*
X77011970Y-52954857D01*
X77012517Y-52953932D01*
X77018332Y-52944100D01*
X77064573Y-52784937D01*
X77066435Y-52761270D01*
X77067500Y-52747751D01*
X77067500Y-52552888D01*
X77067499Y-52351421D01*
X77068039Y-52343190D01*
X77071750Y-52315000D01*
X77071750Y-52314998D01*
X77067040Y-52279219D01*
X77066500Y-52270988D01*
X77066500Y-49502010D01*
X77067040Y-49493778D01*
X77068383Y-49483566D01*
X77071750Y-49458000D01*
X77066500Y-49418122D01*
X77066500Y-49418115D01*
X77050838Y-49299150D01*
X76994226Y-49162476D01*
X76989524Y-49151124D01*
X76989523Y-49151123D01*
X76989523Y-49151122D01*
X76915163Y-49054216D01*
X76915154Y-49054205D01*
X76891988Y-49024013D01*
X76863346Y-49002035D01*
X76857153Y-48996604D01*
X76395405Y-48534856D01*
X76361379Y-48472544D01*
X76358500Y-48445761D01*
X76358500Y-47544010D01*
X76359040Y-47535778D01*
X76360383Y-47525566D01*
X76363750Y-47500000D01*
X76358500Y-47460122D01*
X76358500Y-47460115D01*
X76342838Y-47341150D01*
X76296021Y-47228124D01*
X76281524Y-47193124D01*
X76281523Y-47193123D01*
X76281523Y-47193122D01*
X76212380Y-47103015D01*
X76208477Y-47097928D01*
X76208474Y-47097925D01*
X76203385Y-47091293D01*
X76183988Y-47066013D01*
X76155346Y-47044035D01*
X76149153Y-47038604D01*
X75838832Y-46728283D01*
X75804806Y-46665971D01*
X75802720Y-46653306D01*
X75793217Y-46568953D01*
X75733043Y-46396985D01*
X75733041Y-46396982D01*
X75733041Y-46396981D01*
X75636112Y-46242720D01*
X75636111Y-46242718D01*
X75507281Y-46113888D01*
X75507279Y-46113887D01*
X75353018Y-46016958D01*
X75353015Y-46016957D01*
X75181050Y-45956784D01*
X75181049Y-45956783D01*
X75181047Y-45956783D01*
X75000000Y-45936384D01*
X74818953Y-45956783D01*
X74818950Y-45956783D01*
X74818949Y-45956784D01*
X74646984Y-46016957D01*
X74646981Y-46016958D01*
X74492720Y-46113887D01*
X74492718Y-46113888D01*
X74363888Y-46242718D01*
X74363887Y-46242720D01*
X74309187Y-46329775D01*
X74256009Y-46376813D01*
X74185841Y-46387633D01*
X74120963Y-46358800D01*
X74081972Y-46299469D01*
X74076500Y-46262739D01*
X74076500Y-45104500D01*
X74096502Y-45036379D01*
X74150158Y-44989886D01*
X74202500Y-44978500D01*
X76517150Y-44978500D01*
X76585271Y-44998502D01*
X76614546Y-45024563D01*
X76665432Y-45086568D01*
X76665434Y-45086570D01*
X76687282Y-45104500D01*
X76818996Y-45212595D01*
X76994196Y-45306241D01*
X77184299Y-45363908D01*
X77184303Y-45363908D01*
X77184305Y-45363909D01*
X77381997Y-45383380D01*
X77382000Y-45383380D01*
X77382003Y-45383380D01*
X77579694Y-45363909D01*
X77579695Y-45363908D01*
X77579701Y-45363908D01*
X77769804Y-45306241D01*
X77945004Y-45212595D01*
X78098568Y-45086568D01*
X78224595Y-44933004D01*
X78318241Y-44757804D01*
X78375908Y-44567701D01*
X78380221Y-44523917D01*
X78395380Y-44370003D01*
X78395380Y-44369996D01*
X78375909Y-44172305D01*
X78375908Y-44172303D01*
X78375908Y-44172299D01*
X78318241Y-43982196D01*
X78224595Y-43806996D01*
X78098568Y-43653432D01*
X77945004Y-43527405D01*
X77769804Y-43433759D01*
X77579701Y-43376092D01*
X77579700Y-43376091D01*
X77579694Y-43376090D01*
X77382003Y-43356620D01*
X77381997Y-43356620D01*
X77184305Y-43376090D01*
X76994195Y-43433759D01*
X76818995Y-43527405D01*
X76665434Y-43653429D01*
X76644482Y-43678959D01*
X76614547Y-43715435D01*
X76555872Y-43755402D01*
X76517150Y-43761500D01*
X75084421Y-43761500D01*
X75016300Y-43741498D01*
X74969807Y-43687842D01*
X74959703Y-43617568D01*
X74966365Y-43591470D01*
X74969987Y-43581756D01*
X74969990Y-43581746D01*
X74976499Y-43521199D01*
X74976500Y-43521182D01*
X74976500Y-42699956D01*
X76851252Y-42699956D01*
X76974391Y-42765776D01*
X77164393Y-42823414D01*
X77164404Y-42823416D01*
X77361997Y-42842877D01*
X77362003Y-42842877D01*
X77559595Y-42823416D01*
X77559606Y-42823414D01*
X77749608Y-42765776D01*
X77749612Y-42765775D01*
X77872747Y-42699956D01*
X77362001Y-42189210D01*
X77362000Y-42189210D01*
X76851252Y-42699956D01*
X74976500Y-42699956D01*
X74976500Y-42423917D01*
X74976499Y-42423900D01*
X74969147Y-42355511D01*
X74970742Y-42355339D01*
X74970742Y-42319760D01*
X74969147Y-42319589D01*
X74976499Y-42251199D01*
X74976500Y-42251182D01*
X74976500Y-41830003D01*
X76349123Y-41830003D01*
X76368583Y-42027595D01*
X76368585Y-42027606D01*
X76426223Y-42217608D01*
X76492042Y-42340746D01*
X77002788Y-41830001D01*
X77721210Y-41830001D01*
X78231956Y-42340747D01*
X78297775Y-42217612D01*
X78297776Y-42217608D01*
X78355414Y-42027606D01*
X78355416Y-42027595D01*
X78374877Y-41830003D01*
X78374877Y-41829996D01*
X78355416Y-41632404D01*
X78355414Y-41632393D01*
X78297776Y-41442391D01*
X78231956Y-41319252D01*
X77721210Y-41829999D01*
X77721210Y-41830001D01*
X77002788Y-41830001D01*
X77002790Y-41829999D01*
X76492042Y-41319251D01*
X76492041Y-41319252D01*
X76426225Y-41442385D01*
X76426219Y-41442400D01*
X76368585Y-41632393D01*
X76368583Y-41632404D01*
X76349123Y-41829996D01*
X76349123Y-41830003D01*
X74976500Y-41830003D01*
X74976500Y-41153917D01*
X74976499Y-41153900D01*
X74969147Y-41085511D01*
X74970742Y-41085339D01*
X74970742Y-41049760D01*
X74969147Y-41049589D01*
X74976499Y-40981199D01*
X74976500Y-40981182D01*
X74976500Y-40960042D01*
X76851251Y-40960042D01*
X77361999Y-41470790D01*
X77362000Y-41470790D01*
X77872746Y-40960042D01*
X77872747Y-40960042D01*
X77749608Y-40894223D01*
X77559606Y-40836585D01*
X77559595Y-40836583D01*
X77362003Y-40817123D01*
X77361997Y-40817123D01*
X77164404Y-40836583D01*
X77164393Y-40836585D01*
X76974400Y-40894219D01*
X76974385Y-40894225D01*
X76851252Y-40960041D01*
X76851251Y-40960042D01*
X74976500Y-40960042D01*
X74976500Y-39883917D01*
X74976499Y-39883900D01*
X74969147Y-39815511D01*
X74970742Y-39815339D01*
X74970742Y-39779760D01*
X74969147Y-39779589D01*
X74976499Y-39711199D01*
X74976500Y-39711182D01*
X74976500Y-39423793D01*
X74996502Y-39355672D01*
X75050158Y-39309179D01*
X75116602Y-39298585D01*
X75250000Y-39313616D01*
X75431047Y-39293217D01*
X75603015Y-39233043D01*
X75757281Y-39136111D01*
X75886111Y-39007281D01*
X75938120Y-38924508D01*
X75991298Y-38877472D01*
X76061465Y-38866652D01*
X76126344Y-38895485D01*
X76133902Y-38902451D01*
X76340183Y-39108732D01*
X76374209Y-39171044D01*
X76376481Y-39210176D01*
X76368620Y-39289995D01*
X76368620Y-39290003D01*
X76388090Y-39487694D01*
X76388091Y-39487700D01*
X76388092Y-39487701D01*
X76445759Y-39677804D01*
X76539405Y-39853004D01*
X76665432Y-40006568D01*
X76818996Y-40132595D01*
X76994196Y-40226241D01*
X77184299Y-40283908D01*
X77184303Y-40283908D01*
X77184305Y-40283909D01*
X77381997Y-40303380D01*
X77382000Y-40303380D01*
X77382003Y-40303380D01*
X77579694Y-40283909D01*
X77579695Y-40283908D01*
X77579701Y-40283908D01*
X77769804Y-40226241D01*
X77945004Y-40132595D01*
X78098568Y-40006568D01*
X78224595Y-39853004D01*
X78318241Y-39677804D01*
X78375908Y-39487701D01*
X78380757Y-39438475D01*
X78395380Y-39290003D01*
X78395380Y-39289996D01*
X78375909Y-39092305D01*
X78375908Y-39092303D01*
X78375908Y-39092299D01*
X78318241Y-38902196D01*
X78224595Y-38726996D01*
X78098568Y-38573432D01*
X77945004Y-38447405D01*
X77769804Y-38353759D01*
X77579701Y-38296092D01*
X77579700Y-38296091D01*
X77579694Y-38296090D01*
X77382003Y-38276620D01*
X77381996Y-38276620D01*
X77302176Y-38284481D01*
X77232423Y-38271252D01*
X77200732Y-38248183D01*
X76831316Y-37878767D01*
X76797290Y-37816455D01*
X76802355Y-37745640D01*
X76844902Y-37688804D01*
X76911422Y-37663993D01*
X76979807Y-37678550D01*
X76994196Y-37686241D01*
X77184299Y-37743908D01*
X77184303Y-37743908D01*
X77184305Y-37743909D01*
X77381997Y-37763380D01*
X77382000Y-37763380D01*
X77382003Y-37763380D01*
X77579694Y-37743909D01*
X77579695Y-37743908D01*
X77579701Y-37743908D01*
X77769804Y-37686241D01*
X77945004Y-37592595D01*
X78098568Y-37466568D01*
X78224595Y-37313004D01*
X78318241Y-37137804D01*
X78375908Y-36947701D01*
X78381755Y-36888342D01*
X78395380Y-36750003D01*
X78395380Y-36749996D01*
X78375909Y-36552305D01*
X78375908Y-36552303D01*
X78375908Y-36552299D01*
X78318241Y-36362196D01*
X78224595Y-36186996D01*
X78098568Y-36033432D01*
X77945004Y-35907405D01*
X77769804Y-35813759D01*
X77579701Y-35756092D01*
X77579700Y-35756091D01*
X77579694Y-35756090D01*
X77382003Y-35736620D01*
X77381996Y-35736620D01*
X77302176Y-35744481D01*
X77232423Y-35731252D01*
X77200732Y-35708183D01*
X76831316Y-35338767D01*
X76797290Y-35276455D01*
X76802355Y-35205640D01*
X76844902Y-35148804D01*
X76911422Y-35123993D01*
X76979807Y-35138550D01*
X76994196Y-35146241D01*
X77184299Y-35203908D01*
X77184303Y-35203908D01*
X77184305Y-35203909D01*
X77381997Y-35223380D01*
X77382000Y-35223380D01*
X77382003Y-35223380D01*
X77579694Y-35203909D01*
X77579695Y-35203908D01*
X77579701Y-35203908D01*
X77769804Y-35146241D01*
X77945004Y-35052595D01*
X78098568Y-34926568D01*
X78224595Y-34773004D01*
X78318241Y-34597804D01*
X78375908Y-34407701D01*
X78381101Y-34354984D01*
X78395380Y-34210003D01*
X78395380Y-34209996D01*
X78375909Y-34012305D01*
X78375908Y-34012303D01*
X78375908Y-34012299D01*
X78318241Y-33822196D01*
X78224595Y-33646996D01*
X78098568Y-33493432D01*
X77945004Y-33367405D01*
X77908793Y-33348050D01*
X77769805Y-33273759D01*
X77722278Y-33259342D01*
X77579701Y-33216092D01*
X77513770Y-33209598D01*
X77492644Y-33207517D01*
X77426812Y-33180934D01*
X77415900Y-33171219D01*
X77127472Y-32882791D01*
X77093446Y-32820479D01*
X77098511Y-32749664D01*
X77141058Y-32692828D01*
X77207578Y-32668017D01*
X77228917Y-32668303D01*
X77381997Y-32683380D01*
X77382000Y-32683380D01*
X77382003Y-32683380D01*
X77579694Y-32663909D01*
X77579695Y-32663908D01*
X77579701Y-32663908D01*
X77769804Y-32606241D01*
X77945004Y-32512595D01*
X78098568Y-32386568D01*
X78224595Y-32233004D01*
X78318241Y-32057804D01*
X78375908Y-31867701D01*
X78394503Y-31678912D01*
X78395380Y-31670003D01*
X78395380Y-31669996D01*
X78375909Y-31472305D01*
X78375908Y-31472303D01*
X78375908Y-31472299D01*
X78318241Y-31282196D01*
X78224595Y-31106996D01*
X78098568Y-30953432D01*
X77945004Y-30827405D01*
X77940219Y-30823478D01*
X77942050Y-30821246D01*
X77904460Y-30776183D01*
X77895676Y-30705732D01*
X77926375Y-30641716D01*
X77986810Y-30604459D01*
X78020035Y-30600000D01*
X78823500Y-30600000D01*
X78891621Y-30620002D01*
G37*
G04 #@! TD.AperFunction*
G04 #@! TA.AperFunction,Conductor*
G36*
X72358797Y-43974538D02*
G01*
X72358799Y-43974539D01*
X72408241Y-43979854D01*
X72419352Y-43981049D01*
X72419353Y-43981049D01*
X72419362Y-43981050D01*
X72733500Y-43981050D01*
X72801621Y-44001052D01*
X72848114Y-44054708D01*
X72859500Y-44107050D01*
X72859500Y-44205988D01*
X72858960Y-44214219D01*
X72854250Y-44249998D01*
X72854250Y-44250000D01*
X72858960Y-44285779D01*
X72859500Y-44294011D01*
X72859500Y-47467500D01*
X72839498Y-47535621D01*
X72785842Y-47582114D01*
X72733500Y-47593500D01*
X71403350Y-47593500D01*
X71342803Y-47600009D01*
X71342795Y-47600011D01*
X71205797Y-47651110D01*
X71205792Y-47651112D01*
X71088738Y-47738738D01*
X71001112Y-47855792D01*
X71001110Y-47855797D01*
X70950011Y-47992795D01*
X70950009Y-47992803D01*
X70943500Y-48053350D01*
X70943500Y-48950649D01*
X70950009Y-49011196D01*
X70950011Y-49011204D01*
X71001110Y-49148202D01*
X71001112Y-49148207D01*
X71088738Y-49265261D01*
X71205792Y-49352887D01*
X71205794Y-49352888D01*
X71205796Y-49352889D01*
X71261056Y-49373500D01*
X71342795Y-49403988D01*
X71342803Y-49403990D01*
X71403350Y-49410499D01*
X71403355Y-49410499D01*
X71403362Y-49410500D01*
X71403368Y-49410500D01*
X73200632Y-49410500D01*
X73200638Y-49410500D01*
X73200645Y-49410499D01*
X73200649Y-49410499D01*
X73261196Y-49403990D01*
X73261199Y-49403989D01*
X73261201Y-49403989D01*
X73398204Y-49352889D01*
X73469990Y-49299151D01*
X73515261Y-49265261D01*
X73602887Y-49148207D01*
X73602887Y-49148206D01*
X73602889Y-49148204D01*
X73653989Y-49011201D01*
X73654783Y-49003821D01*
X73660499Y-48950649D01*
X73660500Y-48950632D01*
X73660500Y-48502239D01*
X73680502Y-48434118D01*
X73697405Y-48413144D01*
X73764405Y-48346144D01*
X73826717Y-48312118D01*
X73897532Y-48317183D01*
X73954368Y-48359730D01*
X73979179Y-48426250D01*
X73979500Y-48435239D01*
X73979500Y-51842584D01*
X73959498Y-51910705D01*
X73942595Y-51931679D01*
X73893042Y-51981231D01*
X73893039Y-51981235D01*
X73824177Y-52097673D01*
X73772284Y-52146125D01*
X73702433Y-52158830D01*
X73695573Y-52156000D01*
X72556000Y-52156000D01*
X72556000Y-52810000D01*
X73147260Y-52810000D01*
X73215381Y-52830002D01*
X73261874Y-52883658D01*
X73271978Y-52953932D01*
X73242484Y-53018512D01*
X73236368Y-53025081D01*
X72993903Y-53267547D01*
X72755852Y-53505598D01*
X72749651Y-53511036D01*
X72721011Y-53533014D01*
X72695460Y-53566311D01*
X72695440Y-53566339D01*
X72623474Y-53660126D01*
X72568554Y-53792718D01*
X72562162Y-53808146D01*
X72562161Y-53808149D01*
X72552937Y-53878214D01*
X72546500Y-53927115D01*
X72546500Y-53927120D01*
X72546500Y-53927121D01*
X72541250Y-53966999D01*
X72541250Y-53967000D01*
X72545960Y-54002779D01*
X72546500Y-54011011D01*
X72546500Y-54983350D01*
X72526498Y-55051471D01*
X72520462Y-55060054D01*
X72446899Y-55155921D01*
X72446894Y-55155929D01*
X72386839Y-55300914D01*
X72371500Y-55417431D01*
X72371500Y-55670568D01*
X72386839Y-55787085D01*
X72446894Y-55932070D01*
X72446899Y-55932078D01*
X72474237Y-55967705D01*
X72499838Y-56033925D01*
X72485574Y-56103474D01*
X72474239Y-56121111D01*
X72447329Y-56156181D01*
X72387327Y-56301042D01*
X72373374Y-56407027D01*
X72344652Y-56471954D01*
X72285386Y-56511046D01*
X72214395Y-56511891D01*
X72159357Y-56479676D01*
X71374017Y-55694336D01*
X71342115Y-55640394D01*
X71303332Y-55506900D01*
X71296676Y-55495646D01*
X71279218Y-55426831D01*
X71296679Y-55367367D01*
X71302870Y-55356899D01*
X71348163Y-55201000D01*
X71058386Y-55201000D01*
X70994247Y-55183453D01*
X70959104Y-55162669D01*
X70799942Y-55116428D01*
X70799938Y-55116427D01*
X70799937Y-55116427D01*
X70799935Y-55116426D01*
X70799930Y-55116426D01*
X70762749Y-55113500D01*
X70396000Y-55113500D01*
X70327879Y-55093498D01*
X70281386Y-55039842D01*
X70270000Y-54987500D01*
X70270000Y-54145204D01*
X70248144Y-54146923D01*
X70248143Y-54146923D01*
X70089098Y-54193130D01*
X69946546Y-54277436D01*
X69946542Y-54277439D01*
X69829439Y-54394542D01*
X69829436Y-54394546D01*
X69806225Y-54433793D01*
X69754331Y-54482244D01*
X69684480Y-54494948D01*
X69618850Y-54467871D01*
X69596905Y-54445160D01*
X69505259Y-54322736D01*
X69498889Y-54316366D01*
X69501391Y-54313863D01*
X69469027Y-54270598D01*
X69463988Y-54199780D01*
X69493803Y-54145202D01*
X70778000Y-54145202D01*
X70778000Y-54693000D01*
X71348163Y-54693000D01*
X71302868Y-54537097D01*
X71218563Y-54394546D01*
X71218560Y-54394542D01*
X71101457Y-54277439D01*
X71101453Y-54277436D01*
X70958901Y-54193130D01*
X70799860Y-54146924D01*
X70799855Y-54146923D01*
X70778000Y-54145202D01*
X69493803Y-54145202D01*
X69498004Y-54137512D01*
X69579063Y-54056453D01*
X69663368Y-53913902D01*
X69708663Y-53758000D01*
X68756500Y-53758000D01*
X68688379Y-53737998D01*
X68641886Y-53684342D01*
X68630500Y-53632000D01*
X68630500Y-53463499D01*
X68650502Y-53395378D01*
X68704158Y-53348885D01*
X68756496Y-53337499D01*
X69123246Y-53337499D01*
X69123248Y-53337499D01*
X69141841Y-53336036D01*
X69160437Y-53334573D01*
X69319600Y-53288332D01*
X69319602Y-53288330D01*
X69319604Y-53288330D01*
X69354747Y-53267547D01*
X69418886Y-53250000D01*
X69708663Y-53250000D01*
X69663369Y-53094099D01*
X69657178Y-53083631D01*
X69639718Y-53014815D01*
X69657178Y-52955349D01*
X69663832Y-52944100D01*
X69710073Y-52784937D01*
X69711935Y-52761270D01*
X69713000Y-52747751D01*
X69712999Y-52508188D01*
X69722589Y-52459970D01*
X69731338Y-52438850D01*
X69747000Y-52319885D01*
X69747000Y-52319877D01*
X69752250Y-52280000D01*
X69751064Y-52270988D01*
X69747540Y-52244219D01*
X69747000Y-52235988D01*
X69747000Y-52156000D01*
X70944000Y-52156000D01*
X70944000Y-52350597D01*
X70950505Y-52411093D01*
X71001555Y-52547964D01*
X71001555Y-52547965D01*
X71089095Y-52664904D01*
X71206034Y-52752444D01*
X71342906Y-52803494D01*
X71403402Y-52809999D01*
X71403415Y-52810000D01*
X72048000Y-52810000D01*
X72048000Y-52156000D01*
X70944000Y-52156000D01*
X69747000Y-52156000D01*
X69747000Y-51648000D01*
X70944000Y-51648000D01*
X72048000Y-51648000D01*
X72048000Y-50994000D01*
X72556000Y-50994000D01*
X72556000Y-51648000D01*
X73660000Y-51648000D01*
X73660000Y-51453414D01*
X73659999Y-51453402D01*
X73653494Y-51392906D01*
X73602444Y-51256035D01*
X73602444Y-51256034D01*
X73514904Y-51139095D01*
X73397965Y-51051555D01*
X73261093Y-51000505D01*
X73200597Y-50994000D01*
X72556000Y-50994000D01*
X72048000Y-50994000D01*
X71403402Y-50994000D01*
X71342906Y-51000505D01*
X71206035Y-51051555D01*
X71206034Y-51051555D01*
X71089095Y-51139095D01*
X71001555Y-51256034D01*
X71001555Y-51256035D01*
X70950505Y-51392906D01*
X70944000Y-51453402D01*
X70944000Y-51648000D01*
X69747000Y-51648000D01*
X69747000Y-51183733D01*
X69767002Y-51115612D01*
X69820658Y-51069119D01*
X69828941Y-51065687D01*
X69884704Y-51044889D01*
X70001761Y-50957261D01*
X70046900Y-50896963D01*
X70089387Y-50840207D01*
X70089387Y-50840206D01*
X70089389Y-50840204D01*
X70140489Y-50703201D01*
X70147000Y-50642638D01*
X70147000Y-48745362D01*
X70146999Y-48745350D01*
X70140490Y-48684803D01*
X70140488Y-48684795D01*
X70089389Y-48547797D01*
X70089387Y-48547792D01*
X70001761Y-48430738D01*
X69884707Y-48343112D01*
X69884702Y-48343110D01*
X69747704Y-48292011D01*
X69747696Y-48292009D01*
X69730127Y-48290121D01*
X69664535Y-48262952D01*
X69643637Y-48241551D01*
X69596978Y-48180744D01*
X69596974Y-48180740D01*
X69572487Y-48148828D01*
X69572486Y-48148827D01*
X69543846Y-48126850D01*
X69537653Y-48121419D01*
X68649487Y-47233253D01*
X68615461Y-47170941D01*
X68620526Y-47100126D01*
X68624000Y-47094720D01*
X68624000Y-45444550D01*
X68644002Y-45376429D01*
X68697658Y-45329936D01*
X68750000Y-45318550D01*
X69006000Y-45318550D01*
X69074121Y-45338552D01*
X69120614Y-45392208D01*
X69132000Y-45444550D01*
X69132000Y-47080550D01*
X69426585Y-47080550D01*
X69426597Y-47080549D01*
X69494931Y-47073202D01*
X69495127Y-47075031D01*
X69530817Y-47075031D01*
X69530961Y-47073697D01*
X69599350Y-47081049D01*
X69599355Y-47081049D01*
X69599362Y-47081050D01*
X69599368Y-47081050D01*
X70696632Y-47081050D01*
X70696638Y-47081050D01*
X70696645Y-47081049D01*
X70696649Y-47081049D01*
X70765039Y-47073697D01*
X70765210Y-47075292D01*
X70800790Y-47075292D01*
X70800961Y-47073697D01*
X70869350Y-47081049D01*
X70869355Y-47081049D01*
X70869362Y-47081050D01*
X70869368Y-47081050D01*
X71966632Y-47081050D01*
X71966638Y-47081050D01*
X71966645Y-47081049D01*
X71966649Y-47081049D01*
X72027196Y-47074540D01*
X72027199Y-47074539D01*
X72027201Y-47074539D01*
X72029459Y-47073697D01*
X72053001Y-47064916D01*
X72164204Y-47023439D01*
X72281261Y-46935811D01*
X72368889Y-46818754D01*
X72419989Y-46681751D01*
X72421686Y-46665971D01*
X72426499Y-46621199D01*
X72426500Y-46621182D01*
X72426500Y-44523917D01*
X72426499Y-44523900D01*
X72419990Y-44463353D01*
X72419988Y-44463345D01*
X72368889Y-44326347D01*
X72368887Y-44326342D01*
X72281260Y-44209287D01*
X72269758Y-44200677D01*
X72227212Y-44143841D01*
X72222148Y-44073025D01*
X72256174Y-44010713D01*
X72318486Y-43976689D01*
X72358737Y-43974532D01*
X72358797Y-43974538D01*
G37*
G04 #@! TD.AperFunction*
G04 #@! TA.AperFunction,Conductor*
G36*
X61816012Y-47709015D02*
G01*
X61822595Y-47715144D01*
X62524595Y-48417144D01*
X62558621Y-48479456D01*
X62561500Y-48506239D01*
X62561500Y-48950649D01*
X62568009Y-49011196D01*
X62568011Y-49011204D01*
X62619110Y-49148202D01*
X62619112Y-49148207D01*
X62706738Y-49265261D01*
X62823792Y-49352887D01*
X62823794Y-49352888D01*
X62823796Y-49352889D01*
X62879056Y-49373500D01*
X62960795Y-49403988D01*
X62960803Y-49403990D01*
X63021350Y-49410499D01*
X63021355Y-49410499D01*
X63021362Y-49410500D01*
X63021368Y-49410500D01*
X64818632Y-49410500D01*
X64818638Y-49410500D01*
X64818645Y-49410499D01*
X64818649Y-49410499D01*
X64879196Y-49403990D01*
X64879199Y-49403989D01*
X64879201Y-49403989D01*
X65016204Y-49352889D01*
X65087990Y-49299151D01*
X65133261Y-49265261D01*
X65220887Y-49148207D01*
X65220887Y-49148206D01*
X65220889Y-49148204D01*
X65271989Y-49011201D01*
X65272783Y-49003821D01*
X65278499Y-48950649D01*
X65278500Y-48950632D01*
X65278500Y-48299239D01*
X65298502Y-48231118D01*
X65352158Y-48184625D01*
X65422432Y-48174521D01*
X65487012Y-48204015D01*
X65493595Y-48210144D01*
X65671901Y-48388450D01*
X65705927Y-48450762D01*
X65700862Y-48521577D01*
X65691111Y-48539434D01*
X65691932Y-48539882D01*
X65687610Y-48547797D01*
X65636511Y-48684795D01*
X65636509Y-48684803D01*
X65630000Y-48745350D01*
X65630000Y-50642649D01*
X65636509Y-50703196D01*
X65636511Y-50703204D01*
X65687610Y-50840202D01*
X65687612Y-50840207D01*
X65775238Y-50957261D01*
X65892291Y-51044886D01*
X65892292Y-51044886D01*
X65892296Y-51044889D01*
X65948035Y-51065679D01*
X66004868Y-51108224D01*
X66029679Y-51174744D01*
X66030000Y-51183733D01*
X66030000Y-51998988D01*
X66029460Y-52007219D01*
X66025303Y-52038800D01*
X66024750Y-52043000D01*
X66030000Y-52082879D01*
X66030000Y-52082885D01*
X66039970Y-52158613D01*
X66045662Y-52201851D01*
X66079301Y-52283063D01*
X66106975Y-52349874D01*
X66106980Y-52349882D01*
X66107529Y-52350597D01*
X66180023Y-52445072D01*
X66180025Y-52445074D01*
X66185346Y-52452009D01*
X66204514Y-52476988D01*
X66228704Y-52495550D01*
X66270571Y-52552888D01*
X66278000Y-52595511D01*
X66278001Y-52724748D01*
X66280926Y-52761935D01*
X66327168Y-52921100D01*
X66333823Y-52932353D01*
X66351281Y-53001170D01*
X66333825Y-53060623D01*
X66327631Y-53071097D01*
X66282337Y-53227000D01*
X66572114Y-53227000D01*
X66636253Y-53244547D01*
X66671395Y-53265330D01*
X66671398Y-53265330D01*
X66671400Y-53265332D01*
X66830563Y-53311573D01*
X66867753Y-53314500D01*
X67234500Y-53314499D01*
X67302620Y-53334501D01*
X67349113Y-53388156D01*
X67360500Y-53440499D01*
X67360500Y-54282795D01*
X67365676Y-54287580D01*
X67402120Y-54348509D01*
X67399837Y-54419469D01*
X67391589Y-54438512D01*
X67340011Y-54576795D01*
X67340009Y-54576803D01*
X67333500Y-54637350D01*
X67333500Y-54736761D01*
X67313498Y-54804882D01*
X67259842Y-54851375D01*
X67189568Y-54861479D01*
X67124988Y-54831985D01*
X67118405Y-54825856D01*
X66793171Y-54500622D01*
X66759145Y-54438310D01*
X66764210Y-54367495D01*
X66806757Y-54310659D01*
X66832912Y-54300903D01*
X66852500Y-54282796D01*
X66852500Y-53735000D01*
X66282336Y-53735000D01*
X66260255Y-53764409D01*
X66203358Y-53806875D01*
X66132535Y-53811838D01*
X66070400Y-53777851D01*
X66050549Y-53758000D01*
X65991910Y-53699361D01*
X65986483Y-53693173D01*
X65964507Y-53664533D01*
X65932594Y-53640045D01*
X65932592Y-53640043D01*
X65891169Y-53608258D01*
X65837402Y-53567000D01*
X65837394Y-53566995D01*
X65689371Y-53505682D01*
X65688733Y-53505598D01*
X65669976Y-53503128D01*
X65634722Y-53498487D01*
X65568561Y-53489777D01*
X65568540Y-53489775D01*
X65530522Y-53484770D01*
X65530519Y-53484770D01*
X65494739Y-53489480D01*
X65486508Y-53490020D01*
X62443478Y-53490020D01*
X62375357Y-53470018D01*
X62328864Y-53416362D01*
X62318760Y-53346088D01*
X62323873Y-53324388D01*
X62340830Y-53273213D01*
X62340831Y-53273206D01*
X62350999Y-53173681D01*
X62351000Y-53173681D01*
X62351000Y-53123000D01*
X61277500Y-53123000D01*
X61209379Y-53102998D01*
X61162886Y-53049342D01*
X61151500Y-52997000D01*
X61151500Y-51886000D01*
X61659500Y-51886000D01*
X61659500Y-52615000D01*
X62350999Y-52615000D01*
X62350999Y-52564320D01*
X62347206Y-52527197D01*
X62360180Y-52457396D01*
X62365248Y-52452009D01*
X62353488Y-52446638D01*
X62329780Y-52411107D01*
X62544472Y-52411107D01*
X62544959Y-52411272D01*
X62589215Y-52466787D01*
X62590608Y-52470357D01*
X62619553Y-52547960D01*
X62619555Y-52547965D01*
X62707095Y-52664904D01*
X62824034Y-52752444D01*
X62960906Y-52803494D01*
X63021402Y-52809999D01*
X63021415Y-52810000D01*
X63666000Y-52810000D01*
X63666000Y-52156000D01*
X64174000Y-52156000D01*
X64174000Y-52810000D01*
X64818585Y-52810000D01*
X64818597Y-52809999D01*
X64879093Y-52803494D01*
X65015964Y-52752444D01*
X65015965Y-52752444D01*
X65132904Y-52664904D01*
X65220444Y-52547965D01*
X65220444Y-52547964D01*
X65271494Y-52411093D01*
X65277999Y-52350597D01*
X65278000Y-52350585D01*
X65278000Y-52156000D01*
X64174000Y-52156000D01*
X63666000Y-52156000D01*
X62562000Y-52156000D01*
X62562000Y-52351414D01*
X62544472Y-52411107D01*
X62329780Y-52411107D01*
X62316395Y-52391046D01*
X62287392Y-52303521D01*
X62198204Y-52158925D01*
X62198199Y-52158919D01*
X62078080Y-52038800D01*
X62078074Y-52038795D01*
X61933479Y-51949607D01*
X61772210Y-51896169D01*
X61772206Y-51896168D01*
X61672681Y-51886000D01*
X61659500Y-51886000D01*
X61151500Y-51886000D01*
X61151500Y-51833806D01*
X61153313Y-51833806D01*
X61156651Y-51787011D01*
X61185616Y-51741931D01*
X61279547Y-51648000D01*
X62562000Y-51648000D01*
X63666000Y-51648000D01*
X63666000Y-50994000D01*
X64174000Y-50994000D01*
X64174000Y-51648000D01*
X65278000Y-51648000D01*
X65278000Y-51453414D01*
X65277999Y-51453402D01*
X65271494Y-51392906D01*
X65220444Y-51256035D01*
X65220444Y-51256034D01*
X65132904Y-51139095D01*
X65015965Y-51051555D01*
X64879093Y-51000505D01*
X64818597Y-50994000D01*
X64174000Y-50994000D01*
X63666000Y-50994000D01*
X63021402Y-50994000D01*
X62960906Y-51000505D01*
X62824035Y-51051555D01*
X62824034Y-51051555D01*
X62707095Y-51139095D01*
X62619555Y-51256034D01*
X62619555Y-51256035D01*
X62568505Y-51392906D01*
X62562000Y-51453402D01*
X62562000Y-51648000D01*
X61279547Y-51648000D01*
X61860145Y-51067403D01*
X61922457Y-51033378D01*
X61949240Y-51030499D01*
X62078749Y-51030499D01*
X62101060Y-51028743D01*
X62115937Y-51027573D01*
X62275100Y-50981332D01*
X62275102Y-50981330D01*
X62275104Y-50981330D01*
X62417761Y-50896963D01*
X62417760Y-50896963D01*
X62417763Y-50896962D01*
X62534962Y-50779763D01*
X62580243Y-50703196D01*
X62619330Y-50637104D01*
X62619330Y-50637102D01*
X62619332Y-50637100D01*
X62665573Y-50477937D01*
X62668500Y-50440747D01*
X62668499Y-49963254D01*
X62665573Y-49926063D01*
X62619332Y-49766900D01*
X62619330Y-49766898D01*
X62619330Y-49766895D01*
X62534963Y-49624238D01*
X62534957Y-49624231D01*
X62417768Y-49507042D01*
X62417761Y-49507036D01*
X62275104Y-49422669D01*
X62115942Y-49376428D01*
X62115938Y-49376427D01*
X62115937Y-49376427D01*
X62115935Y-49376426D01*
X62115930Y-49376426D01*
X62078749Y-49373500D01*
X61733500Y-49373500D01*
X61665379Y-49353498D01*
X61618886Y-49299842D01*
X61607500Y-49247500D01*
X61607500Y-47804239D01*
X61627502Y-47736118D01*
X61681158Y-47689625D01*
X61751432Y-47679521D01*
X61816012Y-47709015D01*
G37*
G04 #@! TD.AperFunction*
G04 #@! TA.AperFunction,Conductor*
G36*
X71980498Y-30620002D02*
G01*
X72026991Y-30673658D01*
X72037095Y-30743932D01*
X72019175Y-30787199D01*
X72021432Y-30788432D01*
X72017110Y-30796347D01*
X71966011Y-30933345D01*
X71966009Y-30933353D01*
X71959500Y-30993900D01*
X71959500Y-31093050D01*
X71939498Y-31161171D01*
X71885842Y-31207664D01*
X71833500Y-31219050D01*
X70869350Y-31219050D01*
X70808803Y-31225559D01*
X70808795Y-31225561D01*
X70671797Y-31276660D01*
X70671792Y-31276662D01*
X70554738Y-31364288D01*
X70467112Y-31481342D01*
X70467110Y-31481347D01*
X70416011Y-31618345D01*
X70416009Y-31618353D01*
X70409500Y-31678900D01*
X70409500Y-32676199D01*
X70416009Y-32736745D01*
X70416010Y-32736748D01*
X70427860Y-32768520D01*
X70432923Y-32839336D01*
X70427860Y-32856580D01*
X70416010Y-32888351D01*
X70416009Y-32888354D01*
X70409500Y-32948900D01*
X70409500Y-33946199D01*
X70416009Y-34006745D01*
X70416010Y-34006748D01*
X70416010Y-34006750D01*
X70416011Y-34006751D01*
X70422619Y-34024468D01*
X70427860Y-34038520D01*
X70432923Y-34109336D01*
X70427860Y-34126580D01*
X70416010Y-34158351D01*
X70416009Y-34158354D01*
X70409500Y-34218900D01*
X70409500Y-35216199D01*
X70416009Y-35276745D01*
X70416010Y-35276748D01*
X70416010Y-35276750D01*
X70416011Y-35276751D01*
X70422620Y-35294471D01*
X70427860Y-35308520D01*
X70432923Y-35379336D01*
X70427860Y-35396580D01*
X70416010Y-35428351D01*
X70416009Y-35428354D01*
X70409500Y-35488900D01*
X70409500Y-36486199D01*
X70416009Y-36546745D01*
X70416010Y-36546748D01*
X70416010Y-36546750D01*
X70416011Y-36546751D01*
X70427860Y-36578520D01*
X70432923Y-36649336D01*
X70427860Y-36666580D01*
X70416010Y-36698351D01*
X70416009Y-36698354D01*
X70409500Y-36758900D01*
X70409500Y-37756199D01*
X70416009Y-37816745D01*
X70416010Y-37816748D01*
X70427860Y-37848520D01*
X70432923Y-37919336D01*
X70427860Y-37936580D01*
X70416010Y-37968351D01*
X70416009Y-37968354D01*
X70409500Y-38028900D01*
X70409500Y-39026199D01*
X70416009Y-39086745D01*
X70416010Y-39086748D01*
X70416010Y-39086750D01*
X70416011Y-39086751D01*
X70424209Y-39108732D01*
X70427860Y-39118520D01*
X70432923Y-39189336D01*
X70427860Y-39206580D01*
X70416010Y-39238351D01*
X70416009Y-39238354D01*
X70409500Y-39298900D01*
X70409500Y-40296199D01*
X70416009Y-40356745D01*
X70416010Y-40356748D01*
X70427860Y-40388520D01*
X70432923Y-40459336D01*
X70427860Y-40476580D01*
X70416010Y-40508351D01*
X70416009Y-40508354D01*
X70409500Y-40568900D01*
X70409500Y-41566199D01*
X70416009Y-41626746D01*
X70416011Y-41626754D01*
X70467110Y-41763752D01*
X70467112Y-41763757D01*
X70554738Y-41880811D01*
X70671792Y-41968437D01*
X70671794Y-41968438D01*
X70671796Y-41968439D01*
X70730875Y-41990474D01*
X70808795Y-42019538D01*
X70808803Y-42019540D01*
X70869350Y-42026049D01*
X70869355Y-42026049D01*
X70869362Y-42026050D01*
X70869368Y-42026050D01*
X71833500Y-42026050D01*
X71901621Y-42046052D01*
X71948114Y-42099708D01*
X71959500Y-42152050D01*
X71959500Y-42251199D01*
X71966853Y-42319588D01*
X71965265Y-42319758D01*
X71965265Y-42355341D01*
X71966853Y-42355512D01*
X71959500Y-42423900D01*
X71959500Y-42830321D01*
X71939498Y-42898442D01*
X71885842Y-42944935D01*
X71815568Y-42955039D01*
X71750988Y-42925545D01*
X71715445Y-42874354D01*
X71678889Y-42776347D01*
X71678887Y-42776342D01*
X71591261Y-42659288D01*
X71474207Y-42571662D01*
X71474202Y-42571660D01*
X71337204Y-42520561D01*
X71337196Y-42520559D01*
X71276649Y-42514050D01*
X71276638Y-42514050D01*
X70279362Y-42514050D01*
X70279350Y-42514050D01*
X70218804Y-42520559D01*
X70218801Y-42520560D01*
X70187030Y-42532410D01*
X70116214Y-42537473D01*
X70098970Y-42532410D01*
X70067198Y-42520560D01*
X70067195Y-42520559D01*
X70006649Y-42514050D01*
X70006638Y-42514050D01*
X69009362Y-42514050D01*
X69009350Y-42514050D01*
X68948804Y-42520559D01*
X68948801Y-42520560D01*
X68917030Y-42532410D01*
X68846214Y-42537473D01*
X68828970Y-42532410D01*
X68797198Y-42520560D01*
X68797195Y-42520559D01*
X68736649Y-42514050D01*
X68736638Y-42514050D01*
X67739362Y-42514050D01*
X67739350Y-42514050D01*
X67678804Y-42520559D01*
X67678801Y-42520560D01*
X67647030Y-42532410D01*
X67576214Y-42537473D01*
X67558970Y-42532410D01*
X67527198Y-42520560D01*
X67527195Y-42520559D01*
X67466649Y-42514050D01*
X67466638Y-42514050D01*
X66469362Y-42514050D01*
X66469350Y-42514050D01*
X66408804Y-42520559D01*
X66408801Y-42520560D01*
X66377030Y-42532410D01*
X66306214Y-42537473D01*
X66288970Y-42532410D01*
X66257198Y-42520560D01*
X66257195Y-42520559D01*
X66196649Y-42514050D01*
X66196638Y-42514050D01*
X65199362Y-42514050D01*
X65199350Y-42514050D01*
X65138804Y-42520559D01*
X65138801Y-42520560D01*
X65107030Y-42532410D01*
X65036214Y-42537473D01*
X65018970Y-42532410D01*
X64987198Y-42520560D01*
X64987195Y-42520559D01*
X64926649Y-42514050D01*
X64926638Y-42514050D01*
X63929362Y-42514050D01*
X63929350Y-42514050D01*
X63868804Y-42520559D01*
X63868801Y-42520560D01*
X63837030Y-42532410D01*
X63766214Y-42537473D01*
X63748970Y-42532410D01*
X63717198Y-42520560D01*
X63717195Y-42520559D01*
X63656649Y-42514050D01*
X63656638Y-42514050D01*
X62659362Y-42514050D01*
X62659350Y-42514050D01*
X62598803Y-42520559D01*
X62598795Y-42520561D01*
X62461797Y-42571660D01*
X62461792Y-42571662D01*
X62344738Y-42659288D01*
X62257112Y-42776342D01*
X62257110Y-42776347D01*
X62220555Y-42874354D01*
X62178008Y-42931190D01*
X62111488Y-42956000D01*
X62042114Y-42940908D01*
X61991912Y-42890706D01*
X61976500Y-42830321D01*
X61976500Y-42423917D01*
X61976499Y-42423900D01*
X61969147Y-42355511D01*
X61970742Y-42355339D01*
X61970742Y-42319760D01*
X61969147Y-42319589D01*
X61976499Y-42251199D01*
X61976500Y-42251182D01*
X61976500Y-41153917D01*
X61976499Y-41153900D01*
X61969147Y-41085511D01*
X61970742Y-41085339D01*
X61970742Y-41049760D01*
X61969147Y-41049589D01*
X61976499Y-40981199D01*
X61976500Y-40981182D01*
X61976500Y-39883917D01*
X61976499Y-39883900D01*
X61969147Y-39815511D01*
X61970742Y-39815339D01*
X61970742Y-39779760D01*
X61969147Y-39779589D01*
X61976499Y-39711199D01*
X61976500Y-39711182D01*
X61976500Y-38613917D01*
X61976499Y-38613900D01*
X61969147Y-38545511D01*
X61970742Y-38545339D01*
X61970742Y-38509760D01*
X61969147Y-38509589D01*
X61976499Y-38441199D01*
X61976500Y-38441182D01*
X61976500Y-37343917D01*
X61976499Y-37343900D01*
X61969147Y-37275511D01*
X61970481Y-37275367D01*
X61970481Y-37239677D01*
X61968652Y-37239481D01*
X61975999Y-37171147D01*
X61976000Y-37171135D01*
X61976000Y-36876550D01*
X58959999Y-36876550D01*
X58949216Y-36887332D01*
X58939998Y-36918727D01*
X58886342Y-36965220D01*
X58816068Y-36975324D01*
X58798848Y-36971603D01*
X58775857Y-36964923D01*
X58738707Y-36962000D01*
X58614500Y-36962000D01*
X58546379Y-36941998D01*
X58499886Y-36888342D01*
X58488500Y-36836000D01*
X58488500Y-35513471D01*
X58508502Y-35445350D01*
X58525405Y-35424376D01*
X58744405Y-35205376D01*
X58806717Y-35171350D01*
X58877532Y-35176415D01*
X58934368Y-35218962D01*
X58959179Y-35285482D01*
X58959500Y-35294471D01*
X58959500Y-35901199D01*
X58966853Y-35969588D01*
X58965521Y-35969731D01*
X58965524Y-36005424D01*
X58967347Y-36005620D01*
X58960000Y-36073949D01*
X58960000Y-36368550D01*
X61976000Y-36368550D01*
X61976000Y-36087050D01*
X61996002Y-36018929D01*
X62049658Y-35972436D01*
X62102000Y-35961050D01*
X62548311Y-35961050D01*
X62616432Y-35981052D01*
X62637406Y-35997955D01*
X62661166Y-36021715D01*
X62695192Y-36084027D01*
X62697279Y-36096701D01*
X62699692Y-36118122D01*
X62706783Y-36181047D01*
X62706783Y-36181049D01*
X62706784Y-36181050D01*
X62766957Y-36353015D01*
X62766958Y-36353018D01*
X62863887Y-36507279D01*
X62863888Y-36507281D01*
X62992718Y-36636111D01*
X62992720Y-36636112D01*
X63146981Y-36733041D01*
X63146982Y-36733041D01*
X63146985Y-36733043D01*
X63318953Y-36793217D01*
X63500000Y-36813616D01*
X63681047Y-36793217D01*
X63853015Y-36733043D01*
X64007281Y-36636111D01*
X64136111Y-36507281D01*
X64233043Y-36353015D01*
X64293217Y-36181047D01*
X64313616Y-36000000D01*
X64293217Y-35818953D01*
X64233043Y-35646985D01*
X64233041Y-35646982D01*
X64233041Y-35646981D01*
X64136112Y-35492720D01*
X64136111Y-35492718D01*
X64007281Y-35363888D01*
X64007279Y-35363887D01*
X63853018Y-35266958D01*
X63853015Y-35266957D01*
X63681050Y-35206784D01*
X63681049Y-35206783D01*
X63681047Y-35206783D01*
X63618122Y-35199692D01*
X63596701Y-35197279D01*
X63531248Y-35169774D01*
X63521715Y-35161166D01*
X63450108Y-35089559D01*
X63416082Y-35027247D01*
X63421147Y-34956432D01*
X63432513Y-34933431D01*
X63483043Y-34853015D01*
X63543217Y-34681047D01*
X63563616Y-34500000D01*
X63543217Y-34318953D01*
X63483043Y-34146985D01*
X63483041Y-34146982D01*
X63483041Y-34146981D01*
X63386112Y-33992720D01*
X63386111Y-33992718D01*
X63257281Y-33863888D01*
X63257279Y-33863887D01*
X63103018Y-33766958D01*
X63103015Y-33766957D01*
X62931050Y-33706784D01*
X62931049Y-33706783D01*
X62931047Y-33706783D01*
X62853107Y-33698001D01*
X62787654Y-33670496D01*
X62767252Y-33649495D01*
X62766537Y-33648563D01*
X62734624Y-33624075D01*
X62734622Y-33624073D01*
X62693199Y-33592288D01*
X62639432Y-33551030D01*
X62639424Y-33551025D01*
X62491401Y-33489712D01*
X62472006Y-33487158D01*
X62436752Y-33482517D01*
X62370591Y-33473807D01*
X62370570Y-33473805D01*
X62332552Y-33468800D01*
X62332549Y-33468800D01*
X62296769Y-33473510D01*
X62288538Y-33474050D01*
X62102500Y-33474050D01*
X62034379Y-33454048D01*
X61987886Y-33400392D01*
X61976500Y-33348050D01*
X61976500Y-32263917D01*
X61976499Y-32263900D01*
X61969147Y-32195511D01*
X61970742Y-32195339D01*
X61970742Y-32159760D01*
X61969147Y-32159589D01*
X61976499Y-32091199D01*
X61976500Y-32091182D01*
X61976500Y-30993917D01*
X61976499Y-30993900D01*
X61969990Y-30933353D01*
X61969988Y-30933345D01*
X61939678Y-30852083D01*
X61918889Y-30796346D01*
X61918885Y-30796340D01*
X61914568Y-30788432D01*
X61917315Y-30786932D01*
X61897943Y-30734975D01*
X61913042Y-30665602D01*
X61963250Y-30615406D01*
X62023623Y-30600000D01*
X71912377Y-30600000D01*
X71980498Y-30620002D01*
G37*
G04 #@! TD.AperFunction*
M02*
