G04 #@! TF.GenerationSoftware,KiCad,Pcbnew,7.0.9*
G04 #@! TF.CreationDate,2024-02-10T14:11:46+01:00*
G04 #@! TF.ProjectId,parasite,70617261-7369-4746-952e-6b696361645f,2.0.0*
G04 #@! TF.SameCoordinates,Original*
G04 #@! TF.FileFunction,Soldermask,Top*
G04 #@! TF.FilePolarity,Negative*
%FSLAX46Y46*%
G04 Gerber Fmt 4.6, Leading zero omitted, Abs format (unit mm)*
G04 Created by KiCad (PCBNEW 7.0.9) date 2024-02-10 14:11:46*
%MOMM*%
%LPD*%
G01*
G04 APERTURE LIST*
G04 APERTURE END LIST*
G36*
X61417386Y-58927922D02*
G01*
X61446184Y-58927922D01*
X61479204Y-58936060D01*
X61522350Y-58941741D01*
X61551884Y-58953974D01*
X61574708Y-58959600D01*
X61609311Y-58977761D01*
X61655000Y-58996686D01*
X61675845Y-59012680D01*
X61691913Y-59021114D01*
X61724765Y-59050218D01*
X61768909Y-59084091D01*
X61781454Y-59100440D01*
X61790993Y-59108891D01*
X61818349Y-59148523D01*
X61856314Y-59198000D01*
X61862035Y-59211813D01*
X61866188Y-59217829D01*
X61884204Y-59265334D01*
X61911259Y-59330650D01*
X61912473Y-59339871D01*
X61913126Y-59341593D01*
X61918181Y-59383233D01*
X61930000Y-59473000D01*
X61918180Y-59562774D01*
X61913126Y-59604406D01*
X61912473Y-59606127D01*
X61911259Y-59615350D01*
X61884200Y-59680676D01*
X61866188Y-59728170D01*
X61862036Y-59734184D01*
X61856314Y-59748000D01*
X61818342Y-59797485D01*
X61790993Y-59837108D01*
X61781456Y-59845556D01*
X61768909Y-59861909D01*
X61724756Y-59895787D01*
X61691913Y-59924885D01*
X61675849Y-59933315D01*
X61655000Y-59949314D01*
X61609302Y-59968242D01*
X61574708Y-59986399D01*
X61551889Y-59992023D01*
X61522350Y-60004259D01*
X61479201Y-60009939D01*
X61446184Y-60018078D01*
X61417386Y-60018078D01*
X61380000Y-60023000D01*
X61342614Y-60018078D01*
X61313816Y-60018078D01*
X61280797Y-60009939D01*
X61237650Y-60004259D01*
X61208111Y-59992023D01*
X61185291Y-59986399D01*
X61150692Y-59968240D01*
X61105000Y-59949314D01*
X61084153Y-59933317D01*
X61068086Y-59924885D01*
X61035235Y-59895782D01*
X60991091Y-59861909D01*
X60978545Y-59845559D01*
X60969006Y-59837108D01*
X60941647Y-59797472D01*
X60903686Y-59748000D01*
X60897964Y-59734187D01*
X60893811Y-59728170D01*
X60875787Y-59680647D01*
X60848741Y-59615350D01*
X60847527Y-59606131D01*
X60846873Y-59604406D01*
X60841806Y-59562676D01*
X60830000Y-59473000D01*
X60841805Y-59383331D01*
X60846873Y-59341593D01*
X60847527Y-59339867D01*
X60848741Y-59330650D01*
X60875783Y-59265363D01*
X60893811Y-59217829D01*
X60897965Y-59211809D01*
X60903686Y-59198000D01*
X60941640Y-59148536D01*
X60969006Y-59108891D01*
X60978547Y-59100437D01*
X60991091Y-59084091D01*
X61035227Y-59050224D01*
X61068086Y-59021114D01*
X61084157Y-59012679D01*
X61105000Y-58996686D01*
X61150683Y-58977763D01*
X61185291Y-58959600D01*
X61208116Y-58953974D01*
X61237650Y-58941741D01*
X61280795Y-58936060D01*
X61313816Y-58927922D01*
X61342614Y-58927922D01*
X61380000Y-58923000D01*
X61417386Y-58927922D01*
G37*
G36*
X66405134Y-59071806D02*
G01*
X66421355Y-59082645D01*
X66432194Y-59098866D01*
X66436000Y-59118000D01*
X66436000Y-59918000D01*
X66432194Y-59937134D01*
X66421355Y-59953355D01*
X66405134Y-59964194D01*
X66386000Y-59968000D01*
X65486000Y-59968000D01*
X65466866Y-59964194D01*
X65450645Y-59953355D01*
X65439806Y-59937134D01*
X65436000Y-59918000D01*
X65436000Y-59118000D01*
X65439806Y-59098866D01*
X65450645Y-59082645D01*
X65466866Y-59071806D01*
X65486000Y-59068000D01*
X66386000Y-59068000D01*
X66405134Y-59071806D01*
G37*
G36*
X69950537Y-59212190D02*
G01*
X69982580Y-59216408D01*
X69990642Y-59220167D01*
X70010080Y-59224034D01*
X70035830Y-59241239D01*
X70046674Y-59246296D01*
X70053270Y-59252892D01*
X70074154Y-59266846D01*
X70088107Y-59287729D01*
X70094703Y-59294325D01*
X70099758Y-59305167D01*
X70116966Y-59330920D01*
X70120832Y-59350359D01*
X70124591Y-59358419D01*
X70128807Y-59390451D01*
X70132000Y-59406500D01*
X70132000Y-59701500D01*
X70128807Y-59717551D01*
X70124591Y-59749580D01*
X70120833Y-59757638D01*
X70116966Y-59777080D01*
X70099757Y-59802835D01*
X70094703Y-59813674D01*
X70088109Y-59820267D01*
X70074154Y-59841154D01*
X70053267Y-59855109D01*
X70046674Y-59861703D01*
X70035835Y-59866757D01*
X70010080Y-59883966D01*
X69990638Y-59887833D01*
X69982580Y-59891591D01*
X69950550Y-59895807D01*
X69934500Y-59899000D01*
X69589500Y-59899000D01*
X69573449Y-59895807D01*
X69541419Y-59891591D01*
X69533359Y-59887832D01*
X69513920Y-59883966D01*
X69488167Y-59866758D01*
X69477325Y-59861703D01*
X69470729Y-59855107D01*
X69449846Y-59841154D01*
X69435892Y-59820270D01*
X69429296Y-59813674D01*
X69424239Y-59802830D01*
X69407034Y-59777080D01*
X69403167Y-59757642D01*
X69399408Y-59749580D01*
X69395189Y-59717535D01*
X69392000Y-59701500D01*
X69392000Y-59406500D01*
X69395189Y-59390465D01*
X69399408Y-59358419D01*
X69403167Y-59350356D01*
X69407034Y-59330920D01*
X69424237Y-59305172D01*
X69429296Y-59294325D01*
X69435894Y-59287726D01*
X69449846Y-59266846D01*
X69470726Y-59252894D01*
X69477325Y-59246296D01*
X69488172Y-59241237D01*
X69513920Y-59224034D01*
X69533356Y-59220167D01*
X69541419Y-59216408D01*
X69573466Y-59212189D01*
X69589500Y-59209000D01*
X69934500Y-59209000D01*
X69950537Y-59212190D01*
G37*
G36*
X71728537Y-59212190D02*
G01*
X71760580Y-59216408D01*
X71768642Y-59220167D01*
X71788080Y-59224034D01*
X71813830Y-59241239D01*
X71824674Y-59246296D01*
X71831270Y-59252892D01*
X71852154Y-59266846D01*
X71866107Y-59287729D01*
X71872703Y-59294325D01*
X71877758Y-59305167D01*
X71894966Y-59330920D01*
X71898832Y-59350359D01*
X71902591Y-59358419D01*
X71906807Y-59390451D01*
X71910000Y-59406500D01*
X71910000Y-59701500D01*
X71906807Y-59717551D01*
X71902591Y-59749580D01*
X71898833Y-59757638D01*
X71894966Y-59777080D01*
X71877757Y-59802835D01*
X71872703Y-59813674D01*
X71866109Y-59820267D01*
X71852154Y-59841154D01*
X71831267Y-59855109D01*
X71824674Y-59861703D01*
X71813835Y-59866757D01*
X71788080Y-59883966D01*
X71768638Y-59887833D01*
X71760580Y-59891591D01*
X71728550Y-59895807D01*
X71712500Y-59899000D01*
X71367500Y-59899000D01*
X71351449Y-59895807D01*
X71319419Y-59891591D01*
X71311359Y-59887832D01*
X71291920Y-59883966D01*
X71266167Y-59866758D01*
X71255325Y-59861703D01*
X71248729Y-59855107D01*
X71227846Y-59841154D01*
X71213892Y-59820270D01*
X71207296Y-59813674D01*
X71202239Y-59802830D01*
X71185034Y-59777080D01*
X71181167Y-59757642D01*
X71177408Y-59749580D01*
X71173189Y-59717535D01*
X71170000Y-59701500D01*
X71170000Y-59406500D01*
X71173189Y-59390465D01*
X71177408Y-59358419D01*
X71181167Y-59350356D01*
X71185034Y-59330920D01*
X71202237Y-59305172D01*
X71207296Y-59294325D01*
X71213894Y-59287726D01*
X71227846Y-59266846D01*
X71248726Y-59252894D01*
X71255325Y-59246296D01*
X71266172Y-59241237D01*
X71291920Y-59224034D01*
X71311356Y-59220167D01*
X71319419Y-59216408D01*
X71351466Y-59212189D01*
X71367500Y-59209000D01*
X71712500Y-59209000D01*
X71728537Y-59212190D01*
G37*
G36*
X68021386Y-58292922D02*
G01*
X68050184Y-58292922D01*
X68083204Y-58301060D01*
X68126350Y-58306741D01*
X68155884Y-58318974D01*
X68178708Y-58324600D01*
X68213311Y-58342761D01*
X68259000Y-58361686D01*
X68279845Y-58377680D01*
X68295913Y-58386114D01*
X68328765Y-58415218D01*
X68372909Y-58449091D01*
X68385454Y-58465440D01*
X68394993Y-58473891D01*
X68422349Y-58513523D01*
X68460314Y-58563000D01*
X68466035Y-58576813D01*
X68470188Y-58582829D01*
X68488204Y-58630334D01*
X68515259Y-58695650D01*
X68516473Y-58704871D01*
X68517126Y-58706593D01*
X68522181Y-58748233D01*
X68534000Y-58838000D01*
X68522180Y-58927774D01*
X68517126Y-58969406D01*
X68516473Y-58971127D01*
X68515259Y-58980350D01*
X68488200Y-59045676D01*
X68470188Y-59093170D01*
X68466036Y-59099184D01*
X68460314Y-59113000D01*
X68422342Y-59162485D01*
X68394993Y-59202108D01*
X68385456Y-59210556D01*
X68372909Y-59226909D01*
X68328756Y-59260787D01*
X68295913Y-59289885D01*
X68279849Y-59298315D01*
X68259000Y-59314314D01*
X68213302Y-59333242D01*
X68178708Y-59351399D01*
X68155889Y-59357023D01*
X68126350Y-59369259D01*
X68083201Y-59374939D01*
X68050184Y-59383078D01*
X68021386Y-59383078D01*
X67984000Y-59388000D01*
X67946614Y-59383078D01*
X67917816Y-59383078D01*
X67884797Y-59374939D01*
X67841650Y-59369259D01*
X67812111Y-59357023D01*
X67789291Y-59351399D01*
X67754692Y-59333240D01*
X67709000Y-59314314D01*
X67688153Y-59298317D01*
X67672086Y-59289885D01*
X67639235Y-59260782D01*
X67595091Y-59226909D01*
X67582545Y-59210559D01*
X67573006Y-59202108D01*
X67545647Y-59162472D01*
X67507686Y-59113000D01*
X67501964Y-59099187D01*
X67497811Y-59093170D01*
X67479787Y-59045647D01*
X67452741Y-58980350D01*
X67451527Y-58971131D01*
X67450873Y-58969406D01*
X67445806Y-58927676D01*
X67434000Y-58838000D01*
X67445805Y-58748331D01*
X67450873Y-58706593D01*
X67451527Y-58704867D01*
X67452741Y-58695650D01*
X67479783Y-58630363D01*
X67497811Y-58582829D01*
X67501965Y-58576809D01*
X67507686Y-58563000D01*
X67545640Y-58513536D01*
X67573006Y-58473891D01*
X67582547Y-58465437D01*
X67595091Y-58449091D01*
X67639227Y-58415224D01*
X67672086Y-58386114D01*
X67688157Y-58377679D01*
X67709000Y-58361686D01*
X67754683Y-58342763D01*
X67789291Y-58324600D01*
X67812116Y-58318974D01*
X67841650Y-58306741D01*
X67884795Y-58301060D01*
X67917816Y-58292922D01*
X67946614Y-58292922D01*
X67984000Y-58288000D01*
X68021386Y-58292922D01*
G37*
G36*
X64405134Y-58121806D02*
G01*
X64421355Y-58132645D01*
X64432194Y-58148866D01*
X64436000Y-58168000D01*
X64436000Y-58968000D01*
X64432194Y-58987134D01*
X64421355Y-59003355D01*
X64405134Y-59014194D01*
X64386000Y-59018000D01*
X63486000Y-59018000D01*
X63466866Y-59014194D01*
X63450645Y-59003355D01*
X63439806Y-58987134D01*
X63436000Y-58968000D01*
X63436000Y-58168000D01*
X63439806Y-58148866D01*
X63450645Y-58132645D01*
X63466866Y-58121806D01*
X63486000Y-58118000D01*
X64386000Y-58118000D01*
X64405134Y-58121806D01*
G37*
G36*
X69950537Y-58242190D02*
G01*
X69982580Y-58246408D01*
X69990642Y-58250167D01*
X70010080Y-58254034D01*
X70035830Y-58271239D01*
X70046674Y-58276296D01*
X70053270Y-58282892D01*
X70074154Y-58296846D01*
X70088107Y-58317729D01*
X70094703Y-58324325D01*
X70099758Y-58335167D01*
X70116966Y-58360920D01*
X70120832Y-58380359D01*
X70124591Y-58388419D01*
X70128807Y-58420451D01*
X70132000Y-58436500D01*
X70132000Y-58731500D01*
X70128807Y-58747551D01*
X70124591Y-58779580D01*
X70120833Y-58787638D01*
X70116966Y-58807080D01*
X70099757Y-58832835D01*
X70094703Y-58843674D01*
X70088109Y-58850267D01*
X70074154Y-58871154D01*
X70053267Y-58885109D01*
X70046674Y-58891703D01*
X70035835Y-58896757D01*
X70010080Y-58913966D01*
X69990638Y-58917833D01*
X69982580Y-58921591D01*
X69950550Y-58925807D01*
X69934500Y-58929000D01*
X69589500Y-58929000D01*
X69573449Y-58925807D01*
X69541419Y-58921591D01*
X69533359Y-58917832D01*
X69513920Y-58913966D01*
X69488167Y-58896758D01*
X69477325Y-58891703D01*
X69470729Y-58885107D01*
X69449846Y-58871154D01*
X69435892Y-58850270D01*
X69429296Y-58843674D01*
X69424239Y-58832830D01*
X69407034Y-58807080D01*
X69403167Y-58787642D01*
X69399408Y-58779580D01*
X69395189Y-58747535D01*
X69392000Y-58731500D01*
X69392000Y-58436500D01*
X69395189Y-58420465D01*
X69399408Y-58388419D01*
X69403167Y-58380356D01*
X69407034Y-58360920D01*
X69424237Y-58335172D01*
X69429296Y-58324325D01*
X69435894Y-58317726D01*
X69449846Y-58296846D01*
X69470726Y-58282894D01*
X69477325Y-58276296D01*
X69488172Y-58271237D01*
X69513920Y-58254034D01*
X69533356Y-58250167D01*
X69541419Y-58246408D01*
X69573466Y-58242189D01*
X69589500Y-58239000D01*
X69934500Y-58239000D01*
X69950537Y-58242190D01*
G37*
G36*
X71728537Y-58242190D02*
G01*
X71760580Y-58246408D01*
X71768642Y-58250167D01*
X71788080Y-58254034D01*
X71813830Y-58271239D01*
X71824674Y-58276296D01*
X71831270Y-58282892D01*
X71852154Y-58296846D01*
X71866107Y-58317729D01*
X71872703Y-58324325D01*
X71877758Y-58335167D01*
X71894966Y-58360920D01*
X71898832Y-58380359D01*
X71902591Y-58388419D01*
X71906807Y-58420451D01*
X71910000Y-58436500D01*
X71910000Y-58731500D01*
X71906807Y-58747551D01*
X71902591Y-58779580D01*
X71898833Y-58787638D01*
X71894966Y-58807080D01*
X71877757Y-58832835D01*
X71872703Y-58843674D01*
X71866109Y-58850267D01*
X71852154Y-58871154D01*
X71831267Y-58885109D01*
X71824674Y-58891703D01*
X71813835Y-58896757D01*
X71788080Y-58913966D01*
X71768638Y-58917833D01*
X71760580Y-58921591D01*
X71728550Y-58925807D01*
X71712500Y-58929000D01*
X71367500Y-58929000D01*
X71351449Y-58925807D01*
X71319419Y-58921591D01*
X71311359Y-58917832D01*
X71291920Y-58913966D01*
X71266167Y-58896758D01*
X71255325Y-58891703D01*
X71248729Y-58885107D01*
X71227846Y-58871154D01*
X71213892Y-58850270D01*
X71207296Y-58843674D01*
X71202239Y-58832830D01*
X71185034Y-58807080D01*
X71181167Y-58787642D01*
X71177408Y-58779580D01*
X71173189Y-58747535D01*
X71170000Y-58731500D01*
X71170000Y-58436500D01*
X71173189Y-58420465D01*
X71177408Y-58388419D01*
X71181167Y-58380356D01*
X71185034Y-58360920D01*
X71202237Y-58335172D01*
X71207296Y-58324325D01*
X71213894Y-58317726D01*
X71227846Y-58296846D01*
X71248726Y-58282894D01*
X71255325Y-58276296D01*
X71266172Y-58271237D01*
X71291920Y-58254034D01*
X71311356Y-58250167D01*
X71319419Y-58246408D01*
X71351466Y-58242189D01*
X71367500Y-58239000D01*
X71712500Y-58239000D01*
X71728537Y-58242190D01*
G37*
G36*
X61208536Y-57455189D02*
G01*
X61240580Y-57459408D01*
X61248642Y-57463167D01*
X61268080Y-57467034D01*
X61293830Y-57484239D01*
X61304674Y-57489296D01*
X61311270Y-57495892D01*
X61332154Y-57509846D01*
X61346107Y-57530729D01*
X61352703Y-57537325D01*
X61357758Y-57548167D01*
X61374966Y-57573920D01*
X61378832Y-57593359D01*
X61382591Y-57601419D01*
X61386807Y-57633451D01*
X61390000Y-57649500D01*
X61390000Y-57994500D01*
X61386806Y-58010552D01*
X61382591Y-58042580D01*
X61378833Y-58050638D01*
X61374966Y-58070080D01*
X61357757Y-58095835D01*
X61352703Y-58106674D01*
X61346109Y-58113267D01*
X61332154Y-58134154D01*
X61311267Y-58148109D01*
X61304674Y-58154703D01*
X61293835Y-58159757D01*
X61268080Y-58176966D01*
X61248638Y-58180833D01*
X61240580Y-58184591D01*
X61208550Y-58188807D01*
X61192500Y-58192000D01*
X60897500Y-58192000D01*
X60881450Y-58188807D01*
X60849419Y-58184591D01*
X60841359Y-58180832D01*
X60821920Y-58176966D01*
X60796167Y-58159758D01*
X60785325Y-58154703D01*
X60778729Y-58148107D01*
X60757846Y-58134154D01*
X60743892Y-58113270D01*
X60737296Y-58106674D01*
X60732239Y-58095830D01*
X60715034Y-58070080D01*
X60711167Y-58050642D01*
X60707408Y-58042580D01*
X60703189Y-58010535D01*
X60700000Y-57994500D01*
X60700000Y-57649500D01*
X60703189Y-57633464D01*
X60707408Y-57601419D01*
X60711167Y-57593356D01*
X60715034Y-57573920D01*
X60732237Y-57548172D01*
X60737296Y-57537325D01*
X60743894Y-57530726D01*
X60757846Y-57509846D01*
X60778726Y-57495894D01*
X60785325Y-57489296D01*
X60796172Y-57484237D01*
X60821920Y-57467034D01*
X60841356Y-57463167D01*
X60849419Y-57459408D01*
X60881466Y-57455189D01*
X60897500Y-57452000D01*
X61192500Y-57452000D01*
X61208536Y-57455189D01*
G37*
G36*
X62178536Y-57455189D02*
G01*
X62210580Y-57459408D01*
X62218642Y-57463167D01*
X62238080Y-57467034D01*
X62263830Y-57484239D01*
X62274674Y-57489296D01*
X62281270Y-57495892D01*
X62302154Y-57509846D01*
X62316107Y-57530729D01*
X62322703Y-57537325D01*
X62327758Y-57548167D01*
X62344966Y-57573920D01*
X62348832Y-57593359D01*
X62352591Y-57601419D01*
X62356807Y-57633451D01*
X62360000Y-57649500D01*
X62360000Y-57994500D01*
X62356806Y-58010552D01*
X62352591Y-58042580D01*
X62348833Y-58050638D01*
X62344966Y-58070080D01*
X62327757Y-58095835D01*
X62322703Y-58106674D01*
X62316109Y-58113267D01*
X62302154Y-58134154D01*
X62281267Y-58148109D01*
X62274674Y-58154703D01*
X62263835Y-58159757D01*
X62238080Y-58176966D01*
X62218638Y-58180833D01*
X62210580Y-58184591D01*
X62178550Y-58188807D01*
X62162500Y-58192000D01*
X61867500Y-58192000D01*
X61851450Y-58188807D01*
X61819419Y-58184591D01*
X61811359Y-58180832D01*
X61791920Y-58176966D01*
X61766167Y-58159758D01*
X61755325Y-58154703D01*
X61748729Y-58148107D01*
X61727846Y-58134154D01*
X61713892Y-58113270D01*
X61707296Y-58106674D01*
X61702239Y-58095830D01*
X61685034Y-58070080D01*
X61681167Y-58050642D01*
X61677408Y-58042580D01*
X61673189Y-58010535D01*
X61670000Y-57994500D01*
X61670000Y-57649500D01*
X61673189Y-57633464D01*
X61677408Y-57601419D01*
X61681167Y-57593356D01*
X61685034Y-57573920D01*
X61702237Y-57548172D01*
X61707296Y-57537325D01*
X61713894Y-57530726D01*
X61727846Y-57509846D01*
X61748726Y-57495894D01*
X61755325Y-57489296D01*
X61766172Y-57484237D01*
X61791920Y-57467034D01*
X61811356Y-57463167D01*
X61819419Y-57459408D01*
X61851466Y-57455189D01*
X61867500Y-57452000D01*
X62162500Y-57452000D01*
X62178536Y-57455189D01*
G37*
G36*
X66405134Y-57171806D02*
G01*
X66421355Y-57182645D01*
X66432194Y-57198866D01*
X66436000Y-57218000D01*
X66436000Y-58018000D01*
X66432194Y-58037134D01*
X66421355Y-58053355D01*
X66405134Y-58064194D01*
X66386000Y-58068000D01*
X65486000Y-58068000D01*
X65466866Y-58064194D01*
X65450645Y-58053355D01*
X65439806Y-58037134D01*
X65436000Y-58018000D01*
X65436000Y-57218000D01*
X65439806Y-57198866D01*
X65450645Y-57182645D01*
X65466866Y-57171806D01*
X65486000Y-57168000D01*
X66386000Y-57168000D01*
X66405134Y-57171806D01*
G37*
G36*
X74279791Y-55198931D02*
G01*
X74317514Y-55204427D01*
X74324438Y-55207811D01*
X74341104Y-55211127D01*
X74368054Y-55229134D01*
X74384736Y-55237290D01*
X74393750Y-55246304D01*
X74414099Y-55259901D01*
X74427695Y-55280249D01*
X74436709Y-55289263D01*
X74444862Y-55305941D01*
X74462873Y-55332896D01*
X74466188Y-55349565D01*
X74469570Y-55356482D01*
X74475056Y-55394146D01*
X74480000Y-55419000D01*
X74480000Y-55428085D01*
X74480779Y-55433433D01*
X74648315Y-55471286D01*
X74689243Y-55410032D01*
X74690467Y-55403881D01*
X74720273Y-55359273D01*
X74764881Y-55329467D01*
X74817500Y-55319000D01*
X75192500Y-55319000D01*
X75245119Y-55329467D01*
X75289727Y-55359273D01*
X75319533Y-55403881D01*
X75330000Y-55456500D01*
X75330000Y-55631500D01*
X75319533Y-55684119D01*
X75289727Y-55728727D01*
X75245119Y-55758533D01*
X75192500Y-55769000D01*
X74817500Y-55769000D01*
X74764881Y-55758533D01*
X74720273Y-55728727D01*
X74690467Y-55684119D01*
X74689242Y-55677963D01*
X74657427Y-55630348D01*
X74480000Y-55684168D01*
X74480000Y-56403828D01*
X74657425Y-56457651D01*
X74689243Y-56410031D01*
X74690467Y-56403881D01*
X74720273Y-56359273D01*
X74764881Y-56329467D01*
X74817500Y-56319000D01*
X75192500Y-56319000D01*
X75245119Y-56329467D01*
X75289727Y-56359273D01*
X75319533Y-56403881D01*
X75330000Y-56456500D01*
X75330000Y-56631500D01*
X75319533Y-56684119D01*
X75289727Y-56728727D01*
X75245119Y-56758533D01*
X75192500Y-56769000D01*
X74817500Y-56769000D01*
X74764881Y-56758533D01*
X74720273Y-56728727D01*
X74690467Y-56684119D01*
X74689242Y-56677965D01*
X74648315Y-56616712D01*
X74480778Y-56654567D01*
X74480000Y-56659908D01*
X74480000Y-56669000D01*
X74475054Y-56693864D01*
X74469570Y-56731517D01*
X74466189Y-56738432D01*
X74462873Y-56755104D01*
X74444860Y-56782060D01*
X74436709Y-56798736D01*
X74427697Y-56807747D01*
X74414099Y-56828099D01*
X74393747Y-56841697D01*
X74384736Y-56850709D01*
X74368060Y-56858861D01*
X74341104Y-56876873D01*
X74324434Y-56880188D01*
X74317514Y-56883572D01*
X74279810Y-56889064D01*
X74255000Y-56894000D01*
X73905000Y-56894000D01*
X73880192Y-56889065D01*
X73842485Y-56883572D01*
X73835563Y-56880188D01*
X73818896Y-56876873D01*
X73791942Y-56858863D01*
X73775263Y-56850709D01*
X73766249Y-56841695D01*
X73745901Y-56828099D01*
X73732304Y-56807750D01*
X73723290Y-56798736D01*
X73715134Y-56782054D01*
X73697127Y-56755104D01*
X73693811Y-56738438D01*
X73690427Y-56731514D01*
X73684926Y-56693766D01*
X73680000Y-56669000D01*
X73680000Y-56659960D01*
X73679213Y-56654560D01*
X73511680Y-56616716D01*
X73470758Y-56677960D01*
X73469533Y-56684119D01*
X73439727Y-56728727D01*
X73395119Y-56758533D01*
X73342500Y-56769000D01*
X72967500Y-56769000D01*
X72914881Y-56758533D01*
X72870273Y-56728727D01*
X72840467Y-56684119D01*
X72830000Y-56631500D01*
X72830000Y-56456500D01*
X72840467Y-56403881D01*
X72870273Y-56359273D01*
X72914881Y-56329467D01*
X72967500Y-56319000D01*
X73342500Y-56319000D01*
X73395119Y-56329467D01*
X73439727Y-56359273D01*
X73469533Y-56403881D01*
X73470757Y-56410038D01*
X73502571Y-56457651D01*
X73680000Y-56403830D01*
X73680000Y-55684170D01*
X73502571Y-55630349D01*
X73470757Y-55677960D01*
X73469533Y-55684119D01*
X73439727Y-55728727D01*
X73395119Y-55758533D01*
X73342500Y-55769000D01*
X72967500Y-55769000D01*
X72914881Y-55758533D01*
X72870273Y-55728727D01*
X72840467Y-55684119D01*
X72830000Y-55631500D01*
X72830000Y-55456500D01*
X72840467Y-55403881D01*
X72870273Y-55359273D01*
X72914881Y-55329467D01*
X72967500Y-55319000D01*
X73342500Y-55319000D01*
X73395119Y-55329467D01*
X73439727Y-55359273D01*
X73469533Y-55403881D01*
X73470757Y-55410036D01*
X73511681Y-55471283D01*
X73679212Y-55433439D01*
X73680000Y-55428031D01*
X73680000Y-55419000D01*
X73684922Y-55394251D01*
X73690426Y-55356488D01*
X73693812Y-55349561D01*
X73697127Y-55332896D01*
X73715133Y-55305947D01*
X73723290Y-55289263D01*
X73732306Y-55280246D01*
X73745901Y-55259901D01*
X73766246Y-55246306D01*
X73775263Y-55237290D01*
X73791948Y-55229133D01*
X73818896Y-55211127D01*
X73835560Y-55207812D01*
X73842485Y-55204427D01*
X73880211Y-55198930D01*
X73905000Y-55194000D01*
X74255000Y-55194000D01*
X74279791Y-55198931D01*
G37*
G36*
X65661134Y-54639806D02*
G01*
X65677355Y-54650645D01*
X65688194Y-54666866D01*
X65692000Y-54686000D01*
X65692000Y-56386000D01*
X65688194Y-56405134D01*
X65677355Y-56421355D01*
X65661134Y-56432194D01*
X65642000Y-56436000D01*
X64342000Y-56436000D01*
X64322866Y-56432194D01*
X64306645Y-56421355D01*
X64295806Y-56405134D01*
X64292000Y-56386000D01*
X64292000Y-54686000D01*
X64295806Y-54666866D01*
X64306645Y-54650645D01*
X64322866Y-54639806D01*
X64342000Y-54636000D01*
X65642000Y-54636000D01*
X65661134Y-54639806D01*
G37*
G36*
X69161134Y-54639806D02*
G01*
X69177355Y-54650645D01*
X69188194Y-54666866D01*
X69192000Y-54686000D01*
X69192000Y-56386000D01*
X69188194Y-56405134D01*
X69177355Y-56421355D01*
X69161134Y-56432194D01*
X69142000Y-56436000D01*
X67842000Y-56436000D01*
X67822866Y-56432194D01*
X67806645Y-56421355D01*
X67795806Y-56405134D01*
X67792000Y-56386000D01*
X67792000Y-54686000D01*
X67795806Y-54666866D01*
X67806645Y-54650645D01*
X67822866Y-54639806D01*
X67842000Y-54636000D01*
X69142000Y-54636000D01*
X69161134Y-54639806D01*
G37*
G36*
X70712537Y-55575190D02*
G01*
X70744580Y-55579408D01*
X70752642Y-55583167D01*
X70772080Y-55587034D01*
X70797830Y-55604239D01*
X70808674Y-55609296D01*
X70815270Y-55615892D01*
X70836154Y-55629846D01*
X70850107Y-55650729D01*
X70856703Y-55657325D01*
X70861758Y-55668167D01*
X70878966Y-55693920D01*
X70882832Y-55713359D01*
X70886591Y-55721419D01*
X70890807Y-55753451D01*
X70894000Y-55769500D01*
X70894000Y-56064500D01*
X70890807Y-56080551D01*
X70886591Y-56112580D01*
X70882833Y-56120638D01*
X70878966Y-56140080D01*
X70861757Y-56165835D01*
X70856703Y-56176674D01*
X70850109Y-56183267D01*
X70836154Y-56204154D01*
X70815267Y-56218109D01*
X70808674Y-56224703D01*
X70797835Y-56229757D01*
X70772080Y-56246966D01*
X70752638Y-56250833D01*
X70744580Y-56254591D01*
X70712550Y-56258807D01*
X70696500Y-56262000D01*
X70351500Y-56262000D01*
X70335449Y-56258807D01*
X70303419Y-56254591D01*
X70295359Y-56250832D01*
X70275920Y-56246966D01*
X70250167Y-56229758D01*
X70239325Y-56224703D01*
X70232729Y-56218107D01*
X70211846Y-56204154D01*
X70197892Y-56183270D01*
X70191296Y-56176674D01*
X70186239Y-56165830D01*
X70169034Y-56140080D01*
X70165167Y-56120642D01*
X70161408Y-56112580D01*
X70157189Y-56080535D01*
X70154000Y-56064500D01*
X70154000Y-55769500D01*
X70157189Y-55753465D01*
X70161408Y-55721419D01*
X70165167Y-55713356D01*
X70169034Y-55693920D01*
X70186237Y-55668172D01*
X70191296Y-55657325D01*
X70197894Y-55650726D01*
X70211846Y-55629846D01*
X70232726Y-55615894D01*
X70239325Y-55609296D01*
X70250172Y-55604237D01*
X70275920Y-55587034D01*
X70295356Y-55583167D01*
X70303419Y-55579408D01*
X70335466Y-55575189D01*
X70351500Y-55572000D01*
X70696500Y-55572000D01*
X70712537Y-55575190D01*
G37*
G36*
X61208536Y-55296189D02*
G01*
X61240580Y-55300408D01*
X61248642Y-55304167D01*
X61268080Y-55308034D01*
X61293830Y-55325239D01*
X61304674Y-55330296D01*
X61311270Y-55336892D01*
X61332154Y-55350846D01*
X61346107Y-55371729D01*
X61352703Y-55378325D01*
X61357758Y-55389167D01*
X61374966Y-55414920D01*
X61378832Y-55434359D01*
X61382591Y-55442419D01*
X61386807Y-55474451D01*
X61390000Y-55490500D01*
X61390000Y-55835500D01*
X61386806Y-55851552D01*
X61382591Y-55883580D01*
X61378833Y-55891638D01*
X61374966Y-55911080D01*
X61357757Y-55936835D01*
X61352703Y-55947674D01*
X61346109Y-55954267D01*
X61332154Y-55975154D01*
X61311267Y-55989109D01*
X61304674Y-55995703D01*
X61293835Y-56000757D01*
X61268080Y-56017966D01*
X61248638Y-56021833D01*
X61240580Y-56025591D01*
X61208550Y-56029807D01*
X61192500Y-56033000D01*
X60897500Y-56033000D01*
X60881450Y-56029807D01*
X60849419Y-56025591D01*
X60841359Y-56021832D01*
X60821920Y-56017966D01*
X60796167Y-56000758D01*
X60785325Y-55995703D01*
X60778729Y-55989107D01*
X60757846Y-55975154D01*
X60743892Y-55954270D01*
X60737296Y-55947674D01*
X60732239Y-55936830D01*
X60715034Y-55911080D01*
X60711167Y-55891642D01*
X60707408Y-55883580D01*
X60703189Y-55851535D01*
X60700000Y-55835500D01*
X60700000Y-55490500D01*
X60703189Y-55474464D01*
X60707408Y-55442419D01*
X60711167Y-55434356D01*
X60715034Y-55414920D01*
X60732237Y-55389172D01*
X60737296Y-55378325D01*
X60743894Y-55371726D01*
X60757846Y-55350846D01*
X60778726Y-55336894D01*
X60785325Y-55330296D01*
X60796172Y-55325237D01*
X60821920Y-55308034D01*
X60841356Y-55304167D01*
X60849419Y-55300408D01*
X60881466Y-55296189D01*
X60897500Y-55293000D01*
X61192500Y-55293000D01*
X61208536Y-55296189D01*
G37*
G36*
X62178536Y-55296189D02*
G01*
X62210580Y-55300408D01*
X62218642Y-55304167D01*
X62238080Y-55308034D01*
X62263830Y-55325239D01*
X62274674Y-55330296D01*
X62281270Y-55336892D01*
X62302154Y-55350846D01*
X62316107Y-55371729D01*
X62322703Y-55378325D01*
X62327758Y-55389167D01*
X62344966Y-55414920D01*
X62348832Y-55434359D01*
X62352591Y-55442419D01*
X62356807Y-55474451D01*
X62360000Y-55490500D01*
X62360000Y-55835500D01*
X62356806Y-55851552D01*
X62352591Y-55883580D01*
X62348833Y-55891638D01*
X62344966Y-55911080D01*
X62327757Y-55936835D01*
X62322703Y-55947674D01*
X62316109Y-55954267D01*
X62302154Y-55975154D01*
X62281267Y-55989109D01*
X62274674Y-55995703D01*
X62263835Y-56000757D01*
X62238080Y-56017966D01*
X62218638Y-56021833D01*
X62210580Y-56025591D01*
X62178550Y-56029807D01*
X62162500Y-56033000D01*
X61867500Y-56033000D01*
X61851450Y-56029807D01*
X61819419Y-56025591D01*
X61811359Y-56021832D01*
X61791920Y-56017966D01*
X61766167Y-56000758D01*
X61755325Y-55995703D01*
X61748729Y-55989107D01*
X61727846Y-55975154D01*
X61713892Y-55954270D01*
X61707296Y-55947674D01*
X61702239Y-55936830D01*
X61685034Y-55911080D01*
X61681167Y-55891642D01*
X61677408Y-55883580D01*
X61673189Y-55851535D01*
X61670000Y-55835500D01*
X61670000Y-55490500D01*
X61673189Y-55474464D01*
X61677408Y-55442419D01*
X61681167Y-55434356D01*
X61685034Y-55414920D01*
X61702237Y-55389172D01*
X61707296Y-55378325D01*
X61713894Y-55371726D01*
X61727846Y-55350846D01*
X61748726Y-55336894D01*
X61755325Y-55330296D01*
X61766172Y-55325237D01*
X61791920Y-55308034D01*
X61811356Y-55304167D01*
X61819419Y-55300408D01*
X61851466Y-55296189D01*
X61867500Y-55293000D01*
X62162500Y-55293000D01*
X62178536Y-55296189D01*
G37*
G36*
X70712537Y-54605190D02*
G01*
X70744580Y-54609408D01*
X70752642Y-54613167D01*
X70772080Y-54617034D01*
X70797830Y-54634239D01*
X70808674Y-54639296D01*
X70815270Y-54645892D01*
X70836154Y-54659846D01*
X70850107Y-54680729D01*
X70856703Y-54687325D01*
X70861758Y-54698167D01*
X70878966Y-54723920D01*
X70882832Y-54743359D01*
X70886591Y-54751419D01*
X70890807Y-54783451D01*
X70894000Y-54799500D01*
X70894000Y-55094500D01*
X70890807Y-55110551D01*
X70886591Y-55142580D01*
X70882833Y-55150638D01*
X70878966Y-55170080D01*
X70861757Y-55195835D01*
X70856703Y-55206674D01*
X70850109Y-55213267D01*
X70836154Y-55234154D01*
X70815267Y-55248109D01*
X70808674Y-55254703D01*
X70797835Y-55259757D01*
X70772080Y-55276966D01*
X70752638Y-55280833D01*
X70744580Y-55284591D01*
X70712550Y-55288807D01*
X70696500Y-55292000D01*
X70351500Y-55292000D01*
X70335449Y-55288807D01*
X70303419Y-55284591D01*
X70295359Y-55280832D01*
X70275920Y-55276966D01*
X70250167Y-55259758D01*
X70239325Y-55254703D01*
X70232729Y-55248107D01*
X70211846Y-55234154D01*
X70197892Y-55213270D01*
X70191296Y-55206674D01*
X70186239Y-55195830D01*
X70169034Y-55170080D01*
X70165167Y-55150642D01*
X70161408Y-55142580D01*
X70157189Y-55110535D01*
X70154000Y-55094500D01*
X70154000Y-54799500D01*
X70157189Y-54783465D01*
X70161408Y-54751419D01*
X70165167Y-54743356D01*
X70169034Y-54723920D01*
X70186237Y-54698172D01*
X70191296Y-54687325D01*
X70197894Y-54680726D01*
X70211846Y-54659846D01*
X70232726Y-54645894D01*
X70239325Y-54639296D01*
X70250172Y-54634237D01*
X70275920Y-54617034D01*
X70295356Y-54613167D01*
X70303419Y-54609408D01*
X70335466Y-54605189D01*
X70351500Y-54602000D01*
X70696500Y-54602000D01*
X70712537Y-54605190D01*
G37*
G36*
X69073037Y-53162190D02*
G01*
X69105080Y-53166408D01*
X69113142Y-53170167D01*
X69132580Y-53174034D01*
X69158330Y-53191239D01*
X69169174Y-53196296D01*
X69175770Y-53202892D01*
X69196654Y-53216846D01*
X69210607Y-53237729D01*
X69217203Y-53244325D01*
X69222258Y-53255167D01*
X69239466Y-53280920D01*
X69243332Y-53300359D01*
X69247091Y-53308419D01*
X69251307Y-53340451D01*
X69254500Y-53356500D01*
X69254500Y-53651500D01*
X69251307Y-53667551D01*
X69247091Y-53699580D01*
X69243333Y-53707638D01*
X69239466Y-53727080D01*
X69222257Y-53752835D01*
X69217203Y-53763674D01*
X69210609Y-53770267D01*
X69196654Y-53791154D01*
X69175767Y-53805109D01*
X69169174Y-53811703D01*
X69158335Y-53816757D01*
X69132580Y-53833966D01*
X69113138Y-53837833D01*
X69105080Y-53841591D01*
X69073050Y-53845807D01*
X69057000Y-53849000D01*
X68712000Y-53849000D01*
X68695949Y-53845807D01*
X68663919Y-53841591D01*
X68655859Y-53837832D01*
X68636420Y-53833966D01*
X68610667Y-53816758D01*
X68599825Y-53811703D01*
X68593229Y-53805107D01*
X68572346Y-53791154D01*
X68558392Y-53770270D01*
X68551796Y-53763674D01*
X68546739Y-53752830D01*
X68529534Y-53727080D01*
X68525667Y-53707642D01*
X68521908Y-53699580D01*
X68517689Y-53667535D01*
X68514500Y-53651500D01*
X68514500Y-53356500D01*
X68517689Y-53340465D01*
X68521908Y-53308419D01*
X68525667Y-53300356D01*
X68529534Y-53280920D01*
X68546737Y-53255172D01*
X68551796Y-53244325D01*
X68558394Y-53237726D01*
X68572346Y-53216846D01*
X68593226Y-53202894D01*
X68599825Y-53196296D01*
X68610672Y-53191237D01*
X68636420Y-53174034D01*
X68655856Y-53170167D01*
X68663919Y-53166408D01*
X68695966Y-53162189D01*
X68712000Y-53159000D01*
X69057000Y-53159000D01*
X69073037Y-53162190D01*
G37*
G36*
X74776537Y-53162190D02*
G01*
X74808580Y-53166408D01*
X74816642Y-53170167D01*
X74836080Y-53174034D01*
X74861830Y-53191239D01*
X74872674Y-53196296D01*
X74879270Y-53202892D01*
X74900154Y-53216846D01*
X74914107Y-53237729D01*
X74920703Y-53244325D01*
X74925758Y-53255167D01*
X74942966Y-53280920D01*
X74946832Y-53300359D01*
X74950591Y-53308419D01*
X74954807Y-53340451D01*
X74958000Y-53356500D01*
X74958000Y-53651500D01*
X74954807Y-53667551D01*
X74950591Y-53699580D01*
X74946833Y-53707638D01*
X74942966Y-53727080D01*
X74925757Y-53752835D01*
X74920703Y-53763674D01*
X74914109Y-53770267D01*
X74900154Y-53791154D01*
X74879267Y-53805109D01*
X74872674Y-53811703D01*
X74861835Y-53816757D01*
X74836080Y-53833966D01*
X74816638Y-53837833D01*
X74808580Y-53841591D01*
X74776550Y-53845807D01*
X74760500Y-53849000D01*
X74415500Y-53849000D01*
X74399449Y-53845807D01*
X74367419Y-53841591D01*
X74359359Y-53837832D01*
X74339920Y-53833966D01*
X74314167Y-53816758D01*
X74303325Y-53811703D01*
X74296729Y-53805107D01*
X74275846Y-53791154D01*
X74261892Y-53770270D01*
X74255296Y-53763674D01*
X74250239Y-53752830D01*
X74233034Y-53727080D01*
X74229167Y-53707642D01*
X74225408Y-53699580D01*
X74221189Y-53667535D01*
X74218000Y-53651500D01*
X74218000Y-53356500D01*
X74221189Y-53340465D01*
X74225408Y-53308419D01*
X74229167Y-53300356D01*
X74233034Y-53280920D01*
X74250237Y-53255172D01*
X74255296Y-53244325D01*
X74261894Y-53237726D01*
X74275846Y-53216846D01*
X74296726Y-53202894D01*
X74303325Y-53196296D01*
X74314172Y-53191237D01*
X74339920Y-53174034D01*
X74359356Y-53170167D01*
X74367419Y-53166408D01*
X74399466Y-53162189D01*
X74415500Y-53159000D01*
X74760500Y-53159000D01*
X74776537Y-53162190D01*
G37*
G36*
X76427537Y-53162190D02*
G01*
X76459580Y-53166408D01*
X76467642Y-53170167D01*
X76487080Y-53174034D01*
X76512830Y-53191239D01*
X76523674Y-53196296D01*
X76530270Y-53202892D01*
X76551154Y-53216846D01*
X76565107Y-53237729D01*
X76571703Y-53244325D01*
X76576758Y-53255167D01*
X76593966Y-53280920D01*
X76597832Y-53300359D01*
X76601591Y-53308419D01*
X76605807Y-53340451D01*
X76609000Y-53356500D01*
X76609000Y-53651500D01*
X76605807Y-53667551D01*
X76601591Y-53699580D01*
X76597833Y-53707638D01*
X76593966Y-53727080D01*
X76576757Y-53752835D01*
X76571703Y-53763674D01*
X76565109Y-53770267D01*
X76551154Y-53791154D01*
X76530267Y-53805109D01*
X76523674Y-53811703D01*
X76512835Y-53816757D01*
X76487080Y-53833966D01*
X76467638Y-53837833D01*
X76459580Y-53841591D01*
X76427550Y-53845807D01*
X76411500Y-53849000D01*
X76066500Y-53849000D01*
X76050449Y-53845807D01*
X76018419Y-53841591D01*
X76010359Y-53837832D01*
X75990920Y-53833966D01*
X75965167Y-53816758D01*
X75954325Y-53811703D01*
X75947729Y-53805107D01*
X75926846Y-53791154D01*
X75912892Y-53770270D01*
X75906296Y-53763674D01*
X75901239Y-53752830D01*
X75884034Y-53727080D01*
X75880167Y-53707642D01*
X75876408Y-53699580D01*
X75872189Y-53667535D01*
X75869000Y-53651500D01*
X75869000Y-53356500D01*
X75872189Y-53340465D01*
X75876408Y-53308419D01*
X75880167Y-53300356D01*
X75884034Y-53280920D01*
X75901237Y-53255172D01*
X75906296Y-53244325D01*
X75912894Y-53237726D01*
X75926846Y-53216846D01*
X75947726Y-53202894D01*
X75954325Y-53196296D01*
X75965172Y-53191237D01*
X75990920Y-53174034D01*
X76010356Y-53170167D01*
X76018419Y-53166408D01*
X76050466Y-53162189D01*
X76066500Y-53159000D01*
X76411500Y-53159000D01*
X76427537Y-53162190D01*
G37*
G36*
X67295037Y-53139190D02*
G01*
X67327080Y-53143408D01*
X67335142Y-53147167D01*
X67354580Y-53151034D01*
X67380330Y-53168239D01*
X67391174Y-53173296D01*
X67397770Y-53179892D01*
X67418654Y-53193846D01*
X67432607Y-53214729D01*
X67439203Y-53221325D01*
X67444258Y-53232167D01*
X67461466Y-53257920D01*
X67465332Y-53277359D01*
X67469091Y-53285419D01*
X67473307Y-53317451D01*
X67476500Y-53333500D01*
X67476500Y-53628500D01*
X67473307Y-53644551D01*
X67469091Y-53676580D01*
X67465333Y-53684638D01*
X67461466Y-53704080D01*
X67444257Y-53729835D01*
X67439203Y-53740674D01*
X67432609Y-53747267D01*
X67418654Y-53768154D01*
X67397767Y-53782109D01*
X67391174Y-53788703D01*
X67380335Y-53793757D01*
X67354580Y-53810966D01*
X67335138Y-53814833D01*
X67327080Y-53818591D01*
X67295050Y-53822807D01*
X67279000Y-53826000D01*
X66934000Y-53826000D01*
X66917949Y-53822807D01*
X66885919Y-53818591D01*
X66877859Y-53814832D01*
X66858420Y-53810966D01*
X66832667Y-53793758D01*
X66821825Y-53788703D01*
X66815229Y-53782107D01*
X66794346Y-53768154D01*
X66780392Y-53747270D01*
X66773796Y-53740674D01*
X66768739Y-53729830D01*
X66751534Y-53704080D01*
X66747667Y-53684642D01*
X66743908Y-53676580D01*
X66739689Y-53644535D01*
X66736500Y-53628500D01*
X66736500Y-53333500D01*
X66739689Y-53317465D01*
X66743908Y-53285419D01*
X66747667Y-53277356D01*
X66751534Y-53257920D01*
X66768737Y-53232172D01*
X66773796Y-53221325D01*
X66780394Y-53214726D01*
X66794346Y-53193846D01*
X66815226Y-53179894D01*
X66821825Y-53173296D01*
X66832672Y-53168237D01*
X66858420Y-53151034D01*
X66877856Y-53147167D01*
X66885919Y-53143408D01*
X66917966Y-53139189D01*
X66934000Y-53136000D01*
X67279000Y-53136000D01*
X67295037Y-53139190D01*
G37*
G36*
X60087691Y-52351646D02*
G01*
X60131817Y-52358635D01*
X60137574Y-52361568D01*
X60152096Y-52364457D01*
X60180524Y-52383452D01*
X60206299Y-52396585D01*
X60218623Y-52408909D01*
X60239285Y-52422715D01*
X60253090Y-52443376D01*
X60265414Y-52455700D01*
X60278545Y-52481472D01*
X60297543Y-52509904D01*
X60300431Y-52524427D01*
X60303364Y-52530182D01*
X60310349Y-52574287D01*
X60318000Y-52612750D01*
X60318000Y-53125250D01*
X60310348Y-53163716D01*
X60303364Y-53207817D01*
X60300432Y-53213571D01*
X60297543Y-53228096D01*
X60278543Y-53256530D01*
X60265414Y-53282299D01*
X60253092Y-53294620D01*
X60239285Y-53315285D01*
X60218620Y-53329092D01*
X60206299Y-53341414D01*
X60180530Y-53354543D01*
X60152096Y-53373543D01*
X60137571Y-53376432D01*
X60131817Y-53379364D01*
X60087716Y-53386348D01*
X60049250Y-53394000D01*
X59611750Y-53394000D01*
X59573287Y-53386349D01*
X59529182Y-53379364D01*
X59523427Y-53376431D01*
X59508904Y-53373543D01*
X59480472Y-53354545D01*
X59454700Y-53341414D01*
X59442376Y-53329090D01*
X59421715Y-53315285D01*
X59407909Y-53294623D01*
X59395585Y-53282299D01*
X59382452Y-53256524D01*
X59363457Y-53228096D01*
X59360568Y-53213574D01*
X59357635Y-53207817D01*
X59350646Y-53163691D01*
X59343000Y-53125250D01*
X59343000Y-52612750D01*
X59350645Y-52574312D01*
X59357635Y-52530182D01*
X59360568Y-52524423D01*
X59363457Y-52509904D01*
X59382450Y-52481478D01*
X59395585Y-52455700D01*
X59407911Y-52443373D01*
X59421715Y-52422715D01*
X59442373Y-52408911D01*
X59454700Y-52396585D01*
X59480478Y-52383450D01*
X59508904Y-52364457D01*
X59523423Y-52361568D01*
X59529182Y-52358635D01*
X59573312Y-52351645D01*
X59611750Y-52344000D01*
X60049250Y-52344000D01*
X60087691Y-52351646D01*
G37*
G36*
X61662691Y-52351646D02*
G01*
X61706817Y-52358635D01*
X61712574Y-52361568D01*
X61727096Y-52364457D01*
X61755524Y-52383452D01*
X61781299Y-52396585D01*
X61793623Y-52408909D01*
X61814285Y-52422715D01*
X61828090Y-52443376D01*
X61840414Y-52455700D01*
X61853545Y-52481472D01*
X61872543Y-52509904D01*
X61875431Y-52524427D01*
X61878364Y-52530182D01*
X61885349Y-52574287D01*
X61893000Y-52612750D01*
X61893000Y-53125250D01*
X61885348Y-53163716D01*
X61878364Y-53207817D01*
X61875432Y-53213571D01*
X61872543Y-53228096D01*
X61853543Y-53256530D01*
X61840414Y-53282299D01*
X61828092Y-53294620D01*
X61814285Y-53315285D01*
X61793620Y-53329092D01*
X61781299Y-53341414D01*
X61755530Y-53354543D01*
X61727096Y-53373543D01*
X61712571Y-53376432D01*
X61706817Y-53379364D01*
X61662716Y-53386348D01*
X61624250Y-53394000D01*
X61186750Y-53394000D01*
X61148287Y-53386349D01*
X61104182Y-53379364D01*
X61098427Y-53376431D01*
X61083904Y-53373543D01*
X61055472Y-53354545D01*
X61029700Y-53341414D01*
X61017376Y-53329090D01*
X60996715Y-53315285D01*
X60982909Y-53294623D01*
X60970585Y-53282299D01*
X60957452Y-53256524D01*
X60938457Y-53228096D01*
X60935568Y-53213574D01*
X60932635Y-53207817D01*
X60925646Y-53163691D01*
X60918000Y-53125250D01*
X60918000Y-52612750D01*
X60925645Y-52574312D01*
X60932635Y-52530182D01*
X60935568Y-52524423D01*
X60938457Y-52509904D01*
X60957450Y-52481478D01*
X60970585Y-52455700D01*
X60982911Y-52443373D01*
X60996715Y-52422715D01*
X61017373Y-52408911D01*
X61029700Y-52396585D01*
X61055478Y-52383450D01*
X61083904Y-52364457D01*
X61098423Y-52361568D01*
X61104182Y-52358635D01*
X61148312Y-52351645D01*
X61186750Y-52344000D01*
X61624250Y-52344000D01*
X61662691Y-52351646D01*
G37*
G36*
X69073037Y-52192190D02*
G01*
X69105080Y-52196408D01*
X69113142Y-52200167D01*
X69132580Y-52204034D01*
X69158330Y-52221239D01*
X69169174Y-52226296D01*
X69175770Y-52232892D01*
X69196654Y-52246846D01*
X69210607Y-52267729D01*
X69217203Y-52274325D01*
X69222258Y-52285167D01*
X69239466Y-52310920D01*
X69243332Y-52330359D01*
X69247091Y-52338419D01*
X69251307Y-52370451D01*
X69254500Y-52386500D01*
X69254500Y-52681500D01*
X69251307Y-52697551D01*
X69247091Y-52729580D01*
X69243333Y-52737638D01*
X69239466Y-52757080D01*
X69222257Y-52782835D01*
X69217203Y-52793674D01*
X69210609Y-52800267D01*
X69196654Y-52821154D01*
X69175767Y-52835109D01*
X69169174Y-52841703D01*
X69158335Y-52846757D01*
X69132580Y-52863966D01*
X69113138Y-52867833D01*
X69105080Y-52871591D01*
X69073050Y-52875807D01*
X69057000Y-52879000D01*
X68712000Y-52879000D01*
X68695949Y-52875807D01*
X68663919Y-52871591D01*
X68655859Y-52867832D01*
X68636420Y-52863966D01*
X68610667Y-52846758D01*
X68599825Y-52841703D01*
X68593229Y-52835107D01*
X68572346Y-52821154D01*
X68558392Y-52800270D01*
X68551796Y-52793674D01*
X68546739Y-52782830D01*
X68529534Y-52757080D01*
X68525667Y-52737642D01*
X68521908Y-52729580D01*
X68517689Y-52697535D01*
X68514500Y-52681500D01*
X68514500Y-52386500D01*
X68517689Y-52370465D01*
X68521908Y-52338419D01*
X68525667Y-52330356D01*
X68529534Y-52310920D01*
X68546737Y-52285172D01*
X68551796Y-52274325D01*
X68558394Y-52267726D01*
X68572346Y-52246846D01*
X68593226Y-52232894D01*
X68599825Y-52226296D01*
X68610672Y-52221237D01*
X68636420Y-52204034D01*
X68655856Y-52200167D01*
X68663919Y-52196408D01*
X68695966Y-52192189D01*
X68712000Y-52189000D01*
X69057000Y-52189000D01*
X69073037Y-52192190D01*
G37*
G36*
X74776537Y-52192190D02*
G01*
X74808580Y-52196408D01*
X74816642Y-52200167D01*
X74836080Y-52204034D01*
X74861830Y-52221239D01*
X74872674Y-52226296D01*
X74879270Y-52232892D01*
X74900154Y-52246846D01*
X74914107Y-52267729D01*
X74920703Y-52274325D01*
X74925758Y-52285167D01*
X74942966Y-52310920D01*
X74946832Y-52330359D01*
X74950591Y-52338419D01*
X74954807Y-52370451D01*
X74958000Y-52386500D01*
X74958000Y-52681500D01*
X74954807Y-52697551D01*
X74950591Y-52729580D01*
X74946833Y-52737638D01*
X74942966Y-52757080D01*
X74925757Y-52782835D01*
X74920703Y-52793674D01*
X74914109Y-52800267D01*
X74900154Y-52821154D01*
X74879267Y-52835109D01*
X74872674Y-52841703D01*
X74861835Y-52846757D01*
X74836080Y-52863966D01*
X74816638Y-52867833D01*
X74808580Y-52871591D01*
X74776550Y-52875807D01*
X74760500Y-52879000D01*
X74415500Y-52879000D01*
X74399449Y-52875807D01*
X74367419Y-52871591D01*
X74359359Y-52867832D01*
X74339920Y-52863966D01*
X74314167Y-52846758D01*
X74303325Y-52841703D01*
X74296729Y-52835107D01*
X74275846Y-52821154D01*
X74261892Y-52800270D01*
X74255296Y-52793674D01*
X74250239Y-52782830D01*
X74233034Y-52757080D01*
X74229167Y-52737642D01*
X74225408Y-52729580D01*
X74221189Y-52697535D01*
X74218000Y-52681500D01*
X74218000Y-52386500D01*
X74221189Y-52370465D01*
X74225408Y-52338419D01*
X74229167Y-52330356D01*
X74233034Y-52310920D01*
X74250237Y-52285172D01*
X74255296Y-52274325D01*
X74261894Y-52267726D01*
X74275846Y-52246846D01*
X74296726Y-52232894D01*
X74303325Y-52226296D01*
X74314172Y-52221237D01*
X74339920Y-52204034D01*
X74359356Y-52200167D01*
X74367419Y-52196408D01*
X74399466Y-52192189D01*
X74415500Y-52189000D01*
X74760500Y-52189000D01*
X74776537Y-52192190D01*
G37*
G36*
X76427537Y-52192190D02*
G01*
X76459580Y-52196408D01*
X76467642Y-52200167D01*
X76487080Y-52204034D01*
X76512830Y-52221239D01*
X76523674Y-52226296D01*
X76530270Y-52232892D01*
X76551154Y-52246846D01*
X76565107Y-52267729D01*
X76571703Y-52274325D01*
X76576758Y-52285167D01*
X76593966Y-52310920D01*
X76597832Y-52330359D01*
X76601591Y-52338419D01*
X76605807Y-52370451D01*
X76609000Y-52386500D01*
X76609000Y-52681500D01*
X76605807Y-52697551D01*
X76601591Y-52729580D01*
X76597833Y-52737638D01*
X76593966Y-52757080D01*
X76576757Y-52782835D01*
X76571703Y-52793674D01*
X76565109Y-52800267D01*
X76551154Y-52821154D01*
X76530267Y-52835109D01*
X76523674Y-52841703D01*
X76512835Y-52846757D01*
X76487080Y-52863966D01*
X76467638Y-52867833D01*
X76459580Y-52871591D01*
X76427550Y-52875807D01*
X76411500Y-52879000D01*
X76066500Y-52879000D01*
X76050449Y-52875807D01*
X76018419Y-52871591D01*
X76010359Y-52867832D01*
X75990920Y-52863966D01*
X75965167Y-52846758D01*
X75954325Y-52841703D01*
X75947729Y-52835107D01*
X75926846Y-52821154D01*
X75912892Y-52800270D01*
X75906296Y-52793674D01*
X75901239Y-52782830D01*
X75884034Y-52757080D01*
X75880167Y-52737642D01*
X75876408Y-52729580D01*
X75872189Y-52697535D01*
X75869000Y-52681500D01*
X75869000Y-52386500D01*
X75872189Y-52370465D01*
X75876408Y-52338419D01*
X75880167Y-52330356D01*
X75884034Y-52310920D01*
X75901237Y-52285172D01*
X75906296Y-52274325D01*
X75912894Y-52267726D01*
X75926846Y-52246846D01*
X75947726Y-52232894D01*
X75954325Y-52226296D01*
X75965172Y-52221237D01*
X75990920Y-52204034D01*
X76010356Y-52200167D01*
X76018419Y-52196408D01*
X76050466Y-52192189D01*
X76066500Y-52189000D01*
X76411500Y-52189000D01*
X76427537Y-52192190D01*
G37*
G36*
X67295037Y-52169190D02*
G01*
X67327080Y-52173408D01*
X67335142Y-52177167D01*
X67354580Y-52181034D01*
X67380330Y-52198239D01*
X67391174Y-52203296D01*
X67397770Y-52209892D01*
X67418654Y-52223846D01*
X67432607Y-52244729D01*
X67439203Y-52251325D01*
X67444258Y-52262167D01*
X67461466Y-52287920D01*
X67465332Y-52307359D01*
X67469091Y-52315419D01*
X67473307Y-52347451D01*
X67476500Y-52363500D01*
X67476500Y-52658500D01*
X67473307Y-52674551D01*
X67469091Y-52706580D01*
X67465333Y-52714638D01*
X67461466Y-52734080D01*
X67444257Y-52759835D01*
X67439203Y-52770674D01*
X67432609Y-52777267D01*
X67418654Y-52798154D01*
X67397767Y-52812109D01*
X67391174Y-52818703D01*
X67380335Y-52823757D01*
X67354580Y-52840966D01*
X67335138Y-52844833D01*
X67327080Y-52848591D01*
X67295050Y-52852807D01*
X67279000Y-52856000D01*
X66934000Y-52856000D01*
X66917949Y-52852807D01*
X66885919Y-52848591D01*
X66877859Y-52844832D01*
X66858420Y-52840966D01*
X66832667Y-52823758D01*
X66821825Y-52818703D01*
X66815229Y-52812107D01*
X66794346Y-52798154D01*
X66780392Y-52777270D01*
X66773796Y-52770674D01*
X66768739Y-52759830D01*
X66751534Y-52734080D01*
X66747667Y-52714642D01*
X66743908Y-52706580D01*
X66739689Y-52674535D01*
X66736500Y-52658500D01*
X66736500Y-52363500D01*
X66739689Y-52347465D01*
X66743908Y-52315419D01*
X66747667Y-52307356D01*
X66751534Y-52287920D01*
X66768737Y-52262172D01*
X66773796Y-52251325D01*
X66780394Y-52244726D01*
X66794346Y-52223846D01*
X66815226Y-52209894D01*
X66821825Y-52203296D01*
X66832672Y-52198237D01*
X66858420Y-52181034D01*
X66877856Y-52177167D01*
X66885919Y-52173408D01*
X66917966Y-52169189D01*
X66934000Y-52166000D01*
X67279000Y-52166000D01*
X67295037Y-52169190D01*
G37*
G36*
X64789134Y-51455806D02*
G01*
X64805355Y-51466645D01*
X64816194Y-51482866D01*
X64820000Y-51502000D01*
X64820000Y-52302000D01*
X64816194Y-52321134D01*
X64805355Y-52337355D01*
X64789134Y-52348194D01*
X64770000Y-52352000D01*
X63070000Y-52352000D01*
X63050866Y-52348194D01*
X63034645Y-52337355D01*
X63023806Y-52321134D01*
X63020000Y-52302000D01*
X63020000Y-51502000D01*
X63023806Y-51482866D01*
X63034645Y-51466645D01*
X63050866Y-51455806D01*
X63070000Y-51452000D01*
X64770000Y-51452000D01*
X64789134Y-51455806D01*
G37*
G36*
X73171134Y-51455806D02*
G01*
X73187355Y-51466645D01*
X73198194Y-51482866D01*
X73202000Y-51502000D01*
X73202000Y-52302000D01*
X73198194Y-52321134D01*
X73187355Y-52337355D01*
X73171134Y-52348194D01*
X73152000Y-52352000D01*
X71452000Y-52352000D01*
X71432866Y-52348194D01*
X71416645Y-52337355D01*
X71405806Y-52321134D01*
X71402000Y-52302000D01*
X71402000Y-51502000D01*
X71405806Y-51482866D01*
X71416645Y-51466645D01*
X71432866Y-51455806D01*
X71452000Y-51452000D01*
X73152000Y-51452000D01*
X73171134Y-51455806D01*
G37*
G36*
X67157634Y-48747806D02*
G01*
X67173855Y-48758645D01*
X67184694Y-48774866D01*
X67188500Y-48794000D01*
X67188500Y-50594000D01*
X67184694Y-50613134D01*
X67173855Y-50629355D01*
X67157634Y-50640194D01*
X67138500Y-50644000D01*
X66138500Y-50644000D01*
X66119366Y-50640194D01*
X66103145Y-50629355D01*
X66092306Y-50613134D01*
X66088500Y-50594000D01*
X66088500Y-48794000D01*
X66092306Y-48774866D01*
X66103145Y-48758645D01*
X66119366Y-48747806D01*
X66138500Y-48744000D01*
X67138500Y-48744000D01*
X67157634Y-48747806D01*
G37*
G36*
X69657634Y-48747806D02*
G01*
X69673855Y-48758645D01*
X69684694Y-48774866D01*
X69688500Y-48794000D01*
X69688500Y-50594000D01*
X69684694Y-50613134D01*
X69673855Y-50629355D01*
X69657634Y-50640194D01*
X69638500Y-50644000D01*
X68638500Y-50644000D01*
X68619366Y-50640194D01*
X68603145Y-50629355D01*
X68592306Y-50613134D01*
X68588500Y-50594000D01*
X68588500Y-48794000D01*
X68592306Y-48774866D01*
X68603145Y-48758645D01*
X68619366Y-48747806D01*
X68638500Y-48744000D01*
X69638500Y-48744000D01*
X69657634Y-48747806D01*
G37*
G36*
X61058536Y-49835189D02*
G01*
X61090580Y-49839408D01*
X61098642Y-49843167D01*
X61118080Y-49847034D01*
X61143830Y-49864239D01*
X61154674Y-49869296D01*
X61161270Y-49875892D01*
X61182154Y-49889846D01*
X61196107Y-49910729D01*
X61202703Y-49917325D01*
X61207758Y-49928167D01*
X61224966Y-49953920D01*
X61228832Y-49973359D01*
X61232591Y-49981419D01*
X61236807Y-50013451D01*
X61240000Y-50029500D01*
X61240000Y-50374500D01*
X61236806Y-50390552D01*
X61232591Y-50422580D01*
X61228833Y-50430638D01*
X61224966Y-50450080D01*
X61207757Y-50475835D01*
X61202703Y-50486674D01*
X61196109Y-50493267D01*
X61182154Y-50514154D01*
X61161267Y-50528109D01*
X61154674Y-50534703D01*
X61143835Y-50539757D01*
X61118080Y-50556966D01*
X61098638Y-50560833D01*
X61090580Y-50564591D01*
X61058550Y-50568807D01*
X61042500Y-50572000D01*
X60747500Y-50572000D01*
X60731450Y-50568807D01*
X60699419Y-50564591D01*
X60691359Y-50560832D01*
X60671920Y-50556966D01*
X60646167Y-50539758D01*
X60635325Y-50534703D01*
X60628729Y-50528107D01*
X60607846Y-50514154D01*
X60593892Y-50493270D01*
X60587296Y-50486674D01*
X60582239Y-50475830D01*
X60565034Y-50450080D01*
X60561167Y-50430642D01*
X60557408Y-50422580D01*
X60553189Y-50390535D01*
X60550000Y-50374500D01*
X60550000Y-50029500D01*
X60553189Y-50013464D01*
X60557408Y-49981419D01*
X60561167Y-49973356D01*
X60565034Y-49953920D01*
X60582237Y-49928172D01*
X60587296Y-49917325D01*
X60593894Y-49910726D01*
X60607846Y-49889846D01*
X60628726Y-49875894D01*
X60635325Y-49869296D01*
X60646172Y-49864237D01*
X60671920Y-49847034D01*
X60691356Y-49843167D01*
X60699419Y-49839408D01*
X60731466Y-49835189D01*
X60747500Y-49832000D01*
X61042500Y-49832000D01*
X61058536Y-49835189D01*
G37*
G36*
X62028536Y-49835189D02*
G01*
X62060580Y-49839408D01*
X62068642Y-49843167D01*
X62088080Y-49847034D01*
X62113830Y-49864239D01*
X62124674Y-49869296D01*
X62131270Y-49875892D01*
X62152154Y-49889846D01*
X62166107Y-49910729D01*
X62172703Y-49917325D01*
X62177758Y-49928167D01*
X62194966Y-49953920D01*
X62198832Y-49973359D01*
X62202591Y-49981419D01*
X62206807Y-50013451D01*
X62210000Y-50029500D01*
X62210000Y-50374500D01*
X62206806Y-50390552D01*
X62202591Y-50422580D01*
X62198833Y-50430638D01*
X62194966Y-50450080D01*
X62177757Y-50475835D01*
X62172703Y-50486674D01*
X62166109Y-50493267D01*
X62152154Y-50514154D01*
X62131267Y-50528109D01*
X62124674Y-50534703D01*
X62113835Y-50539757D01*
X62088080Y-50556966D01*
X62068638Y-50560833D01*
X62060580Y-50564591D01*
X62028550Y-50568807D01*
X62012500Y-50572000D01*
X61717500Y-50572000D01*
X61701450Y-50568807D01*
X61669419Y-50564591D01*
X61661359Y-50560832D01*
X61641920Y-50556966D01*
X61616167Y-50539758D01*
X61605325Y-50534703D01*
X61598729Y-50528107D01*
X61577846Y-50514154D01*
X61563892Y-50493270D01*
X61557296Y-50486674D01*
X61552239Y-50475830D01*
X61535034Y-50450080D01*
X61531167Y-50430642D01*
X61527408Y-50422580D01*
X61523189Y-50390535D01*
X61520000Y-50374500D01*
X61520000Y-50029500D01*
X61523189Y-50013464D01*
X61527408Y-49981419D01*
X61531167Y-49973356D01*
X61535034Y-49953920D01*
X61552237Y-49928172D01*
X61557296Y-49917325D01*
X61563894Y-49910726D01*
X61577846Y-49889846D01*
X61598726Y-49875894D01*
X61605325Y-49869296D01*
X61616172Y-49864237D01*
X61641920Y-49847034D01*
X61661356Y-49843167D01*
X61669419Y-49839408D01*
X61701466Y-49835189D01*
X61717500Y-49832000D01*
X62012500Y-49832000D01*
X62028536Y-49835189D01*
G37*
G36*
X64789134Y-48055806D02*
G01*
X64805355Y-48066645D01*
X64816194Y-48082866D01*
X64820000Y-48102000D01*
X64820000Y-48902000D01*
X64816194Y-48921134D01*
X64805355Y-48937355D01*
X64789134Y-48948194D01*
X64770000Y-48952000D01*
X63070000Y-48952000D01*
X63050866Y-48948194D01*
X63034645Y-48937355D01*
X63023806Y-48921134D01*
X63020000Y-48902000D01*
X63020000Y-48102000D01*
X63023806Y-48082866D01*
X63034645Y-48066645D01*
X63050866Y-48055806D01*
X63070000Y-48052000D01*
X64770000Y-48052000D01*
X64789134Y-48055806D01*
G37*
G36*
X73171134Y-48055806D02*
G01*
X73187355Y-48066645D01*
X73198194Y-48082866D01*
X73202000Y-48102000D01*
X73202000Y-48902000D01*
X73198194Y-48921134D01*
X73187355Y-48937355D01*
X73171134Y-48948194D01*
X73152000Y-48952000D01*
X71452000Y-48952000D01*
X71432866Y-48948194D01*
X71416645Y-48937355D01*
X71405806Y-48921134D01*
X71402000Y-48902000D01*
X71402000Y-48102000D01*
X71405806Y-48082866D01*
X71416645Y-48066645D01*
X71432866Y-48055806D01*
X71452000Y-48052000D01*
X73152000Y-48052000D01*
X73171134Y-48055806D01*
G37*
G36*
X63047134Y-44526356D02*
G01*
X63063355Y-44537195D01*
X63074194Y-44553416D01*
X63075418Y-44559571D01*
X63096187Y-44590653D01*
X63229813Y-44590653D01*
X63250581Y-44559569D01*
X63251806Y-44553416D01*
X63262645Y-44537195D01*
X63278866Y-44526356D01*
X63298000Y-44522550D01*
X64298000Y-44522550D01*
X64317134Y-44526356D01*
X64333355Y-44537195D01*
X64344194Y-44553416D01*
X64345418Y-44559571D01*
X64366187Y-44590653D01*
X64499813Y-44590653D01*
X64520581Y-44559569D01*
X64521806Y-44553416D01*
X64532645Y-44537195D01*
X64548866Y-44526356D01*
X64568000Y-44522550D01*
X65568000Y-44522550D01*
X65587134Y-44526356D01*
X65603355Y-44537195D01*
X65614194Y-44553416D01*
X65615418Y-44559571D01*
X65636187Y-44590653D01*
X65769813Y-44590653D01*
X65790581Y-44559569D01*
X65791806Y-44553416D01*
X65802645Y-44537195D01*
X65818866Y-44526356D01*
X65838000Y-44522550D01*
X66838000Y-44522550D01*
X66857134Y-44526356D01*
X66873355Y-44537195D01*
X66884194Y-44553416D01*
X66885418Y-44559571D01*
X66906187Y-44590653D01*
X67039813Y-44590653D01*
X67060581Y-44559569D01*
X67061806Y-44553416D01*
X67072645Y-44537195D01*
X67088866Y-44526356D01*
X67108000Y-44522550D01*
X68108000Y-44522550D01*
X68127134Y-44526356D01*
X68143355Y-44537195D01*
X68154194Y-44553416D01*
X68155418Y-44559571D01*
X68176187Y-44590653D01*
X68309813Y-44590653D01*
X68330581Y-44559569D01*
X68331806Y-44553416D01*
X68342645Y-44537195D01*
X68358866Y-44526356D01*
X68378000Y-44522550D01*
X69378000Y-44522550D01*
X69397134Y-44526356D01*
X69413355Y-44537195D01*
X69424194Y-44553416D01*
X69425418Y-44559571D01*
X69446187Y-44590653D01*
X69579813Y-44590653D01*
X69600581Y-44559569D01*
X69601806Y-44553416D01*
X69612645Y-44537195D01*
X69628866Y-44526356D01*
X69648000Y-44522550D01*
X70648000Y-44522550D01*
X70667134Y-44526356D01*
X70683355Y-44537195D01*
X70694194Y-44553416D01*
X70695418Y-44559571D01*
X70716187Y-44590653D01*
X70849813Y-44590653D01*
X70870581Y-44559569D01*
X70871806Y-44553416D01*
X70882645Y-44537195D01*
X70898866Y-44526356D01*
X70918000Y-44522550D01*
X71918000Y-44522550D01*
X71937134Y-44526356D01*
X71953355Y-44537195D01*
X71964194Y-44553416D01*
X71968000Y-44572550D01*
X71968000Y-46572550D01*
X71964194Y-46591684D01*
X71953355Y-46607905D01*
X71937134Y-46618744D01*
X71918000Y-46622550D01*
X70918000Y-46622550D01*
X70898866Y-46618744D01*
X70882645Y-46607905D01*
X70871806Y-46591684D01*
X70870581Y-46585526D01*
X70849815Y-46554446D01*
X70716185Y-46554446D01*
X70695419Y-46585525D01*
X70694194Y-46591684D01*
X70683355Y-46607905D01*
X70667134Y-46618744D01*
X70648000Y-46622550D01*
X69648000Y-46622550D01*
X69628866Y-46618744D01*
X69612645Y-46607905D01*
X69601806Y-46591684D01*
X69600581Y-46585526D01*
X69579815Y-46554446D01*
X69446185Y-46554446D01*
X69425419Y-46585525D01*
X69424194Y-46591684D01*
X69413355Y-46607905D01*
X69397134Y-46618744D01*
X69378000Y-46622550D01*
X68378000Y-46622550D01*
X68358866Y-46618744D01*
X68342645Y-46607905D01*
X68331806Y-46591684D01*
X68330581Y-46585526D01*
X68309815Y-46554446D01*
X68176185Y-46554446D01*
X68155419Y-46585525D01*
X68154194Y-46591684D01*
X68143355Y-46607905D01*
X68127134Y-46618744D01*
X68108000Y-46622550D01*
X67108000Y-46622550D01*
X67088866Y-46618744D01*
X67072645Y-46607905D01*
X67061806Y-46591684D01*
X67060581Y-46585526D01*
X67039815Y-46554446D01*
X66906185Y-46554446D01*
X66885419Y-46585525D01*
X66884194Y-46591684D01*
X66873355Y-46607905D01*
X66857134Y-46618744D01*
X66838000Y-46622550D01*
X65838000Y-46622550D01*
X65818866Y-46618744D01*
X65802645Y-46607905D01*
X65791806Y-46591684D01*
X65790581Y-46585526D01*
X65769815Y-46554446D01*
X65636185Y-46554446D01*
X65615419Y-46585525D01*
X65614194Y-46591684D01*
X65603355Y-46607905D01*
X65587134Y-46618744D01*
X65568000Y-46622550D01*
X64568000Y-46622550D01*
X64548866Y-46618744D01*
X64532645Y-46607905D01*
X64521806Y-46591684D01*
X64520581Y-46585526D01*
X64499815Y-46554446D01*
X64366185Y-46554446D01*
X64345419Y-46585525D01*
X64344194Y-46591684D01*
X64333355Y-46607905D01*
X64317134Y-46618744D01*
X64298000Y-46622550D01*
X63298000Y-46622550D01*
X63278866Y-46618744D01*
X63262645Y-46607905D01*
X63251806Y-46591684D01*
X63250581Y-46585526D01*
X63229815Y-46554446D01*
X63096185Y-46554446D01*
X63075419Y-46585525D01*
X63074194Y-46591684D01*
X63063355Y-46607905D01*
X63047134Y-46618744D01*
X63028000Y-46622550D01*
X62028000Y-46622550D01*
X62008866Y-46618744D01*
X61992645Y-46607905D01*
X61981806Y-46591684D01*
X61978000Y-46572550D01*
X61978000Y-44572550D01*
X61981806Y-44553416D01*
X61992645Y-44537195D01*
X62008866Y-44526356D01*
X62028000Y-44522550D01*
X63028000Y-44522550D01*
X63047134Y-44526356D01*
G37*
G36*
X77419386Y-43824922D02*
G01*
X77448184Y-43824922D01*
X77481204Y-43833060D01*
X77524350Y-43838741D01*
X77553884Y-43850974D01*
X77576708Y-43856600D01*
X77611311Y-43874761D01*
X77657000Y-43893686D01*
X77677845Y-43909680D01*
X77693913Y-43918114D01*
X77726765Y-43947218D01*
X77770909Y-43981091D01*
X77783454Y-43997440D01*
X77792993Y-44005891D01*
X77820349Y-44045523D01*
X77858314Y-44095000D01*
X77864035Y-44108813D01*
X77868188Y-44114829D01*
X77886204Y-44162334D01*
X77913259Y-44227650D01*
X77914473Y-44236871D01*
X77915126Y-44238593D01*
X77920181Y-44280233D01*
X77932000Y-44370000D01*
X77920180Y-44459774D01*
X77915126Y-44501406D01*
X77914473Y-44503127D01*
X77913259Y-44512350D01*
X77886200Y-44577676D01*
X77868188Y-44625170D01*
X77864036Y-44631184D01*
X77858314Y-44645000D01*
X77820342Y-44694485D01*
X77792993Y-44734108D01*
X77783456Y-44742556D01*
X77770909Y-44758909D01*
X77726756Y-44792787D01*
X77693913Y-44821885D01*
X77677849Y-44830315D01*
X77657000Y-44846314D01*
X77611302Y-44865242D01*
X77576708Y-44883399D01*
X77553889Y-44889023D01*
X77524350Y-44901259D01*
X77481201Y-44906939D01*
X77448184Y-44915078D01*
X77419386Y-44915078D01*
X77382000Y-44920000D01*
X77344614Y-44915078D01*
X77315816Y-44915078D01*
X77282797Y-44906939D01*
X77239650Y-44901259D01*
X77210111Y-44889023D01*
X77187291Y-44883399D01*
X77152692Y-44865240D01*
X77107000Y-44846314D01*
X77086153Y-44830317D01*
X77070086Y-44821885D01*
X77037235Y-44792782D01*
X76993091Y-44758909D01*
X76980545Y-44742559D01*
X76971006Y-44734108D01*
X76943647Y-44694472D01*
X76905686Y-44645000D01*
X76899964Y-44631187D01*
X76895811Y-44625170D01*
X76877787Y-44577647D01*
X76850741Y-44512350D01*
X76849527Y-44503131D01*
X76848873Y-44501406D01*
X76843806Y-44459676D01*
X76832000Y-44370000D01*
X76843805Y-44280331D01*
X76848873Y-44238593D01*
X76849527Y-44236867D01*
X76850741Y-44227650D01*
X76877783Y-44162363D01*
X76895811Y-44114829D01*
X76899965Y-44108809D01*
X76905686Y-44095000D01*
X76943640Y-44045536D01*
X76971006Y-44005891D01*
X76980547Y-43997437D01*
X76993091Y-43981091D01*
X77037227Y-43947224D01*
X77070086Y-43918114D01*
X77086157Y-43909679D01*
X77107000Y-43893686D01*
X77152683Y-43874763D01*
X77187291Y-43856600D01*
X77210116Y-43850974D01*
X77239650Y-43838741D01*
X77282795Y-43833060D01*
X77315816Y-43824922D01*
X77344614Y-43824922D01*
X77382000Y-43820000D01*
X77419386Y-43824922D01*
G37*
G36*
X63627134Y-42976356D02*
G01*
X63643355Y-42987195D01*
X63654194Y-43003416D01*
X63658000Y-43022550D01*
X63658000Y-43922550D01*
X63654194Y-43941684D01*
X63643355Y-43957905D01*
X63627134Y-43968744D01*
X63608000Y-43972550D01*
X62708000Y-43972550D01*
X62688866Y-43968744D01*
X62672645Y-43957905D01*
X62661806Y-43941684D01*
X62658000Y-43922550D01*
X62658000Y-43022550D01*
X62661806Y-43003416D01*
X62672645Y-42987195D01*
X62688866Y-42976356D01*
X62708000Y-42972550D01*
X63608000Y-42972550D01*
X63627134Y-42976356D01*
G37*
G36*
X64897134Y-42976356D02*
G01*
X64913355Y-42987195D01*
X64924194Y-43003416D01*
X64928000Y-43022550D01*
X64928000Y-43922550D01*
X64924194Y-43941684D01*
X64913355Y-43957905D01*
X64897134Y-43968744D01*
X64878000Y-43972550D01*
X63978000Y-43972550D01*
X63958866Y-43968744D01*
X63942645Y-43957905D01*
X63931806Y-43941684D01*
X63928000Y-43922550D01*
X63928000Y-43022550D01*
X63931806Y-43003416D01*
X63942645Y-42987195D01*
X63958866Y-42976356D01*
X63978000Y-42972550D01*
X64878000Y-42972550D01*
X64897134Y-42976356D01*
G37*
G36*
X66167134Y-42976356D02*
G01*
X66183355Y-42987195D01*
X66194194Y-43003416D01*
X66198000Y-43022550D01*
X66198000Y-43922550D01*
X66194194Y-43941684D01*
X66183355Y-43957905D01*
X66167134Y-43968744D01*
X66148000Y-43972550D01*
X65248000Y-43972550D01*
X65228866Y-43968744D01*
X65212645Y-43957905D01*
X65201806Y-43941684D01*
X65198000Y-43922550D01*
X65198000Y-43022550D01*
X65201806Y-43003416D01*
X65212645Y-42987195D01*
X65228866Y-42976356D01*
X65248000Y-42972550D01*
X66148000Y-42972550D01*
X66167134Y-42976356D01*
G37*
G36*
X67437134Y-42976356D02*
G01*
X67453355Y-42987195D01*
X67464194Y-43003416D01*
X67468000Y-43022550D01*
X67468000Y-43922550D01*
X67464194Y-43941684D01*
X67453355Y-43957905D01*
X67437134Y-43968744D01*
X67418000Y-43972550D01*
X66518000Y-43972550D01*
X66498866Y-43968744D01*
X66482645Y-43957905D01*
X66471806Y-43941684D01*
X66468000Y-43922550D01*
X66468000Y-43022550D01*
X66471806Y-43003416D01*
X66482645Y-42987195D01*
X66498866Y-42976356D01*
X66518000Y-42972550D01*
X67418000Y-42972550D01*
X67437134Y-42976356D01*
G37*
G36*
X68707134Y-42976356D02*
G01*
X68723355Y-42987195D01*
X68734194Y-43003416D01*
X68738000Y-43022550D01*
X68738000Y-43922550D01*
X68734194Y-43941684D01*
X68723355Y-43957905D01*
X68707134Y-43968744D01*
X68688000Y-43972550D01*
X67788000Y-43972550D01*
X67768866Y-43968744D01*
X67752645Y-43957905D01*
X67741806Y-43941684D01*
X67738000Y-43922550D01*
X67738000Y-43022550D01*
X67741806Y-43003416D01*
X67752645Y-42987195D01*
X67768866Y-42976356D01*
X67788000Y-42972550D01*
X68688000Y-42972550D01*
X68707134Y-42976356D01*
G37*
G36*
X69977134Y-42976356D02*
G01*
X69993355Y-42987195D01*
X70004194Y-43003416D01*
X70008000Y-43022550D01*
X70008000Y-43922550D01*
X70004194Y-43941684D01*
X69993355Y-43957905D01*
X69977134Y-43968744D01*
X69958000Y-43972550D01*
X69058000Y-43972550D01*
X69038866Y-43968744D01*
X69022645Y-43957905D01*
X69011806Y-43941684D01*
X69008000Y-43922550D01*
X69008000Y-43022550D01*
X69011806Y-43003416D01*
X69022645Y-42987195D01*
X69038866Y-42976356D01*
X69058000Y-42972550D01*
X69958000Y-42972550D01*
X69977134Y-42976356D01*
G37*
G36*
X71247134Y-42976356D02*
G01*
X71263355Y-42987195D01*
X71274194Y-43003416D01*
X71278000Y-43022550D01*
X71278000Y-43922550D01*
X71274194Y-43941684D01*
X71263355Y-43957905D01*
X71247134Y-43968744D01*
X71228000Y-43972550D01*
X70328000Y-43972550D01*
X70308866Y-43968744D01*
X70292645Y-43957905D01*
X70281806Y-43941684D01*
X70278000Y-43922550D01*
X70278000Y-43022550D01*
X70281806Y-43003416D01*
X70292645Y-42987195D01*
X70308866Y-42976356D01*
X70328000Y-42972550D01*
X71228000Y-42972550D01*
X71247134Y-42976356D01*
G37*
G36*
X61487134Y-30996356D02*
G01*
X61503355Y-31007195D01*
X61514194Y-31023416D01*
X61518000Y-31042550D01*
X61518000Y-32042550D01*
X61514194Y-32061684D01*
X61503355Y-32077905D01*
X61487134Y-32088744D01*
X61480975Y-32089969D01*
X61449896Y-32110735D01*
X61449896Y-32244365D01*
X61480976Y-32265131D01*
X61487134Y-32266356D01*
X61503355Y-32277195D01*
X61514194Y-32293416D01*
X61518000Y-32312550D01*
X61518000Y-33312550D01*
X61514194Y-33331684D01*
X61503355Y-33347905D01*
X61487134Y-33358744D01*
X61480975Y-33359969D01*
X61449896Y-33380735D01*
X61449896Y-33514365D01*
X61480976Y-33535131D01*
X61487134Y-33536356D01*
X61503355Y-33547195D01*
X61514194Y-33563416D01*
X61518000Y-33582550D01*
X61518000Y-34582550D01*
X61514194Y-34601684D01*
X61503355Y-34617905D01*
X61487134Y-34628744D01*
X61480975Y-34629969D01*
X61449896Y-34650735D01*
X61449896Y-34784365D01*
X61480976Y-34805131D01*
X61487134Y-34806356D01*
X61503355Y-34817195D01*
X61514194Y-34833416D01*
X61518000Y-34852550D01*
X61518000Y-35852550D01*
X61514194Y-35871684D01*
X61503355Y-35887905D01*
X61487134Y-35898744D01*
X61480975Y-35899969D01*
X61449896Y-35920735D01*
X61449896Y-36054365D01*
X61480976Y-36075131D01*
X61487134Y-36076356D01*
X61503355Y-36087195D01*
X61514194Y-36103416D01*
X61518000Y-36122550D01*
X61518000Y-37122550D01*
X61514194Y-37141684D01*
X61503355Y-37157905D01*
X61487134Y-37168744D01*
X61480975Y-37169969D01*
X61449896Y-37190735D01*
X61449896Y-37324365D01*
X61480976Y-37345131D01*
X61487134Y-37346356D01*
X61503355Y-37357195D01*
X61514194Y-37373416D01*
X61518000Y-37392550D01*
X61518000Y-38392550D01*
X61514194Y-38411684D01*
X61503355Y-38427905D01*
X61487134Y-38438744D01*
X61480975Y-38439969D01*
X61449896Y-38460735D01*
X61449896Y-38594365D01*
X61480976Y-38615131D01*
X61487134Y-38616356D01*
X61503355Y-38627195D01*
X61514194Y-38643416D01*
X61518000Y-38662550D01*
X61518000Y-39662550D01*
X61514194Y-39681684D01*
X61503355Y-39697905D01*
X61487134Y-39708744D01*
X61480975Y-39709969D01*
X61449896Y-39730735D01*
X61449896Y-39864365D01*
X61480976Y-39885131D01*
X61487134Y-39886356D01*
X61503355Y-39897195D01*
X61514194Y-39913416D01*
X61518000Y-39932550D01*
X61518000Y-40932550D01*
X61514194Y-40951684D01*
X61503355Y-40967905D01*
X61487134Y-40978744D01*
X61480975Y-40979969D01*
X61449896Y-41000735D01*
X61449896Y-41134365D01*
X61480976Y-41155131D01*
X61487134Y-41156356D01*
X61503355Y-41167195D01*
X61514194Y-41183416D01*
X61518000Y-41202550D01*
X61518000Y-42202550D01*
X61514194Y-42221684D01*
X61503355Y-42237905D01*
X61487134Y-42248744D01*
X61480975Y-42249969D01*
X61449896Y-42270735D01*
X61449896Y-42404365D01*
X61480976Y-42425131D01*
X61487134Y-42426356D01*
X61503355Y-42437195D01*
X61514194Y-42453416D01*
X61518000Y-42472550D01*
X61518000Y-43472550D01*
X61514194Y-43491684D01*
X61503355Y-43507905D01*
X61487134Y-43518744D01*
X61468000Y-43522550D01*
X59468000Y-43522550D01*
X59448866Y-43518744D01*
X59432645Y-43507905D01*
X59421806Y-43491684D01*
X59418000Y-43472550D01*
X59418000Y-42472550D01*
X59421806Y-42453416D01*
X59432645Y-42437195D01*
X59448866Y-42426356D01*
X59455019Y-42425131D01*
X59486103Y-42404363D01*
X59486103Y-42270737D01*
X59455021Y-42249968D01*
X59448866Y-42248744D01*
X59432645Y-42237905D01*
X59421806Y-42221684D01*
X59418000Y-42202550D01*
X59418000Y-41202550D01*
X59421806Y-41183416D01*
X59432645Y-41167195D01*
X59448866Y-41156356D01*
X59455019Y-41155131D01*
X59486103Y-41134363D01*
X59486103Y-41000737D01*
X59455021Y-40979968D01*
X59448866Y-40978744D01*
X59432645Y-40967905D01*
X59421806Y-40951684D01*
X59418000Y-40932550D01*
X59418000Y-39932550D01*
X59421806Y-39913416D01*
X59432645Y-39897195D01*
X59448866Y-39886356D01*
X59455019Y-39885131D01*
X59486103Y-39864363D01*
X59486103Y-39730737D01*
X59455021Y-39709968D01*
X59448866Y-39708744D01*
X59432645Y-39697905D01*
X59421806Y-39681684D01*
X59418000Y-39662550D01*
X59418000Y-38662550D01*
X59421806Y-38643416D01*
X59432645Y-38627195D01*
X59448866Y-38616356D01*
X59455019Y-38615131D01*
X59486103Y-38594363D01*
X59486103Y-38460737D01*
X59455021Y-38439968D01*
X59448866Y-38438744D01*
X59432645Y-38427905D01*
X59421806Y-38411684D01*
X59418000Y-38392550D01*
X59418000Y-37392550D01*
X59421806Y-37373416D01*
X59432645Y-37357195D01*
X59448866Y-37346356D01*
X59455019Y-37345131D01*
X59486103Y-37324363D01*
X59486103Y-37190737D01*
X59455021Y-37169968D01*
X59448866Y-37168744D01*
X59432645Y-37157905D01*
X59421806Y-37141684D01*
X59418000Y-37122550D01*
X59418000Y-36122550D01*
X59421806Y-36103416D01*
X59432645Y-36087195D01*
X59448866Y-36076356D01*
X59455019Y-36075131D01*
X59486103Y-36054363D01*
X59486103Y-35920737D01*
X59455021Y-35899968D01*
X59448866Y-35898744D01*
X59432645Y-35887905D01*
X59421806Y-35871684D01*
X59418000Y-35852550D01*
X59418000Y-34852550D01*
X59421806Y-34833416D01*
X59432645Y-34817195D01*
X59448866Y-34806356D01*
X59455019Y-34805131D01*
X59486103Y-34784363D01*
X59486103Y-34650737D01*
X59455021Y-34629968D01*
X59448866Y-34628744D01*
X59432645Y-34617905D01*
X59421806Y-34601684D01*
X59418000Y-34582550D01*
X59418000Y-33582550D01*
X59421806Y-33563416D01*
X59432645Y-33547195D01*
X59448866Y-33536356D01*
X59455019Y-33535131D01*
X59486103Y-33514363D01*
X59486103Y-33380737D01*
X59455021Y-33359968D01*
X59448866Y-33358744D01*
X59432645Y-33347905D01*
X59421806Y-33331684D01*
X59418000Y-33312550D01*
X59418000Y-32312550D01*
X59421806Y-32293416D01*
X59432645Y-32277195D01*
X59448866Y-32266356D01*
X59455019Y-32265131D01*
X59486103Y-32244363D01*
X59486103Y-32110737D01*
X59455021Y-32089968D01*
X59448866Y-32088744D01*
X59432645Y-32077905D01*
X59421806Y-32061684D01*
X59418000Y-32042550D01*
X59418000Y-31042550D01*
X59421806Y-31023416D01*
X59432645Y-31007195D01*
X59448866Y-30996356D01*
X59468000Y-30992550D01*
X61468000Y-30992550D01*
X61487134Y-30996356D01*
G37*
G36*
X74487134Y-30996356D02*
G01*
X74503355Y-31007195D01*
X74514194Y-31023416D01*
X74518000Y-31042550D01*
X74518000Y-32042550D01*
X74514194Y-32061684D01*
X74503355Y-32077905D01*
X74487134Y-32088744D01*
X74480975Y-32089969D01*
X74449896Y-32110735D01*
X74449896Y-32244365D01*
X74480976Y-32265131D01*
X74487134Y-32266356D01*
X74503355Y-32277195D01*
X74514194Y-32293416D01*
X74518000Y-32312550D01*
X74518000Y-33312550D01*
X74514194Y-33331684D01*
X74503355Y-33347905D01*
X74487134Y-33358744D01*
X74480975Y-33359969D01*
X74449896Y-33380735D01*
X74449896Y-33514365D01*
X74480976Y-33535131D01*
X74487134Y-33536356D01*
X74503355Y-33547195D01*
X74514194Y-33563416D01*
X74518000Y-33582550D01*
X74518000Y-34582550D01*
X74514194Y-34601684D01*
X74503355Y-34617905D01*
X74487134Y-34628744D01*
X74480975Y-34629969D01*
X74449896Y-34650735D01*
X74449896Y-34784365D01*
X74480976Y-34805131D01*
X74487134Y-34806356D01*
X74503355Y-34817195D01*
X74514194Y-34833416D01*
X74518000Y-34852550D01*
X74518000Y-35852550D01*
X74514194Y-35871684D01*
X74503355Y-35887905D01*
X74487134Y-35898744D01*
X74480975Y-35899969D01*
X74449896Y-35920735D01*
X74449896Y-36054365D01*
X74480976Y-36075131D01*
X74487134Y-36076356D01*
X74503355Y-36087195D01*
X74514194Y-36103416D01*
X74518000Y-36122550D01*
X74518000Y-37122550D01*
X74514194Y-37141684D01*
X74503355Y-37157905D01*
X74487134Y-37168744D01*
X74480975Y-37169969D01*
X74449896Y-37190735D01*
X74449896Y-37324365D01*
X74480976Y-37345131D01*
X74487134Y-37346356D01*
X74503355Y-37357195D01*
X74514194Y-37373416D01*
X74518000Y-37392550D01*
X74518000Y-38392550D01*
X74514194Y-38411684D01*
X74503355Y-38427905D01*
X74487134Y-38438744D01*
X74480975Y-38439969D01*
X74449896Y-38460735D01*
X74449896Y-38594365D01*
X74480976Y-38615131D01*
X74487134Y-38616356D01*
X74503355Y-38627195D01*
X74514194Y-38643416D01*
X74518000Y-38662550D01*
X74518000Y-39662550D01*
X74514194Y-39681684D01*
X74503355Y-39697905D01*
X74487134Y-39708744D01*
X74480975Y-39709969D01*
X74449896Y-39730735D01*
X74449896Y-39864365D01*
X74480976Y-39885131D01*
X74487134Y-39886356D01*
X74503355Y-39897195D01*
X74514194Y-39913416D01*
X74518000Y-39932550D01*
X74518000Y-40932550D01*
X74514194Y-40951684D01*
X74503355Y-40967905D01*
X74487134Y-40978744D01*
X74480975Y-40979969D01*
X74449896Y-41000735D01*
X74449896Y-41134365D01*
X74480976Y-41155131D01*
X74487134Y-41156356D01*
X74503355Y-41167195D01*
X74514194Y-41183416D01*
X74518000Y-41202550D01*
X74518000Y-42202550D01*
X74514194Y-42221684D01*
X74503355Y-42237905D01*
X74487134Y-42248744D01*
X74480975Y-42249969D01*
X74449896Y-42270735D01*
X74449896Y-42404365D01*
X74480976Y-42425131D01*
X74487134Y-42426356D01*
X74503355Y-42437195D01*
X74514194Y-42453416D01*
X74518000Y-42472550D01*
X74518000Y-43472550D01*
X74514194Y-43491684D01*
X74503355Y-43507905D01*
X74487134Y-43518744D01*
X74468000Y-43522550D01*
X72468000Y-43522550D01*
X72448866Y-43518744D01*
X72432645Y-43507905D01*
X72421806Y-43491684D01*
X72418000Y-43472550D01*
X72418000Y-42472550D01*
X72421806Y-42453416D01*
X72432645Y-42437195D01*
X72448866Y-42426356D01*
X72455019Y-42425131D01*
X72486103Y-42404363D01*
X72486103Y-42270737D01*
X72455021Y-42249968D01*
X72448866Y-42248744D01*
X72432645Y-42237905D01*
X72421806Y-42221684D01*
X72418000Y-42202550D01*
X72418000Y-41202550D01*
X72421806Y-41183416D01*
X72432645Y-41167195D01*
X72448866Y-41156356D01*
X72455019Y-41155131D01*
X72486103Y-41134363D01*
X72486103Y-41000737D01*
X72455021Y-40979968D01*
X72448866Y-40978744D01*
X72432645Y-40967905D01*
X72421806Y-40951684D01*
X72418000Y-40932550D01*
X72418000Y-39932550D01*
X72421806Y-39913416D01*
X72432645Y-39897195D01*
X72448866Y-39886356D01*
X72455019Y-39885131D01*
X72486103Y-39864363D01*
X72486103Y-39730737D01*
X72455021Y-39709968D01*
X72448866Y-39708744D01*
X72432645Y-39697905D01*
X72421806Y-39681684D01*
X72418000Y-39662550D01*
X72418000Y-38662550D01*
X72421806Y-38643416D01*
X72432645Y-38627195D01*
X72448866Y-38616356D01*
X72455019Y-38615131D01*
X72486103Y-38594363D01*
X72486103Y-38460737D01*
X72455021Y-38439968D01*
X72448866Y-38438744D01*
X72432645Y-38427905D01*
X72421806Y-38411684D01*
X72418000Y-38392550D01*
X72418000Y-37392550D01*
X72421806Y-37373416D01*
X72432645Y-37357195D01*
X72448866Y-37346356D01*
X72455019Y-37345131D01*
X72486103Y-37324363D01*
X72486103Y-37190737D01*
X72455021Y-37169968D01*
X72448866Y-37168744D01*
X72432645Y-37157905D01*
X72421806Y-37141684D01*
X72418000Y-37122550D01*
X72418000Y-36122550D01*
X72421806Y-36103416D01*
X72432645Y-36087195D01*
X72448866Y-36076356D01*
X72455019Y-36075131D01*
X72486103Y-36054363D01*
X72486103Y-35920737D01*
X72455021Y-35899968D01*
X72448866Y-35898744D01*
X72432645Y-35887905D01*
X72421806Y-35871684D01*
X72418000Y-35852550D01*
X72418000Y-34852550D01*
X72421806Y-34833416D01*
X72432645Y-34817195D01*
X72448866Y-34806356D01*
X72455019Y-34805131D01*
X72486103Y-34784363D01*
X72486103Y-34650737D01*
X72455021Y-34629968D01*
X72448866Y-34628744D01*
X72432645Y-34617905D01*
X72421806Y-34601684D01*
X72418000Y-34582550D01*
X72418000Y-33582550D01*
X72421806Y-33563416D01*
X72432645Y-33547195D01*
X72448866Y-33536356D01*
X72455019Y-33535131D01*
X72486103Y-33514363D01*
X72486103Y-33380737D01*
X72455021Y-33359968D01*
X72448866Y-33358744D01*
X72432645Y-33347905D01*
X72421806Y-33331684D01*
X72418000Y-33312550D01*
X72418000Y-32312550D01*
X72421806Y-32293416D01*
X72432645Y-32277195D01*
X72448866Y-32266356D01*
X72455019Y-32265131D01*
X72486103Y-32244363D01*
X72486103Y-32110737D01*
X72455021Y-32089968D01*
X72448866Y-32088744D01*
X72432645Y-32077905D01*
X72421806Y-32061684D01*
X72418000Y-32042550D01*
X72418000Y-31042550D01*
X72421806Y-31023416D01*
X72432645Y-31007195D01*
X72448866Y-30996356D01*
X72468000Y-30992550D01*
X74468000Y-30992550D01*
X74487134Y-30996356D01*
G37*
G36*
X77399386Y-41284922D02*
G01*
X77428184Y-41284922D01*
X77461204Y-41293060D01*
X77504350Y-41298741D01*
X77533884Y-41310974D01*
X77556708Y-41316600D01*
X77591311Y-41334761D01*
X77637000Y-41353686D01*
X77657845Y-41369680D01*
X77673913Y-41378114D01*
X77706765Y-41407218D01*
X77750909Y-41441091D01*
X77763454Y-41457440D01*
X77772993Y-41465891D01*
X77800349Y-41505523D01*
X77838314Y-41555000D01*
X77844035Y-41568813D01*
X77848188Y-41574829D01*
X77866204Y-41622334D01*
X77893259Y-41687650D01*
X77894473Y-41696871D01*
X77895126Y-41698593D01*
X77900181Y-41740233D01*
X77912000Y-41830000D01*
X77900180Y-41919774D01*
X77895126Y-41961406D01*
X77894473Y-41963127D01*
X77893259Y-41972350D01*
X77866200Y-42037676D01*
X77848188Y-42085170D01*
X77844036Y-42091184D01*
X77838314Y-42105000D01*
X77800342Y-42154485D01*
X77772993Y-42194108D01*
X77763456Y-42202556D01*
X77750909Y-42218909D01*
X77706756Y-42252787D01*
X77673913Y-42281885D01*
X77657849Y-42290315D01*
X77637000Y-42306314D01*
X77591302Y-42325242D01*
X77556708Y-42343399D01*
X77533889Y-42349023D01*
X77504350Y-42361259D01*
X77461201Y-42366939D01*
X77428184Y-42375078D01*
X77399386Y-42375078D01*
X77362000Y-42380000D01*
X77324614Y-42375078D01*
X77295816Y-42375078D01*
X77262797Y-42366939D01*
X77219650Y-42361259D01*
X77190111Y-42349023D01*
X77167291Y-42343399D01*
X77132692Y-42325240D01*
X77087000Y-42306314D01*
X77066153Y-42290317D01*
X77050086Y-42281885D01*
X77017235Y-42252782D01*
X76973091Y-42218909D01*
X76960545Y-42202559D01*
X76951006Y-42194108D01*
X76923647Y-42154472D01*
X76885686Y-42105000D01*
X76879964Y-42091187D01*
X76875811Y-42085170D01*
X76857787Y-42037647D01*
X76830741Y-41972350D01*
X76829527Y-41963131D01*
X76828873Y-41961406D01*
X76823806Y-41919676D01*
X76812000Y-41830000D01*
X76823805Y-41740331D01*
X76828873Y-41698593D01*
X76829527Y-41696867D01*
X76830741Y-41687650D01*
X76857783Y-41622363D01*
X76875811Y-41574829D01*
X76879965Y-41568809D01*
X76885686Y-41555000D01*
X76923640Y-41505536D01*
X76951006Y-41465891D01*
X76960547Y-41457437D01*
X76973091Y-41441091D01*
X77017227Y-41407224D01*
X77050086Y-41378114D01*
X77066157Y-41369679D01*
X77087000Y-41353686D01*
X77132683Y-41334763D01*
X77167291Y-41316600D01*
X77190116Y-41310974D01*
X77219650Y-41298741D01*
X77262795Y-41293060D01*
X77295816Y-41284922D01*
X77324614Y-41284922D01*
X77362000Y-41280000D01*
X77399386Y-41284922D01*
G37*
G36*
X71837134Y-40571356D02*
G01*
X71853355Y-40582195D01*
X71864194Y-40598416D01*
X71868000Y-40617550D01*
X71868000Y-41517550D01*
X71864194Y-41536684D01*
X71853355Y-41552905D01*
X71837134Y-41563744D01*
X71818000Y-41567550D01*
X70918000Y-41567550D01*
X70898866Y-41563744D01*
X70882645Y-41552905D01*
X70871806Y-41536684D01*
X70868000Y-41517550D01*
X70868000Y-40617550D01*
X70871806Y-40598416D01*
X70882645Y-40582195D01*
X70898866Y-40571356D01*
X70918000Y-40567550D01*
X71818000Y-40567550D01*
X71837134Y-40571356D01*
G37*
G36*
X71837134Y-39301356D02*
G01*
X71853355Y-39312195D01*
X71864194Y-39328416D01*
X71868000Y-39347550D01*
X71868000Y-40247550D01*
X71864194Y-40266684D01*
X71853355Y-40282905D01*
X71837134Y-40293744D01*
X71818000Y-40297550D01*
X70918000Y-40297550D01*
X70898866Y-40293744D01*
X70882645Y-40282905D01*
X70871806Y-40266684D01*
X70868000Y-40247550D01*
X70868000Y-39347550D01*
X70871806Y-39328416D01*
X70882645Y-39312195D01*
X70898866Y-39301356D01*
X70918000Y-39297550D01*
X71818000Y-39297550D01*
X71837134Y-39301356D01*
G37*
G36*
X77419386Y-38744922D02*
G01*
X77448184Y-38744922D01*
X77481204Y-38753060D01*
X77524350Y-38758741D01*
X77553884Y-38770974D01*
X77576708Y-38776600D01*
X77611311Y-38794761D01*
X77657000Y-38813686D01*
X77677845Y-38829680D01*
X77693913Y-38838114D01*
X77726765Y-38867218D01*
X77770909Y-38901091D01*
X77783454Y-38917440D01*
X77792993Y-38925891D01*
X77820349Y-38965523D01*
X77858314Y-39015000D01*
X77864035Y-39028813D01*
X77868188Y-39034829D01*
X77886204Y-39082334D01*
X77913259Y-39147650D01*
X77914473Y-39156871D01*
X77915126Y-39158593D01*
X77920181Y-39200233D01*
X77932000Y-39290000D01*
X77920180Y-39379774D01*
X77915126Y-39421406D01*
X77914473Y-39423127D01*
X77913259Y-39432350D01*
X77886200Y-39497676D01*
X77868188Y-39545170D01*
X77864036Y-39551184D01*
X77858314Y-39565000D01*
X77820342Y-39614485D01*
X77792993Y-39654108D01*
X77783456Y-39662556D01*
X77770909Y-39678909D01*
X77726756Y-39712787D01*
X77693913Y-39741885D01*
X77677849Y-39750315D01*
X77657000Y-39766314D01*
X77611302Y-39785242D01*
X77576708Y-39803399D01*
X77553889Y-39809023D01*
X77524350Y-39821259D01*
X77481201Y-39826939D01*
X77448184Y-39835078D01*
X77419386Y-39835078D01*
X77382000Y-39840000D01*
X77344614Y-39835078D01*
X77315816Y-39835078D01*
X77282797Y-39826939D01*
X77239650Y-39821259D01*
X77210111Y-39809023D01*
X77187291Y-39803399D01*
X77152692Y-39785240D01*
X77107000Y-39766314D01*
X77086153Y-39750317D01*
X77070086Y-39741885D01*
X77037235Y-39712782D01*
X76993091Y-39678909D01*
X76980545Y-39662559D01*
X76971006Y-39654108D01*
X76943647Y-39614472D01*
X76905686Y-39565000D01*
X76899964Y-39551187D01*
X76895811Y-39545170D01*
X76877787Y-39497647D01*
X76850741Y-39432350D01*
X76849527Y-39423131D01*
X76848873Y-39421406D01*
X76843806Y-39379676D01*
X76832000Y-39290000D01*
X76843805Y-39200331D01*
X76848873Y-39158593D01*
X76849527Y-39156867D01*
X76850741Y-39147650D01*
X76877783Y-39082363D01*
X76895811Y-39034829D01*
X76899965Y-39028809D01*
X76905686Y-39015000D01*
X76943640Y-38965536D01*
X76971006Y-38925891D01*
X76980547Y-38917437D01*
X76993091Y-38901091D01*
X77037227Y-38867224D01*
X77070086Y-38838114D01*
X77086157Y-38829679D01*
X77107000Y-38813686D01*
X77152683Y-38794763D01*
X77187291Y-38776600D01*
X77210116Y-38770974D01*
X77239650Y-38758741D01*
X77282795Y-38753060D01*
X77315816Y-38744922D01*
X77344614Y-38744922D01*
X77382000Y-38740000D01*
X77419386Y-38744922D01*
G37*
G36*
X58688537Y-38393190D02*
G01*
X58720580Y-38397408D01*
X58728642Y-38401167D01*
X58748080Y-38405034D01*
X58773830Y-38422239D01*
X58784674Y-38427296D01*
X58791270Y-38433892D01*
X58812154Y-38447846D01*
X58826107Y-38468729D01*
X58832703Y-38475325D01*
X58837758Y-38486167D01*
X58854966Y-38511920D01*
X58858832Y-38531359D01*
X58862591Y-38539419D01*
X58866807Y-38571451D01*
X58870000Y-38587500D01*
X58870000Y-38882500D01*
X58866807Y-38898551D01*
X58862591Y-38930580D01*
X58858833Y-38938638D01*
X58854966Y-38958080D01*
X58837757Y-38983835D01*
X58832703Y-38994674D01*
X58826109Y-39001267D01*
X58812154Y-39022154D01*
X58791267Y-39036109D01*
X58784674Y-39042703D01*
X58773835Y-39047757D01*
X58748080Y-39064966D01*
X58728638Y-39068833D01*
X58720580Y-39072591D01*
X58688550Y-39076807D01*
X58672500Y-39080000D01*
X58327500Y-39080000D01*
X58311449Y-39076807D01*
X58279419Y-39072591D01*
X58271359Y-39068832D01*
X58251920Y-39064966D01*
X58226167Y-39047758D01*
X58215325Y-39042703D01*
X58208729Y-39036107D01*
X58187846Y-39022154D01*
X58173892Y-39001270D01*
X58167296Y-38994674D01*
X58162239Y-38983830D01*
X58145034Y-38958080D01*
X58141167Y-38938642D01*
X58137408Y-38930580D01*
X58133189Y-38898535D01*
X58130000Y-38882500D01*
X58130000Y-38587500D01*
X58133189Y-38571465D01*
X58137408Y-38539419D01*
X58141167Y-38531356D01*
X58145034Y-38511920D01*
X58162237Y-38486172D01*
X58167296Y-38475325D01*
X58173894Y-38468726D01*
X58187846Y-38447846D01*
X58208726Y-38433894D01*
X58215325Y-38427296D01*
X58226172Y-38422237D01*
X58251920Y-38405034D01*
X58271356Y-38401167D01*
X58279419Y-38397408D01*
X58311466Y-38393189D01*
X58327500Y-38390000D01*
X58672500Y-38390000D01*
X58688537Y-38393190D01*
G37*
G36*
X71837134Y-38031356D02*
G01*
X71853355Y-38042195D01*
X71864194Y-38058416D01*
X71868000Y-38077550D01*
X71868000Y-38977550D01*
X71864194Y-38996684D01*
X71853355Y-39012905D01*
X71837134Y-39023744D01*
X71818000Y-39027550D01*
X70918000Y-39027550D01*
X70898866Y-39023744D01*
X70882645Y-39012905D01*
X70871806Y-38996684D01*
X70868000Y-38977550D01*
X70868000Y-38077550D01*
X70871806Y-38058416D01*
X70882645Y-38042195D01*
X70898866Y-38031356D01*
X70918000Y-38027550D01*
X71818000Y-38027550D01*
X71837134Y-38031356D01*
G37*
G36*
X58688537Y-37423190D02*
G01*
X58720580Y-37427408D01*
X58728642Y-37431167D01*
X58748080Y-37435034D01*
X58773830Y-37452239D01*
X58784674Y-37457296D01*
X58791270Y-37463892D01*
X58812154Y-37477846D01*
X58826107Y-37498729D01*
X58832703Y-37505325D01*
X58837758Y-37516167D01*
X58854966Y-37541920D01*
X58858832Y-37561359D01*
X58862591Y-37569419D01*
X58866807Y-37601451D01*
X58870000Y-37617500D01*
X58870000Y-37912500D01*
X58866807Y-37928551D01*
X58862591Y-37960580D01*
X58858833Y-37968638D01*
X58854966Y-37988080D01*
X58837757Y-38013835D01*
X58832703Y-38024674D01*
X58826109Y-38031267D01*
X58812154Y-38052154D01*
X58791267Y-38066109D01*
X58784674Y-38072703D01*
X58773835Y-38077757D01*
X58748080Y-38094966D01*
X58728638Y-38098833D01*
X58720580Y-38102591D01*
X58688550Y-38106807D01*
X58672500Y-38110000D01*
X58327500Y-38110000D01*
X58311449Y-38106807D01*
X58279419Y-38102591D01*
X58271359Y-38098832D01*
X58251920Y-38094966D01*
X58226167Y-38077758D01*
X58215325Y-38072703D01*
X58208729Y-38066107D01*
X58187846Y-38052154D01*
X58173892Y-38031270D01*
X58167296Y-38024674D01*
X58162239Y-38013830D01*
X58145034Y-37988080D01*
X58141167Y-37968642D01*
X58137408Y-37960580D01*
X58133189Y-37928535D01*
X58130000Y-37912500D01*
X58130000Y-37617500D01*
X58133189Y-37601465D01*
X58137408Y-37569419D01*
X58141167Y-37561356D01*
X58145034Y-37541920D01*
X58162237Y-37516172D01*
X58167296Y-37505325D01*
X58173894Y-37498726D01*
X58187846Y-37477846D01*
X58208726Y-37463894D01*
X58215325Y-37457296D01*
X58226172Y-37452237D01*
X58251920Y-37435034D01*
X58271356Y-37431167D01*
X58279419Y-37427408D01*
X58311466Y-37423189D01*
X58327500Y-37420000D01*
X58672500Y-37420000D01*
X58688537Y-37423190D01*
G37*
G36*
X71837134Y-36761356D02*
G01*
X71853355Y-36772195D01*
X71864194Y-36788416D01*
X71868000Y-36807550D01*
X71868000Y-37707550D01*
X71864194Y-37726684D01*
X71853355Y-37742905D01*
X71837134Y-37753744D01*
X71818000Y-37757550D01*
X70918000Y-37757550D01*
X70898866Y-37753744D01*
X70882645Y-37742905D01*
X70871806Y-37726684D01*
X70868000Y-37707550D01*
X70868000Y-36807550D01*
X70871806Y-36788416D01*
X70882645Y-36772195D01*
X70898866Y-36761356D01*
X70918000Y-36757550D01*
X71818000Y-36757550D01*
X71837134Y-36761356D01*
G37*
G36*
X77419386Y-36204922D02*
G01*
X77448184Y-36204922D01*
X77481204Y-36213060D01*
X77524350Y-36218741D01*
X77553884Y-36230974D01*
X77576708Y-36236600D01*
X77611311Y-36254761D01*
X77657000Y-36273686D01*
X77677845Y-36289680D01*
X77693913Y-36298114D01*
X77726765Y-36327218D01*
X77770909Y-36361091D01*
X77783454Y-36377440D01*
X77792993Y-36385891D01*
X77820349Y-36425523D01*
X77858314Y-36475000D01*
X77864035Y-36488813D01*
X77868188Y-36494829D01*
X77886204Y-36542334D01*
X77913259Y-36607650D01*
X77914473Y-36616871D01*
X77915126Y-36618593D01*
X77920181Y-36660233D01*
X77932000Y-36750000D01*
X77920180Y-36839774D01*
X77915126Y-36881406D01*
X77914473Y-36883127D01*
X77913259Y-36892350D01*
X77886200Y-36957676D01*
X77868188Y-37005170D01*
X77864036Y-37011184D01*
X77858314Y-37025000D01*
X77820342Y-37074485D01*
X77792993Y-37114108D01*
X77783456Y-37122556D01*
X77770909Y-37138909D01*
X77726756Y-37172787D01*
X77693913Y-37201885D01*
X77677849Y-37210315D01*
X77657000Y-37226314D01*
X77611302Y-37245242D01*
X77576708Y-37263399D01*
X77553889Y-37269023D01*
X77524350Y-37281259D01*
X77481201Y-37286939D01*
X77448184Y-37295078D01*
X77419386Y-37295078D01*
X77382000Y-37300000D01*
X77344614Y-37295078D01*
X77315816Y-37295078D01*
X77282797Y-37286939D01*
X77239650Y-37281259D01*
X77210111Y-37269023D01*
X77187291Y-37263399D01*
X77152692Y-37245240D01*
X77107000Y-37226314D01*
X77086153Y-37210317D01*
X77070086Y-37201885D01*
X77037235Y-37172782D01*
X76993091Y-37138909D01*
X76980545Y-37122559D01*
X76971006Y-37114108D01*
X76943647Y-37074472D01*
X76905686Y-37025000D01*
X76899964Y-37011187D01*
X76895811Y-37005170D01*
X76877787Y-36957647D01*
X76850741Y-36892350D01*
X76849527Y-36883131D01*
X76848873Y-36881406D01*
X76843806Y-36839676D01*
X76832000Y-36750000D01*
X76843805Y-36660331D01*
X76848873Y-36618593D01*
X76849527Y-36616867D01*
X76850741Y-36607650D01*
X76877783Y-36542363D01*
X76895811Y-36494829D01*
X76899965Y-36488809D01*
X76905686Y-36475000D01*
X76943640Y-36425536D01*
X76971006Y-36385891D01*
X76980547Y-36377437D01*
X76993091Y-36361091D01*
X77037227Y-36327224D01*
X77070086Y-36298114D01*
X77086157Y-36289679D01*
X77107000Y-36273686D01*
X77152683Y-36254763D01*
X77187291Y-36236600D01*
X77210116Y-36230974D01*
X77239650Y-36218741D01*
X77282795Y-36213060D01*
X77315816Y-36204922D01*
X77344614Y-36204922D01*
X77382000Y-36200000D01*
X77419386Y-36204922D01*
G37*
G36*
X71837134Y-35491356D02*
G01*
X71853355Y-35502195D01*
X71864194Y-35518416D01*
X71868000Y-35537550D01*
X71868000Y-36437550D01*
X71864194Y-36456684D01*
X71853355Y-36472905D01*
X71837134Y-36483744D01*
X71818000Y-36487550D01*
X70918000Y-36487550D01*
X70898866Y-36483744D01*
X70882645Y-36472905D01*
X70871806Y-36456684D01*
X70868000Y-36437550D01*
X70868000Y-35537550D01*
X70871806Y-35518416D01*
X70882645Y-35502195D01*
X70898866Y-35491356D01*
X70918000Y-35487550D01*
X71818000Y-35487550D01*
X71837134Y-35491356D01*
G37*
G36*
X71837134Y-34221356D02*
G01*
X71853355Y-34232195D01*
X71864194Y-34248416D01*
X71868000Y-34267550D01*
X71868000Y-35167550D01*
X71864194Y-35186684D01*
X71853355Y-35202905D01*
X71837134Y-35213744D01*
X71818000Y-35217550D01*
X70918000Y-35217550D01*
X70898866Y-35213744D01*
X70882645Y-35202905D01*
X70871806Y-35186684D01*
X70868000Y-35167550D01*
X70868000Y-34267550D01*
X70871806Y-34248416D01*
X70882645Y-34232195D01*
X70898866Y-34221356D01*
X70918000Y-34217550D01*
X71818000Y-34217550D01*
X71837134Y-34221356D01*
G37*
G36*
X77419386Y-33664922D02*
G01*
X77448184Y-33664922D01*
X77481204Y-33673060D01*
X77524350Y-33678741D01*
X77553884Y-33690974D01*
X77576708Y-33696600D01*
X77611311Y-33714761D01*
X77657000Y-33733686D01*
X77677845Y-33749680D01*
X77693913Y-33758114D01*
X77726765Y-33787218D01*
X77770909Y-33821091D01*
X77783454Y-33837440D01*
X77792993Y-33845891D01*
X77820349Y-33885523D01*
X77858314Y-33935000D01*
X77864035Y-33948813D01*
X77868188Y-33954829D01*
X77886204Y-34002334D01*
X77913259Y-34067650D01*
X77914473Y-34076871D01*
X77915126Y-34078593D01*
X77920181Y-34120233D01*
X77932000Y-34210000D01*
X77920180Y-34299774D01*
X77915126Y-34341406D01*
X77914473Y-34343127D01*
X77913259Y-34352350D01*
X77886200Y-34417676D01*
X77868188Y-34465170D01*
X77864036Y-34471184D01*
X77858314Y-34485000D01*
X77820342Y-34534485D01*
X77792993Y-34574108D01*
X77783456Y-34582556D01*
X77770909Y-34598909D01*
X77726756Y-34632787D01*
X77693913Y-34661885D01*
X77677849Y-34670315D01*
X77657000Y-34686314D01*
X77611302Y-34705242D01*
X77576708Y-34723399D01*
X77553889Y-34729023D01*
X77524350Y-34741259D01*
X77481201Y-34746939D01*
X77448184Y-34755078D01*
X77419386Y-34755078D01*
X77382000Y-34760000D01*
X77344614Y-34755078D01*
X77315816Y-34755078D01*
X77282797Y-34746939D01*
X77239650Y-34741259D01*
X77210111Y-34729023D01*
X77187291Y-34723399D01*
X77152692Y-34705240D01*
X77107000Y-34686314D01*
X77086153Y-34670317D01*
X77070086Y-34661885D01*
X77037235Y-34632782D01*
X76993091Y-34598909D01*
X76980545Y-34582559D01*
X76971006Y-34574108D01*
X76943647Y-34534472D01*
X76905686Y-34485000D01*
X76899964Y-34471187D01*
X76895811Y-34465170D01*
X76877787Y-34417647D01*
X76850741Y-34352350D01*
X76849527Y-34343131D01*
X76848873Y-34341406D01*
X76843806Y-34299676D01*
X76832000Y-34210000D01*
X76843805Y-34120331D01*
X76848873Y-34078593D01*
X76849527Y-34076867D01*
X76850741Y-34067650D01*
X76877783Y-34002363D01*
X76895811Y-33954829D01*
X76899965Y-33948809D01*
X76905686Y-33935000D01*
X76943640Y-33885536D01*
X76971006Y-33845891D01*
X76980547Y-33837437D01*
X76993091Y-33821091D01*
X77037227Y-33787224D01*
X77070086Y-33758114D01*
X77086157Y-33749679D01*
X77107000Y-33733686D01*
X77152683Y-33714763D01*
X77187291Y-33696600D01*
X77210116Y-33690974D01*
X77239650Y-33678741D01*
X77282795Y-33673060D01*
X77315816Y-33664922D01*
X77344614Y-33664922D01*
X77382000Y-33660000D01*
X77419386Y-33664922D01*
G37*
G36*
X58523504Y-33083803D02*
G01*
X58539065Y-33090674D01*
X58546541Y-33091858D01*
X58577670Y-33107719D01*
X58622259Y-33127407D01*
X58698593Y-33203741D01*
X58718283Y-33248336D01*
X58734141Y-33279458D01*
X58735324Y-33286931D01*
X58742197Y-33302496D01*
X58750000Y-33369750D01*
X58750000Y-33857250D01*
X58742197Y-33924504D01*
X58735324Y-33940069D01*
X58734141Y-33947541D01*
X58718286Y-33978655D01*
X58698593Y-34023259D01*
X58622259Y-34099593D01*
X58577655Y-34119286D01*
X58546541Y-34135141D01*
X58539069Y-34136324D01*
X58523504Y-34143197D01*
X58456250Y-34151000D01*
X57543750Y-34151000D01*
X57476496Y-34143197D01*
X57460931Y-34136324D01*
X57453458Y-34135141D01*
X57422336Y-34119283D01*
X57377741Y-34099593D01*
X57301407Y-34023259D01*
X57281719Y-33978670D01*
X57265858Y-33947541D01*
X57264674Y-33940065D01*
X57257803Y-33924504D01*
X57250000Y-33857250D01*
X57250000Y-33369750D01*
X57257803Y-33302496D01*
X57264673Y-33286934D01*
X57265858Y-33279458D01*
X57281722Y-33248321D01*
X57301407Y-33203741D01*
X57377741Y-33127407D01*
X57422321Y-33107722D01*
X57453458Y-33091858D01*
X57460934Y-33090673D01*
X57476496Y-33083803D01*
X57543750Y-33076000D01*
X58456250Y-33076000D01*
X58523504Y-33083803D01*
G37*
G36*
X71837134Y-32951356D02*
G01*
X71853355Y-32962195D01*
X71864194Y-32978416D01*
X71868000Y-32997550D01*
X71868000Y-33897550D01*
X71864194Y-33916684D01*
X71853355Y-33932905D01*
X71837134Y-33943744D01*
X71818000Y-33947550D01*
X70918000Y-33947550D01*
X70898866Y-33943744D01*
X70882645Y-33932905D01*
X70871806Y-33916684D01*
X70868000Y-33897550D01*
X70868000Y-32997550D01*
X70871806Y-32978416D01*
X70882645Y-32962195D01*
X70898866Y-32951356D01*
X70918000Y-32947550D01*
X71818000Y-32947550D01*
X71837134Y-32951356D01*
G37*
G36*
X71837134Y-31681356D02*
G01*
X71853355Y-31692195D01*
X71864194Y-31708416D01*
X71868000Y-31727550D01*
X71868000Y-32627550D01*
X71864194Y-32646684D01*
X71853355Y-32662905D01*
X71837134Y-32673744D01*
X71818000Y-32677550D01*
X70918000Y-32677550D01*
X70898866Y-32673744D01*
X70882645Y-32662905D01*
X70871806Y-32646684D01*
X70868000Y-32627550D01*
X70868000Y-31727550D01*
X70871806Y-31708416D01*
X70882645Y-31692195D01*
X70898866Y-31681356D01*
X70918000Y-31677550D01*
X71818000Y-31677550D01*
X71837134Y-31681356D01*
G37*
G36*
X58523504Y-31208803D02*
G01*
X58539065Y-31215674D01*
X58546541Y-31216858D01*
X58577670Y-31232719D01*
X58622259Y-31252407D01*
X58698593Y-31328741D01*
X58718283Y-31373336D01*
X58734141Y-31404458D01*
X58735324Y-31411931D01*
X58742197Y-31427496D01*
X58750000Y-31494750D01*
X58750000Y-31982250D01*
X58742197Y-32049504D01*
X58735324Y-32065069D01*
X58734141Y-32072541D01*
X58718286Y-32103655D01*
X58698593Y-32148259D01*
X58622259Y-32224593D01*
X58577655Y-32244286D01*
X58546541Y-32260141D01*
X58539069Y-32261324D01*
X58523504Y-32268197D01*
X58456250Y-32276000D01*
X57543750Y-32276000D01*
X57476496Y-32268197D01*
X57460931Y-32261324D01*
X57453458Y-32260141D01*
X57422336Y-32244283D01*
X57377741Y-32224593D01*
X57301407Y-32148259D01*
X57281719Y-32103670D01*
X57265858Y-32072541D01*
X57264674Y-32065065D01*
X57257803Y-32049504D01*
X57250000Y-31982250D01*
X57250000Y-31494750D01*
X57257803Y-31427496D01*
X57264673Y-31411934D01*
X57265858Y-31404458D01*
X57281722Y-31373321D01*
X57301407Y-31328741D01*
X57377741Y-31252407D01*
X57422321Y-31232722D01*
X57453458Y-31216858D01*
X57460934Y-31215673D01*
X57476496Y-31208803D01*
X57543750Y-31201000D01*
X58456250Y-31201000D01*
X58523504Y-31208803D01*
G37*
G36*
X77419386Y-31124922D02*
G01*
X77448184Y-31124922D01*
X77481204Y-31133060D01*
X77524350Y-31138741D01*
X77553884Y-31150974D01*
X77576708Y-31156600D01*
X77611311Y-31174761D01*
X77657000Y-31193686D01*
X77677845Y-31209680D01*
X77693913Y-31218114D01*
X77726765Y-31247218D01*
X77770909Y-31281091D01*
X77783454Y-31297440D01*
X77792993Y-31305891D01*
X77820349Y-31345523D01*
X77858314Y-31395000D01*
X77864035Y-31408813D01*
X77868188Y-31414829D01*
X77886204Y-31462334D01*
X77913259Y-31527650D01*
X77914473Y-31536871D01*
X77915126Y-31538593D01*
X77920181Y-31580233D01*
X77932000Y-31670000D01*
X77920180Y-31759774D01*
X77915126Y-31801406D01*
X77914473Y-31803127D01*
X77913259Y-31812350D01*
X77886200Y-31877676D01*
X77868188Y-31925170D01*
X77864036Y-31931184D01*
X77858314Y-31945000D01*
X77820342Y-31994485D01*
X77792993Y-32034108D01*
X77783456Y-32042556D01*
X77770909Y-32058909D01*
X77726756Y-32092787D01*
X77693913Y-32121885D01*
X77677849Y-32130315D01*
X77657000Y-32146314D01*
X77611302Y-32165242D01*
X77576708Y-32183399D01*
X77553889Y-32189023D01*
X77524350Y-32201259D01*
X77481201Y-32206939D01*
X77448184Y-32215078D01*
X77419386Y-32215078D01*
X77382000Y-32220000D01*
X77344614Y-32215078D01*
X77315816Y-32215078D01*
X77282797Y-32206939D01*
X77239650Y-32201259D01*
X77210111Y-32189023D01*
X77187291Y-32183399D01*
X77152692Y-32165240D01*
X77107000Y-32146314D01*
X77086153Y-32130317D01*
X77070086Y-32121885D01*
X77037235Y-32092782D01*
X76993091Y-32058909D01*
X76980545Y-32042559D01*
X76971006Y-32034108D01*
X76943647Y-31994472D01*
X76905686Y-31945000D01*
X76899964Y-31931187D01*
X76895811Y-31925170D01*
X76877787Y-31877647D01*
X76850741Y-31812350D01*
X76849527Y-31803131D01*
X76848873Y-31801406D01*
X76843806Y-31759676D01*
X76832000Y-31670000D01*
X76843805Y-31580331D01*
X76848873Y-31538593D01*
X76849527Y-31536867D01*
X76850741Y-31527650D01*
X76877783Y-31462363D01*
X76895811Y-31414829D01*
X76899965Y-31408809D01*
X76905686Y-31395000D01*
X76943640Y-31345536D01*
X76971006Y-31305891D01*
X76980547Y-31297437D01*
X76993091Y-31281091D01*
X77037227Y-31247224D01*
X77070086Y-31218114D01*
X77086157Y-31209679D01*
X77107000Y-31193686D01*
X77152683Y-31174763D01*
X77187291Y-31156600D01*
X77210116Y-31150974D01*
X77239650Y-31138741D01*
X77282795Y-31133060D01*
X77315816Y-31124922D01*
X77344614Y-31124922D01*
X77382000Y-31120000D01*
X77419386Y-31124922D01*
G37*
M02*
