M48
; DRILL file {KiCad 7.0.9} date Sat Feb 10 14:11:53 2024
; FORMAT={-:-/ absolute / inch / decimal}
; #@! TF.CreationDate,2024-02-10T14:11:53+01:00
; #@! TF.GenerationSoftware,Kicad,Pcbnew,7.0.9
; #@! TF.FileFunction,Plated,1,2,PTH
FMAT,2
INCH
; #@! TA.AperFunction,Plated,PTH,ViaDrill
T1C0.0118
%
G90
G05
T1
X2.2865Y-1.6265
X2.2865Y-1.6615
X2.2865Y-1.6965
X2.2865Y-1.7315
X2.313Y-1.4272
X2.313Y-1.4567
X2.3425Y-1.811
X2.3565Y-2.5265
X2.3715Y-1.8715
X2.3865Y-2.5265
X2.4015Y-1.8465
X2.4114Y-1.7421
X2.4165Y-2.5265
X2.4409Y-1.4272
X2.4409Y-1.4567
X2.4465Y-2.5265
X2.4515Y-2.0265
X2.4705Y-1.3583
X2.5Y-1.4173
X2.5465Y-1.2665
X2.5865Y-1.2665
X2.6265Y-1.2665
X2.6615Y-1.7715
X2.6615Y-1.7965
X2.6715Y-1.2665
X2.7115Y-1.2665
X2.7265Y-1.4715
X2.7265Y-1.5015
X2.7265Y-1.5315
X2.7465Y-1.2665
X2.7615Y-1.7965
X2.7617Y-1.7715
X2.7715Y-1.9165
X2.7715Y-1.9465
X2.7715Y-1.9765
X2.7715Y-2.0065
X2.7715Y-2.0365
X2.9429Y-1.7815
X2.9515Y-2.5165
X2.9528Y-1.8406
X2.9528Y-1.8799
X2.9565Y-1.3065
X2.9615Y-1.3665
X2.9615Y-1.4173
X2.9626Y-1.4665
X2.9626Y-1.5157
X2.9724Y-1.5748
X2.9724Y-1.6142
X2.9724Y-1.6535
X2.9724Y-1.6929
X2.9724Y-1.8012
X2.9804Y-1.9606
X2.9815Y-2.5165
X3.0115Y-2.5165
X3.0217Y-2.1378
X3.0217Y-2.3031
X3.0415Y-2.5165
T0
M30
